<svg xmlns="http://www.w3.org/2000/svg" width="192" height="192" viewBox="0 0 192 192"><ellipse cx="96" cy="166" rx="53" ry="12" fill="#40594d" opacity=".1"/><polygon points="68.98,58.40 60.67,63.20 68.98,68.00 77.29,63.20" fill="rgb(243,199,101)" stroke="rgb(243,199,101)" stroke-width=".3"/><polygon points="68.98,48.80 60.67,53.60 68.98,58.40 77.29,53.60" fill="rgb(243,199,101)" stroke="rgb(243,199,101)" stroke-width=".3"/><polygon points="68.98,39.20 60.67,44.00 68.98,48.80 77.29,44.00" fill="rgb(243,199,101)" stroke="rgb(243,199,101)" stroke-width=".3"/><polygon points="68.98,29.60 60.67,34.40 68.98,39.20 77.29,34.40" fill="rgb(243,199,101)" stroke="rgb(243,199,101)" stroke-width=".3"/><polygon points="68.98,20.00 60.67,24.80 68.98,29.60 77.29,24.80" fill="rgb(243,199,101)" stroke="rgb(243,199,101)" stroke-width=".3"/><polygon points="81.45,137.60 81.45,65.60 77.29,68.00 77.29,140.00" fill="rgb(102,140,105)" stroke="rgb(102,140,105)" stroke-width=".3"/><polygon points="60.67,68.00 68.98,72.80 68.98,68.00 60.67,63.20" fill="rgb(161,132,67)" stroke="rgb(161,132,67)" stroke-width=".3"/><polygon points="73.14,137.60 77.29,140.00 77.29,53.60 73.14,51.20" fill="rgb(86,119,89)" stroke="rgb(86,119,89)" stroke-width=".3"/><polygon points="60.67,58.40 68.98,63.20 68.98,58.40 60.67,53.60" fill="rgb(161,132,67)" stroke="rgb(161,132,67)" stroke-width=".3"/><polygon points="77.29,48.80 73.14,51.20 77.29,53.60 81.45,51.20" fill="rgb(131,180,135)" stroke="rgb(131,180,135)" stroke-width=".3"/><polygon points="60.67,48.80 68.98,53.60 68.98,48.80 60.67,44.00" fill="rgb(161,132,67)" stroke="rgb(161,132,67)" stroke-width=".3"/><polygon points="77.29,48.80 77.29,44.00 68.98,48.80 68.98,53.60" fill="rgb(190,156,79)" stroke="rgb(190,156,79)" stroke-width=".3"/><polygon points="60.67,39.20 68.98,44.00 68.98,39.20 60.67,34.40" fill="rgb(161,132,67)" stroke="rgb(161,132,67)" stroke-width=".3"/><polygon points="77.29,39.20 77.29,34.40 68.98,39.20 68.98,44.00" fill="rgb(190,156,79)" stroke="rgb(190,156,79)" stroke-width=".3"/><polygon points="73.14,70.40 73.14,65.60 68.98,68.00 68.98,72.80" fill="rgb(190,156,79)" stroke="rgb(190,156,79)" stroke-width=".3"/><polygon points="60.67,29.60 68.98,34.40 68.98,29.60 60.67,24.80" fill="rgb(161,132,67)" stroke="rgb(161,132,67)" stroke-width=".3"/><polygon points="77.29,29.60 77.29,24.80 68.98,29.60 68.98,34.40" fill="rgb(190,156,79)" stroke="rgb(190,156,79)" stroke-width=".3"/><polygon points="73.14,60.80 73.14,56.00 68.98,58.40 68.98,63.20" fill="rgb(190,156,79)" stroke="rgb(190,156,79)" stroke-width=".3"/><polygon points="81.45,60.80 81.45,56.00 77.29,58.40 77.29,63.20" fill="rgb(102,140,105)" stroke="rgb(102,140,105)" stroke-width=".3"/><polygon points="81.45,60.80 73.14,65.60 81.45,70.40 89.76,65.60" fill="rgb(243,199,101)" stroke="rgb(243,199,101)" stroke-width=".3"/><polygon points="81.45,51.20 73.14,56.00 81.45,60.80 89.76,56.00" fill="rgb(243,199,101)" stroke="rgb(243,199,101)" stroke-width=".3"/><polygon points="81.45,41.60 73.14,46.40 81.45,51.20 89.76,46.40" fill="rgb(243,199,101)" stroke="rgb(243,199,101)" stroke-width=".3"/><polygon points="81.45,32.00 73.14,36.80 81.45,41.60 89.76,36.80" fill="rgb(243,199,101)" stroke="rgb(243,199,101)" stroke-width=".3"/><polygon points="81.45,22.40 73.14,27.20 81.45,32.00 89.76,27.20" fill="rgb(243,199,101)" stroke="rgb(243,199,101)" stroke-width=".3"/><polygon points="89.76,70.40 89.76,65.60 81.45,70.40 81.45,75.20" fill="rgb(190,156,79)" stroke="rgb(190,156,79)" stroke-width=".3"/><polygon points="73.14,70.40 81.45,75.20 81.45,70.40 73.14,65.60" fill="rgb(161,132,67)" stroke="rgb(161,132,67)" stroke-width=".3"/><polygon points="89.76,60.80 89.76,56.00 81.45,60.80 81.45,65.60" fill="rgb(190,156,79)" stroke="rgb(190,156,79)" stroke-width=".3"/><polygon points="73.14,60.80 81.45,65.60 81.45,60.80 73.14,56.00" fill="rgb(161,132,67)" stroke="rgb(161,132,67)" stroke-width=".3"/><polygon points="73.14,51.20 81.45,56.00 81.45,51.20 73.14,46.40" fill="rgb(161,132,67)" stroke="rgb(161,132,67)" stroke-width=".3"/><polygon points="89.76,51.20 89.76,46.40 81.45,51.20 81.45,56.00" fill="rgb(190,156,79)" stroke="rgb(190,156,79)" stroke-width=".3"/><polygon points="73.14,41.60 81.45,46.40 81.45,41.60 73.14,36.80" fill="rgb(161,132,67)" stroke="rgb(161,132,67)" stroke-width=".3"/><polygon points="89.76,41.60 89.76,36.80 81.45,41.60 81.45,46.40" fill="rgb(190,156,79)" stroke="rgb(190,156,79)" stroke-width=".3"/><polygon points="89.76,32.00 89.76,27.20 81.45,32.00 81.45,36.80" fill="rgb(190,156,79)" stroke="rgb(190,156,79)" stroke-width=".3"/><polygon points="73.14,32.00 81.45,36.80 81.45,32.00 73.14,27.20" fill="rgb(161,132,67)" stroke="rgb(161,132,67)" stroke-width=".3"/><polygon points="89.76,70.40 81.45,75.20 89.76,80.00 98.08,75.20" fill="rgb(243,199,101)" stroke="rgb(243,199,101)" stroke-width=".3"/><polygon points="89.76,60.80 81.45,65.60 89.76,70.40 98.08,65.60" fill="rgb(243,199,101)" stroke="rgb(243,199,101)" stroke-width=".3"/><polygon points="89.76,51.20 81.45,56.00 89.76,60.80 98.08,56.00" fill="rgb(243,199,101)" stroke="rgb(243,199,101)" stroke-width=".3"/><polygon points="89.76,41.60 81.45,46.40 89.76,51.20 98.08,46.40" fill="rgb(243,199,101)" stroke="rgb(243,199,101)" stroke-width=".3"/><polygon points="89.76,32.00 81.45,36.80 89.76,41.60 98.08,36.80" fill="rgb(243,199,101)" stroke="rgb(243,199,101)" stroke-width=".3"/><polygon points="102.24,149.60 102.24,77.60 98.08,80.00 98.08,152.00" fill="rgb(102,140,105)" stroke="rgb(102,140,105)" stroke-width=".3"/><polygon points="81.45,80.00 89.76,84.80 89.76,80.00 81.45,75.20" fill="rgb(161,132,67)" stroke="rgb(161,132,67)" stroke-width=".3"/><polygon points="81.45,70.40 89.76,75.20 89.76,70.40 81.45,65.60" fill="rgb(161,132,67)" stroke="rgb(161,132,67)" stroke-width=".3"/><polygon points="93.92,149.60 98.08,152.00 98.08,46.40 93.92,44.00" fill="rgb(86,119,89)" stroke="rgb(86,119,89)" stroke-width=".3"/><polygon points="81.45,60.80 89.76,65.60 89.76,60.80 81.45,56.00" fill="rgb(161,132,67)" stroke="rgb(161,132,67)" stroke-width=".3"/><polygon points="81.45,51.20 89.76,56.00 89.76,51.20 81.45,46.40" fill="rgb(161,132,67)" stroke="rgb(161,132,67)" stroke-width=".3"/><polygon points="93.92,82.40 93.92,77.60 89.76,80.00 89.76,84.80" fill="rgb(190,156,79)" stroke="rgb(190,156,79)" stroke-width=".3"/><polygon points="98.08,41.60 93.92,44.00 98.08,46.40 102.24,44.00" fill="rgb(131,180,135)" stroke="rgb(131,180,135)" stroke-width=".3"/><polygon points="81.45,41.60 89.76,46.40 89.76,41.60 81.45,36.80" fill="rgb(161,132,67)" stroke="rgb(161,132,67)" stroke-width=".3"/><polygon points="98.08,41.60 98.08,36.80 89.76,41.60 89.76,46.40" fill="rgb(190,156,79)" stroke="rgb(190,156,79)" stroke-width=".3"/><polygon points="102.24,72.80 102.24,68.00 98.08,70.40 98.08,75.20" fill="rgb(102,140,105)" stroke="rgb(102,140,105)" stroke-width=".3"/><polygon points="93.92,72.80 93.92,68.00 89.76,70.40 89.76,75.20" fill="rgb(190,156,79)" stroke="rgb(190,156,79)" stroke-width=".3"/><polygon points="102.24,63.20 102.24,58.40 98.08,60.80 98.08,65.60" fill="rgb(102,140,105)" stroke="rgb(102,140,105)" stroke-width=".3"/><polygon points="93.92,63.20 93.92,58.40 89.76,60.80 89.76,65.60" fill="rgb(190,156,79)" stroke="rgb(190,156,79)" stroke-width=".3"/><polygon points="102.24,53.60 102.24,48.80 98.08,51.20 98.08,56.00" fill="rgb(102,140,105)" stroke="rgb(102,140,105)" stroke-width=".3"/><polygon points="93.92,53.60 93.92,48.80 89.76,51.20 89.76,56.00" fill="rgb(190,156,79)" stroke="rgb(190,156,79)" stroke-width=".3"/><polygon points="102.24,72.80 93.92,77.60 102.24,82.40 110.55,77.60" fill="rgb(243,199,101)" stroke="rgb(243,199,101)" stroke-width=".3"/><polygon points="102.24,63.20 93.92,68.00 102.24,72.80 110.55,68.00" fill="rgb(243,199,101)" stroke="rgb(243,199,101)" stroke-width=".3"/><polygon points="102.24,53.60 93.92,58.40 102.24,63.20 110.55,58.40" fill="rgb(243,199,101)" stroke="rgb(243,199,101)" stroke-width=".3"/><polygon points="102.24,44.00 93.92,48.80 102.24,53.60 110.55,48.80" fill="rgb(243,199,101)" stroke="rgb(243,199,101)" stroke-width=".3"/><polygon points="102.24,34.40 93.92,39.20 102.24,44.00 110.55,39.20" fill="rgb(243,199,101)" stroke="rgb(243,199,101)" stroke-width=".3"/><polygon points="93.92,82.40 102.24,87.20 102.24,82.40 93.92,77.60" fill="rgb(161,132,67)" stroke="rgb(161,132,67)" stroke-width=".3"/><polygon points="110.55,82.40 110.55,77.60 102.24,82.40 102.24,87.20" fill="rgb(190,156,79)" stroke="rgb(190,156,79)" stroke-width=".3"/><polygon points="93.92,72.80 102.24,77.60 102.24,72.80 93.92,68.00" fill="rgb(161,132,67)" stroke="rgb(161,132,67)" stroke-width=".3"/><polygon points="110.55,72.80 110.55,68.00 102.24,72.80 102.24,77.60" fill="rgb(190,156,79)" stroke="rgb(190,156,79)" stroke-width=".3"/><polygon points="110.55,63.20 110.55,58.40 102.24,63.20 102.24,68.00" fill="rgb(190,156,79)" stroke="rgb(190,156,79)" stroke-width=".3"/><polygon points="93.92,63.20 102.24,68.00 102.24,63.20 93.92,58.40" fill="rgb(161,132,67)" stroke="rgb(161,132,67)" stroke-width=".3"/><polygon points="110.55,53.60 110.55,48.80 102.24,53.60 102.24,58.40" fill="rgb(190,156,79)" stroke="rgb(190,156,79)" stroke-width=".3"/><polygon points="93.92,53.60 102.24,58.40 102.24,53.60 93.92,48.80" fill="rgb(161,132,67)" stroke="rgb(161,132,67)" stroke-width=".3"/><polygon points="93.92,44.00 102.24,48.80 102.24,44.00 93.92,39.20" fill="rgb(161,132,67)" stroke="rgb(161,132,67)" stroke-width=".3"/><polygon points="110.55,44.00 110.55,39.20 102.24,44.00 102.24,48.80" fill="rgb(190,156,79)" stroke="rgb(190,156,79)" stroke-width=".3"/><polygon points="110.55,82.40 102.24,87.20 110.55,92.00 118.86,87.20" fill="rgb(243,199,101)" stroke="rgb(243,199,101)" stroke-width=".3"/><polygon points="110.55,72.80 102.24,77.60 110.55,82.40 118.86,77.60" fill="rgb(243,199,101)" stroke="rgb(243,199,101)" stroke-width=".3"/><polygon points="110.55,63.20 102.24,68.00 110.55,72.80 118.86,68.00" fill="rgb(243,199,101)" stroke="rgb(243,199,101)" stroke-width=".3"/><polygon points="110.55,53.60 102.24,58.40 110.55,63.20 118.86,58.40" fill="rgb(243,199,101)" stroke="rgb(243,199,101)" stroke-width=".3"/><polygon points="110.55,44.00 102.24,48.80 110.55,53.60 118.86,48.80" fill="rgb(243,199,101)" stroke="rgb(243,199,101)" stroke-width=".3"/><polygon points="123.02,161.60 123.02,89.60 118.86,92.00 118.86,164.00" fill="rgb(102,140,105)" stroke="rgb(102,140,105)" stroke-width=".3"/><polygon points="102.24,92.00 110.55,96.80 110.55,92.00 102.24,87.20" fill="rgb(161,132,67)" stroke="rgb(161,132,67)" stroke-width=".3"/><polygon points="114.71,161.60 118.86,164.00 118.86,77.60 114.71,75.20" fill="rgb(86,119,89)" stroke="rgb(86,119,89)" stroke-width=".3"/><polygon points="102.24,82.40 110.55,87.20 110.55,82.40 102.24,77.60" fill="rgb(161,132,67)" stroke="rgb(161,132,67)" stroke-width=".3"/><polygon points="118.86,72.80 114.71,75.20 118.86,77.60 123.02,75.20" fill="rgb(131,180,135)" stroke="rgb(131,180,135)" stroke-width=".3"/><polygon points="102.24,72.80 110.55,77.60 110.55,72.80 102.24,68.00" fill="rgb(161,132,67)" stroke="rgb(161,132,67)" stroke-width=".3"/><polygon points="118.86,72.80 118.86,68.00 110.55,72.80 110.55,77.60" fill="rgb(190,156,79)" stroke="rgb(190,156,79)" stroke-width=".3"/><polygon points="102.24,63.20 110.55,68.00 110.55,63.20 102.24,58.40" fill="rgb(161,132,67)" stroke="rgb(161,132,67)" stroke-width=".3"/><polygon points="118.86,63.20 118.86,58.40 110.55,63.20 110.55,68.00" fill="rgb(190,156,79)" stroke="rgb(190,156,79)" stroke-width=".3"/><polygon points="114.71,94.40 114.71,89.60 110.55,92.00 110.55,96.80" fill="rgb(190,156,79)" stroke="rgb(190,156,79)" stroke-width=".3"/><polygon points="102.24,53.60 110.55,58.40 110.55,53.60 102.24,48.80" fill="rgb(161,132,67)" stroke="rgb(161,132,67)" stroke-width=".3"/><polygon points="118.86,53.60 118.86,48.80 110.55,53.60 110.55,58.40" fill="rgb(190,156,79)" stroke="rgb(190,156,79)" stroke-width=".3"/><polygon points="123.02,84.80 123.02,80.00 118.86,82.40 118.86,87.20" fill="rgb(102,140,105)" stroke="rgb(102,140,105)" stroke-width=".3"/><polygon points="114.71,84.80 114.71,80.00 110.55,82.40 110.55,87.20" fill="rgb(190,156,79)" stroke="rgb(190,156,79)" stroke-width=".3"/><polygon points="123.02,84.80 114.71,89.60 123.02,94.40 131.33,89.60" fill="rgb(243,199,101)" stroke="rgb(243,199,101)" stroke-width=".3"/><polygon points="123.02,75.20 114.71,80.00 123.02,84.80 131.33,80.00" fill="rgb(243,199,101)" stroke="rgb(243,199,101)" stroke-width=".3"/><polygon points="123.02,65.60 114.71,70.40 123.02,75.20 131.33,70.40" fill="rgb(243,199,101)" stroke="rgb(243,199,101)" stroke-width=".3"/><polygon points="123.02,56.00 114.71,60.80 123.02,65.60 131.33,60.80" fill="rgb(243,199,101)" stroke="rgb(243,199,101)" stroke-width=".3"/><polygon points="123.02,46.40 114.71,51.20 123.02,56.00 131.33,51.20" fill="rgb(243,199,101)" stroke="rgb(243,199,101)" stroke-width=".3"/><polygon points="131.33,94.40 131.33,89.60 123.02,94.40 123.02,99.20" fill="rgb(190,156,79)" stroke="rgb(190,156,79)" stroke-width=".3"/><polygon points="114.71,94.40 123.02,99.20 123.02,94.40 114.71,89.60" fill="rgb(161,132,67)" stroke="rgb(161,132,67)" stroke-width=".3"/><polygon points="114.71,84.80 123.02,89.60 123.02,84.80 114.71,80.00" fill="rgb(161,132,67)" stroke="rgb(161,132,67)" stroke-width=".3"/><polygon points="131.33,84.80 131.33,80.00 123.02,84.80 123.02,89.60" fill="rgb(190,156,79)" stroke="rgb(190,156,79)" stroke-width=".3"/><polygon points="131.33,75.20 131.33,70.40 123.02,75.20 123.02,80.00" fill="rgb(190,156,79)" stroke="rgb(190,156,79)" stroke-width=".3"/><polygon points="114.71,75.20 123.02,80.00 123.02,75.20 114.71,70.40" fill="rgb(161,132,67)" stroke="rgb(161,132,67)" stroke-width=".3"/><polygon points="114.71,65.60 123.02,70.40 123.02,65.60 114.71,60.80" fill="rgb(161,132,67)" stroke="rgb(161,132,67)" stroke-width=".3"/><polygon points="131.33,65.60 131.33,60.80 123.02,65.60 123.02,70.40" fill="rgb(190,156,79)" stroke="rgb(190,156,79)" stroke-width=".3"/><polygon points="114.71,56.00 123.02,60.80 123.02,56.00 114.71,51.20" fill="rgb(161,132,67)" stroke="rgb(161,132,67)" stroke-width=".3"/><polygon points="131.33,56.00 131.33,51.20 123.02,56.00 123.02,60.80" fill="rgb(190,156,79)" stroke="rgb(190,156,79)" stroke-width=".3"/></svg>