<svg xmlns="http://www.w3.org/2000/svg" width="192" height="192" viewBox="0 0 192 192"><ellipse cx="96" cy="166" rx="53" ry="12" fill="#40594d" opacity=".1"/><polygon points="81.33,42.59 76.44,45.41 81.33,48.24 86.22,45.41" fill="rgb(131,180,135)" stroke="rgb(131,180,135)" stroke-width=".3"/><polygon points="96.00,79.29 47.10,107.53 51.99,110.35 100.89,82.12" fill="rgb(205,148,101)" stroke="rgb(205,148,101)" stroke-width=".3"/><polygon points="66.66,51.06 61.77,53.88 66.66,56.71 71.55,53.88" fill="rgb(131,180,135)" stroke="rgb(131,180,135)" stroke-width=".3"/><polygon points="96.00,51.06 91.11,53.88 96.00,56.71 100.89,53.88" fill="rgb(131,180,135)" stroke="rgb(131,180,135)" stroke-width=".3"/><polygon points="100.89,82.12 96.00,84.94 140.01,110.35 144.90,107.53" fill="rgb(205,148,101)" stroke="rgb(205,148,101)" stroke-width=".3"/><polygon points="61.77,59.53 66.66,62.35 66.66,56.71 61.77,53.88" fill="rgb(86,119,89)" stroke="rgb(86,119,89)" stroke-width=".3"/><polygon points="100.89,59.53 100.89,53.88 96.00,56.71 96.00,62.35" fill="rgb(102,140,105)" stroke="rgb(102,140,105)" stroke-width=".3"/><polygon points="86.22,39.76 76.44,45.41 81.33,48.24 91.11,42.59" fill="rgb(131,180,135)" stroke="rgb(131,180,135)" stroke-width=".3"/><polygon points="96.00,79.29 56.88,101.88 61.77,104.71 100.89,82.12" fill="rgb(61,80,93)" stroke="rgb(61,80,93)" stroke-width=".3"/><polygon points="76.44,39.76 61.77,48.24 66.66,51.06 81.33,42.59" fill="rgb(131,180,135)" stroke="rgb(131,180,135)" stroke-width=".3"/><polygon points="71.55,25.65 66.66,28.47 71.55,31.29 76.44,28.47" fill="rgb(240,181,194)" stroke="rgb(240,181,194)" stroke-width=".3"/><polygon points="91.11,25.65 86.22,28.47 91.11,31.29 96.00,28.47" fill="rgb(240,181,194)" stroke="rgb(240,181,194)" stroke-width=".3"/><polygon points="66.66,34.12 71.55,36.94 71.55,31.29 66.66,28.47" fill="rgb(158,120,128)" stroke="rgb(158,120,128)" stroke-width=".3"/><polygon points="105.78,39.76 100.89,42.59 105.78,45.41 110.67,42.59" fill="rgb(163,205,143)" stroke="rgb(163,205,143)" stroke-width=".3"/><polygon points="61.77,76.47 66.66,79.29 66.66,73.65 61.77,70.82" fill="rgb(86,119,89)" stroke="rgb(86,119,89)" stroke-width=".3"/><polygon points="100.89,76.47 100.89,70.82 96.00,73.65 96.00,79.29" fill="rgb(102,140,105)" stroke="rgb(102,140,105)" stroke-width=".3"/><polygon points="81.33,20.00 66.66,28.47 71.55,31.29 86.22,22.82" fill="rgb(240,181,194)" stroke="rgb(240,181,194)" stroke-width=".3"/><polygon points="61.77,53.88 66.66,56.71 66.66,51.06 61.77,48.24" fill="rgb(86,119,89)" stroke="rgb(86,119,89)" stroke-width=".3"/><polygon points="110.67,48.24 110.67,42.59 105.78,45.41 105.78,51.06" fill="rgb(127,160,111)" stroke="rgb(127,160,111)" stroke-width=".3"/><polygon points="71.55,48.24 76.44,51.06 76.44,45.41 71.55,42.59" fill="rgb(108,135,94)" stroke="rgb(108,135,94)" stroke-width=".3"/><polygon points="96.00,28.47 91.11,31.29 100.89,36.94 105.78,34.12" fill="rgb(163,205,143)" stroke="rgb(163,205,143)" stroke-width=".3"/><polygon points="86.22,22.82 81.33,25.65 91.11,31.29 96.00,28.47" fill="rgb(240,181,194)" stroke="rgb(240,181,194)" stroke-width=".3"/><polygon points="100.89,82.12 81.33,93.41 115.56,113.18 135.12,101.88" fill="rgb(61,80,93)" stroke="rgb(61,80,93)" stroke-width=".3"/><polygon points="61.77,53.88 56.88,56.71 61.77,59.53 66.66,56.71" fill="rgb(131,180,135)" stroke="rgb(131,180,135)" stroke-width=".3"/><polygon points="110.67,53.88 105.78,56.71 110.67,59.53 115.56,56.71" fill="rgb(131,180,135)" stroke="rgb(131,180,135)" stroke-width=".3"/><polygon points="86.22,96.24 86.22,79.29 81.33,82.12 81.33,99.06" fill="rgb(102,140,105)" stroke="rgb(102,140,105)" stroke-width=".3"/><polygon points="76.44,96.24 81.33,99.06 81.33,82.12 76.44,79.29" fill="rgb(86,119,89)" stroke="rgb(86,119,89)" stroke-width=".3"/><polygon points="115.56,62.35 115.56,56.71 110.67,59.53 110.67,65.18" fill="rgb(102,140,105)" stroke="rgb(102,140,105)" stroke-width=".3"/><polygon points="81.33,20.00 76.44,22.82 81.33,25.65 86.22,22.82" fill="rgb(240,181,194)" stroke="rgb(240,181,194)" stroke-width=".3"/><polygon points="71.55,48.24 61.77,53.88 66.66,56.71 76.44,51.06" fill="rgb(131,180,135)" stroke="rgb(131,180,135)" stroke-width=".3"/><polygon points="66.66,45.41 71.55,48.24 71.55,31.29 66.66,28.47" fill="rgb(158,120,128)" stroke="rgb(158,120,128)" stroke-width=".3"/><polygon points="56.88,68.00 66.66,73.65 66.66,62.35 56.88,56.71" fill="rgb(86,119,89)" stroke="rgb(86,119,89)" stroke-width=".3"/><polygon points="86.22,96.24 81.33,99.06 91.11,104.71 96.00,101.88" fill="rgb(61,80,93)" stroke="rgb(61,80,93)" stroke-width=".3"/><polygon points="76.44,28.47 81.33,31.29 81.33,25.65 76.44,22.82" fill="rgb(158,120,128)" stroke="rgb(158,120,128)" stroke-width=".3"/><polygon points="86.22,28.47 86.22,22.82 81.33,25.65 81.33,31.29" fill="rgb(187,141,151)" stroke="rgb(187,141,151)" stroke-width=".3"/><polygon points="100.89,82.12 100.89,76.47 96.00,79.29 96.00,84.94" fill="rgb(102,140,105)" stroke="rgb(102,140,105)" stroke-width=".3"/><polygon points="86.22,28.47 81.33,31.29 86.22,34.12 91.11,31.29" fill="rgb(243,199,101)" stroke="rgb(243,199,101)" stroke-width=".3"/><polygon points="105.78,28.47 100.89,31.29 105.78,34.12 110.67,31.29" fill="rgb(243,199,101)" stroke="rgb(243,199,101)" stroke-width=".3"/><polygon points="61.77,59.53 66.66,62.35 66.66,56.71 61.77,53.88" fill="rgb(86,119,89)" stroke="rgb(86,119,89)" stroke-width=".3"/><polygon points="76.44,28.47 71.55,31.29 81.33,36.94 86.22,34.12" fill="rgb(240,181,194)" stroke="rgb(240,181,194)" stroke-width=".3"/><polygon points="61.77,82.12 76.44,90.59 76.44,84.94 61.77,76.47" fill="rgb(86,119,89)" stroke="rgb(86,119,89)" stroke-width=".3"/><polygon points="120.45,42.59 115.56,45.41 120.45,48.24 125.34,45.41" fill="rgb(163,205,143)" stroke="rgb(163,205,143)" stroke-width=".3"/><polygon points="115.56,79.29 115.56,73.65 110.67,76.47 110.67,82.12" fill="rgb(102,140,105)" stroke="rgb(102,140,105)" stroke-width=".3"/><polygon points="71.55,36.94 66.66,39.76 71.55,42.59 76.44,39.76" fill="rgb(240,181,194)" stroke="rgb(240,181,194)" stroke-width=".3"/><polygon points="71.55,36.94 81.33,42.59 81.33,36.94 71.55,31.29" fill="rgb(158,120,128)" stroke="rgb(158,120,128)" stroke-width=".3"/><polygon points="96.00,22.82 81.33,31.29 86.22,34.12 100.89,25.65" fill="rgb(243,199,101)" stroke="rgb(243,199,101)" stroke-width=".3"/><polygon points="66.66,62.35 71.55,65.18 71.55,48.24 66.66,45.41" fill="rgb(108,135,94)" stroke="rgb(108,135,94)" stroke-width=".3"/><polygon points="125.34,51.06 125.34,45.41 120.45,48.24 120.45,53.88" fill="rgb(127,160,111)" stroke="rgb(127,160,111)" stroke-width=".3"/><polygon points="66.66,45.41 71.55,48.24 71.55,42.59 66.66,39.76" fill="rgb(158,120,128)" stroke="rgb(158,120,128)" stroke-width=".3"/><polygon points="110.67,31.29 105.78,34.12 115.56,39.76 120.45,36.94" fill="rgb(163,205,143)" stroke="rgb(163,205,143)" stroke-width=".3"/><polygon points="66.66,68.00 61.77,70.82 66.66,73.65 71.55,70.82" fill="rgb(131,180,135)" stroke="rgb(131,180,135)" stroke-width=".3"/><polygon points="100.89,25.65 96.00,28.47 105.78,34.12 110.67,31.29" fill="rgb(243,199,101)" stroke="rgb(243,199,101)" stroke-width=".3"/><polygon points="125.34,56.71 120.45,59.53 125.34,62.35 130.23,59.53" fill="rgb(131,180,135)" stroke="rgb(131,180,135)" stroke-width=".3"/><polygon points="91.11,104.71 96.00,107.53 96.00,84.94 91.11,82.12" fill="rgb(86,119,89)" stroke="rgb(86,119,89)" stroke-width=".3"/><polygon points="100.89,104.71 100.89,82.12 96.00,84.94 96.00,107.53" fill="rgb(102,140,105)" stroke="rgb(102,140,105)" stroke-width=".3"/><polygon points="81.33,87.76 86.22,90.59 86.22,84.94 81.33,82.12" fill="rgb(86,119,89)" stroke="rgb(86,119,89)" stroke-width=".3"/><polygon points="81.33,87.76 81.33,82.12 76.44,84.94 76.44,90.59" fill="rgb(102,140,105)" stroke="rgb(102,140,105)" stroke-width=".3"/><polygon points="91.11,87.76 91.11,82.12 86.22,84.94 86.22,90.59" fill="rgb(102,140,105)" stroke="rgb(102,140,105)" stroke-width=".3"/><polygon points="56.88,73.65 91.11,93.41 91.11,87.76 56.88,68.00" fill="rgb(86,119,89)" stroke="rgb(86,119,89)" stroke-width=".3"/><polygon points="71.55,76.47 71.55,70.82 66.66,73.65 66.66,79.29" fill="rgb(102,140,105)" stroke="rgb(102,140,105)" stroke-width=".3"/><polygon points="61.77,76.47 66.66,79.29 66.66,73.65 61.77,70.82" fill="rgb(86,119,89)" stroke="rgb(86,119,89)" stroke-width=".3"/><polygon points="66.66,68.00 81.33,76.47 81.33,70.82 66.66,62.35" fill="rgb(86,119,89)" stroke="rgb(86,119,89)" stroke-width=".3"/><polygon points="130.23,65.18 130.23,59.53 125.34,62.35 125.34,68.00" fill="rgb(102,140,105)" stroke="rgb(102,140,105)" stroke-width=".3"/><polygon points="96.00,22.82 91.11,25.65 96.00,28.47 100.89,25.65" fill="rgb(243,199,101)" stroke="rgb(243,199,101)" stroke-width=".3"/><polygon points="71.55,59.53 76.44,62.35 76.44,45.41 71.55,42.59" fill="rgb(108,135,94)" stroke="rgb(108,135,94)" stroke-width=".3"/><polygon points="76.44,39.76 71.55,42.59 81.33,48.24 86.22,45.41" fill="rgb(163,205,143)" stroke="rgb(163,205,143)" stroke-width=".3"/><polygon points="81.33,42.59 86.22,45.41 86.22,34.12 81.33,31.29" fill="rgb(161,132,67)" stroke="rgb(161,132,67)" stroke-width=".3"/><polygon points="100.89,104.71 96.00,107.53 105.78,113.18 110.67,110.35" fill="rgb(61,80,93)" stroke="rgb(61,80,93)" stroke-width=".3"/><polygon points="91.11,31.29 96.00,34.12 96.00,28.47 91.11,25.65" fill="rgb(161,132,67)" stroke="rgb(161,132,67)" stroke-width=".3"/><polygon points="100.89,31.29 100.89,25.65 96.00,28.47 96.00,34.12" fill="rgb(190,156,79)" stroke="rgb(190,156,79)" stroke-width=".3"/><polygon points="115.56,84.94 115.56,79.29 110.67,82.12 110.67,87.76" fill="rgb(102,140,105)" stroke="rgb(102,140,105)" stroke-width=".3"/><polygon points="76.44,96.24 61.77,104.71 96.00,124.47 110.67,116.00" fill="rgb(61,80,93)" stroke="rgb(61,80,93)" stroke-width=".3"/><polygon points="100.89,31.29 96.00,34.12 100.89,36.94 105.78,34.12" fill="rgb(243,159,171)" stroke="rgb(243,159,171)" stroke-width=".3"/><polygon points="120.45,31.29 115.56,34.12 120.45,36.94 125.34,34.12" fill="rgb(243,159,171)" stroke="rgb(243,159,171)" stroke-width=".3"/><polygon points="91.11,31.29 86.22,34.12 96.00,39.76 100.89,36.94" fill="rgb(243,199,101)" stroke="rgb(243,199,101)" stroke-width=".3"/><polygon points="76.44,56.71 71.55,59.53 76.44,62.35 81.33,59.53" fill="rgb(163,205,143)" stroke="rgb(163,205,143)" stroke-width=".3"/><polygon points="135.12,45.41 130.23,48.24 135.12,51.06 140.01,48.24" fill="rgb(163,205,143)" stroke="rgb(163,205,143)" stroke-width=".3"/><polygon points="130.23,82.12 130.23,76.47 125.34,79.29 125.34,84.94" fill="rgb(102,140,105)" stroke="rgb(102,140,105)" stroke-width=".3"/><polygon points="56.88,107.53 96.00,130.12 96.00,124.47 56.88,101.88" fill="rgb(40,53,61)" stroke="rgb(40,53,61)" stroke-width=".3"/><polygon points="135.12,107.53 135.12,101.88 96.00,124.47 96.00,130.12" fill="rgb(48,62,72)" stroke="rgb(48,62,72)" stroke-width=".3"/><polygon points="86.22,39.76 81.33,42.59 86.22,45.41 91.11,42.59" fill="rgb(243,199,101)" stroke="rgb(243,199,101)" stroke-width=".3"/><polygon points="86.22,39.76 96.00,45.41 96.00,39.76 86.22,34.12" fill="rgb(161,132,67)" stroke="rgb(161,132,67)" stroke-width=".3"/><polygon points="71.55,65.18 96.00,79.29 96.00,73.65 71.55,59.53" fill="rgb(86,119,89)" stroke="rgb(86,119,89)" stroke-width=".3"/><polygon points="110.67,25.65 96.00,34.12 100.89,36.94 115.56,28.47" fill="rgb(243,159,171)" stroke="rgb(243,159,171)" stroke-width=".3"/><polygon points="81.33,65.18 81.33,59.53 76.44,62.35 76.44,68.00" fill="rgb(127,160,111)" stroke="rgb(127,160,111)" stroke-width=".3"/><polygon points="81.33,65.18 86.22,68.00 86.22,62.35 81.33,59.53" fill="rgb(108,135,94)" stroke="rgb(108,135,94)" stroke-width=".3"/><polygon points="71.55,65.18 76.44,68.00 76.44,62.35 71.55,59.53" fill="rgb(108,135,94)" stroke="rgb(108,135,94)" stroke-width=".3"/><polygon points="76.44,56.71 91.11,65.18 91.11,53.88 76.44,45.41" fill="rgb(108,135,94)" stroke="rgb(108,135,94)" stroke-width=".3"/><polygon points="140.01,53.88 140.01,48.24 135.12,51.06 135.12,56.71" fill="rgb(127,160,111)" stroke="rgb(127,160,111)" stroke-width=".3"/><polygon points="81.33,48.24 86.22,51.06 86.22,45.41 81.33,42.59" fill="rgb(161,132,67)" stroke="rgb(161,132,67)" stroke-width=".3"/><polygon points="135.12,107.53 96.00,130.12 100.89,132.94 140.01,110.35" fill="rgb(205,148,101)" stroke="rgb(205,148,101)" stroke-width=".3"/><polygon points="81.33,70.82 76.44,73.65 81.33,76.47 86.22,73.65" fill="rgb(131,180,135)" stroke="rgb(131,180,135)" stroke-width=".3"/><polygon points="115.56,28.47 110.67,31.29 120.45,36.94 125.34,34.12" fill="rgb(243,159,171)" stroke="rgb(243,159,171)" stroke-width=".3"/><polygon points="115.56,113.18 115.56,84.94 110.67,87.76 110.67,116.00" fill="rgb(102,140,105)" stroke="rgb(102,140,105)" stroke-width=".3"/><polygon points="105.78,113.18 110.67,116.00 110.67,87.76 105.78,84.94" fill="rgb(86,119,89)" stroke="rgb(86,119,89)" stroke-width=".3"/><polygon points="144.90,135.76 144.90,107.53 96.00,135.76 96.00,164.00" fill="rgb(160,116,79)" stroke="rgb(160,116,79)" stroke-width=".3"/><polygon points="47.10,135.76 96.00,164.00 96.00,135.76 47.10,107.53" fill="rgb(135,98,67)" stroke="rgb(135,98,67)" stroke-width=".3"/><polygon points="96.00,90.59 100.89,93.41 100.89,87.76 96.00,84.94" fill="rgb(86,119,89)" stroke="rgb(86,119,89)" stroke-width=".3"/><polygon points="96.00,90.59 96.00,84.94 91.11,87.76 91.11,93.41" fill="rgb(102,140,105)" stroke="rgb(102,140,105)" stroke-width=".3"/><polygon points="105.78,90.59 105.78,84.94 100.89,87.76 100.89,93.41" fill="rgb(102,140,105)" stroke="rgb(102,140,105)" stroke-width=".3"/><polygon points="56.88,107.53 51.99,110.35 96.00,135.76 100.89,132.94" fill="rgb(205,148,101)" stroke="rgb(205,148,101)" stroke-width=".3"/><polygon points="71.55,76.47 105.78,96.24 105.78,90.59 71.55,70.82" fill="rgb(86,119,89)" stroke="rgb(86,119,89)" stroke-width=".3"/><polygon points="76.44,79.29 81.33,82.12 81.33,76.47 76.44,73.65" fill="rgb(86,119,89)" stroke="rgb(86,119,89)" stroke-width=".3"/><polygon points="86.22,79.29 86.22,73.65 81.33,76.47 81.33,82.12" fill="rgb(102,140,105)" stroke="rgb(102,140,105)" stroke-width=".3"/><polygon points="125.34,34.12 120.45,36.94 135.12,45.41 140.01,42.59" fill="rgb(163,205,143)" stroke="rgb(163,205,143)" stroke-width=".3"/><polygon points="135.12,79.29 135.12,68.00 130.23,70.82 130.23,82.12" fill="rgb(102,140,105)" stroke="rgb(102,140,105)" stroke-width=".3"/><polygon points="110.67,25.65 105.78,28.47 110.67,31.29 115.56,28.47" fill="rgb(243,159,171)" stroke="rgb(243,159,171)" stroke-width=".3"/><polygon points="91.11,42.59 86.22,45.41 96.00,51.06 100.89,48.24" fill="rgb(163,205,143)" stroke="rgb(163,205,143)" stroke-width=".3"/><polygon points="96.00,45.41 100.89,48.24 100.89,36.94 96.00,34.12" fill="rgb(161,105,113)" stroke="rgb(161,105,113)" stroke-width=".3"/><polygon points="125.34,39.76 125.34,34.12 120.45,36.94 120.45,42.59" fill="rgb(190,124,133)" stroke="rgb(190,124,133)" stroke-width=".3"/><polygon points="105.78,34.12 110.67,36.94 110.67,31.29 105.78,28.47" fill="rgb(161,105,113)" stroke="rgb(161,105,113)" stroke-width=".3"/><polygon points="115.56,34.12 115.56,28.47 110.67,31.29 110.67,36.94" fill="rgb(190,124,133)" stroke="rgb(190,124,133)" stroke-width=".3"/><polygon points="130.23,87.76 130.23,70.82 125.34,73.65 125.34,90.59" fill="rgb(102,140,105)" stroke="rgb(102,140,105)" stroke-width=".3"/><polygon points="115.56,34.12 110.67,36.94 115.56,39.76 120.45,36.94" fill="rgb(243,159,171)" stroke="rgb(243,159,171)" stroke-width=".3"/><polygon points="86.22,68.00 100.89,76.47 100.89,70.82 86.22,62.35" fill="rgb(86,119,89)" stroke="rgb(86,119,89)" stroke-width=".3"/><polygon points="140.01,70.82 140.01,65.18 135.12,68.00 135.12,73.65" fill="rgb(127,160,111)" stroke="rgb(127,160,111)" stroke-width=".3"/><polygon points="140.01,48.24 140.01,42.59 135.12,45.41 135.12,51.06" fill="rgb(127,160,111)" stroke="rgb(127,160,111)" stroke-width=".3"/><polygon points="105.78,34.12 100.89,36.94 110.67,42.59 115.56,39.76" fill="rgb(243,159,171)" stroke="rgb(243,159,171)" stroke-width=".3"/><polygon points="91.11,59.53 86.22,62.35 91.11,65.18 96.00,62.35" fill="rgb(163,205,143)" stroke="rgb(163,205,143)" stroke-width=".3"/><polygon points="140.01,48.24 135.12,51.06 140.01,53.88 144.90,51.06" fill="rgb(163,205,143)" stroke="rgb(163,205,143)" stroke-width=".3"/><polygon points="86.22,79.29 110.67,93.41 110.67,87.76 86.22,73.65" fill="rgb(86,119,89)" stroke="rgb(86,119,89)" stroke-width=".3"/><polygon points="100.89,42.59 96.00,45.41 100.89,48.24 105.78,45.41" fill="rgb(243,159,171)" stroke="rgb(243,159,171)" stroke-width=".3"/><polygon points="125.34,39.76 120.45,42.59 135.12,51.06 140.01,48.24" fill="rgb(163,205,143)" stroke="rgb(163,205,143)" stroke-width=".3"/><polygon points="100.89,42.59 110.67,48.24 110.67,42.59 100.89,36.94" fill="rgb(161,105,113)" stroke="rgb(161,105,113)" stroke-width=".3"/><polygon points="120.45,36.94 115.56,39.76 120.45,42.59 125.34,39.76" fill="rgb(163,205,143)" stroke="rgb(163,205,143)" stroke-width=".3"/><polygon points="96.00,68.00 96.00,62.35 91.11,65.18 91.11,70.82" fill="rgb(127,160,111)" stroke="rgb(127,160,111)" stroke-width=".3"/><polygon points="86.22,68.00 91.11,70.82 91.11,65.18 86.22,62.35" fill="rgb(108,135,94)" stroke="rgb(108,135,94)" stroke-width=".3"/><polygon points="144.90,68.00 144.90,51.06 140.01,53.88 140.01,70.82" fill="rgb(127,160,111)" stroke="rgb(127,160,111)" stroke-width=".3"/><polygon points="91.11,59.53 105.78,68.00 105.78,62.35 91.11,53.88" fill="rgb(108,135,94)" stroke="rgb(108,135,94)" stroke-width=".3"/><polygon points="125.34,90.59 125.34,79.29 115.56,84.94 115.56,96.24" fill="rgb(102,140,105)" stroke="rgb(102,140,105)" stroke-width=".3"/><polygon points="96.00,51.06 100.89,53.88 100.89,48.24 96.00,45.41" fill="rgb(161,105,113)" stroke="rgb(161,105,113)" stroke-width=".3"/><polygon points="125.34,45.41 125.34,39.76 120.45,42.59 120.45,48.24" fill="rgb(127,160,111)" stroke="rgb(127,160,111)" stroke-width=".3"/><polygon points="115.56,45.41 120.45,48.24 120.45,42.59 115.56,39.76" fill="rgb(108,135,94)" stroke="rgb(108,135,94)" stroke-width=".3"/><polygon points="115.56,45.41 115.56,39.76 110.67,42.59 110.67,48.24" fill="rgb(190,124,133)" stroke="rgb(190,124,133)" stroke-width=".3"/><polygon points="96.00,73.65 91.11,76.47 96.00,79.29 100.89,76.47" fill="rgb(131,180,135)" stroke="rgb(131,180,135)" stroke-width=".3"/><polygon points="110.67,93.41 115.56,96.24 115.56,90.59 110.67,87.76" fill="rgb(86,119,89)" stroke="rgb(86,119,89)" stroke-width=".3"/><polygon points="110.67,93.41 110.67,87.76 105.78,90.59 105.78,96.24" fill="rgb(102,140,105)" stroke="rgb(102,140,105)" stroke-width=".3"/><polygon points="91.11,82.12 96.00,84.94 96.00,79.29 91.11,76.47" fill="rgb(86,119,89)" stroke="rgb(86,119,89)" stroke-width=".3"/><polygon points="100.89,82.12 100.89,76.47 96.00,79.29 96.00,84.94" fill="rgb(102,140,105)" stroke="rgb(102,140,105)" stroke-width=".3"/><polygon points="120.45,82.12 120.45,76.47 115.56,79.29 115.56,84.94" fill="rgb(102,140,105)" stroke="rgb(102,140,105)" stroke-width=".3"/><polygon points="120.45,82.12 125.34,84.94 125.34,79.29 120.45,76.47" fill="rgb(86,119,89)" stroke="rgb(86,119,89)" stroke-width=".3"/><polygon points="130.23,82.12 130.23,76.47 125.34,79.29 125.34,84.94" fill="rgb(102,140,105)" stroke="rgb(102,140,105)" stroke-width=".3"/><polygon points="140.01,76.47 140.01,48.24 135.12,51.06 135.12,79.29" fill="rgb(127,160,111)" stroke="rgb(127,160,111)" stroke-width=".3"/><polygon points="86.22,51.06 120.45,70.82 120.45,65.18 86.22,45.41" fill="rgb(108,135,94)" stroke="rgb(108,135,94)" stroke-width=".3"/><polygon points="125.34,45.41 120.45,48.24 130.23,53.88 135.12,51.06" fill="rgb(163,205,143)" stroke="rgb(163,205,143)" stroke-width=".3"/><polygon points="100.89,82.12 110.67,87.76 110.67,82.12 100.89,76.47" fill="rgb(86,119,89)" stroke="rgb(86,119,89)" stroke-width=".3"/><polygon points="105.78,45.41 100.89,48.24 115.56,56.71 120.45,53.88" fill="rgb(163,205,143)" stroke="rgb(163,205,143)" stroke-width=".3"/><polygon points="115.56,45.41 110.67,48.24 125.34,56.71 130.23,53.88" fill="rgb(163,205,143)" stroke="rgb(163,205,143)" stroke-width=".3"/><polygon points="115.56,90.59 115.56,79.29 110.67,82.12 110.67,93.41" fill="rgb(102,140,105)" stroke="rgb(102,140,105)" stroke-width=".3"/><polygon points="100.89,76.47 115.56,84.94 115.56,79.29 100.89,70.82" fill="rgb(108,135,94)" stroke="rgb(108,135,94)" stroke-width=".3"/><polygon points="96.00,68.00 120.45,82.12 120.45,76.47 96.00,62.35" fill="rgb(108,135,94)" stroke="rgb(108,135,94)" stroke-width=".3"/><polygon points="135.12,62.35 135.12,51.06 130.23,53.88 130.23,65.18" fill="rgb(127,160,111)" stroke="rgb(127,160,111)" stroke-width=".3"/><polygon points="100.89,53.88 115.56,62.35 115.56,56.71 100.89,48.24" fill="rgb(108,135,94)" stroke="rgb(108,135,94)" stroke-width=".3"/><polygon points="135.12,79.29 135.12,68.00 125.34,73.65 125.34,84.94" fill="rgb(127,160,111)" stroke="rgb(127,160,111)" stroke-width=".3"/><polygon points="105.78,62.35 100.89,65.18 105.78,68.00 110.67,65.18" fill="rgb(163,205,143)" stroke="rgb(163,205,143)" stroke-width=".3"/><polygon points="135.12,62.35 130.23,65.18 135.12,68.00 140.01,65.18" fill="rgb(163,205,143)" stroke="rgb(163,205,143)" stroke-width=".3"/><polygon points="120.45,82.12 125.34,84.94 125.34,79.29 120.45,76.47" fill="rgb(108,135,94)" stroke="rgb(108,135,94)" stroke-width=".3"/><polygon points="120.45,82.12 120.45,76.47 115.56,79.29 115.56,84.94" fill="rgb(127,160,111)" stroke="rgb(127,160,111)" stroke-width=".3"/><polygon points="110.67,70.82 110.67,65.18 105.78,68.00 105.78,73.65" fill="rgb(127,160,111)" stroke="rgb(127,160,111)" stroke-width=".3"/><polygon points="100.89,70.82 105.78,73.65 105.78,68.00 100.89,65.18" fill="rgb(108,135,94)" stroke="rgb(108,135,94)" stroke-width=".3"/><polygon points="130.23,70.82 135.12,73.65 135.12,68.00 130.23,65.18" fill="rgb(108,135,94)" stroke="rgb(108,135,94)" stroke-width=".3"/><polygon points="140.01,70.82 140.01,65.18 135.12,68.00 135.12,73.65" fill="rgb(127,160,111)" stroke="rgb(127,160,111)" stroke-width=".3"/><polygon points="130.23,70.82 130.23,53.88 125.34,56.71 125.34,73.65" fill="rgb(127,160,111)" stroke="rgb(127,160,111)" stroke-width=".3"/><polygon points="120.45,59.53 125.34,62.35 125.34,56.71 120.45,53.88" fill="rgb(108,135,94)" stroke="rgb(108,135,94)" stroke-width=".3"/><polygon points="120.45,59.53 120.45,53.88 115.56,56.71 115.56,62.35" fill="rgb(127,160,111)" stroke="rgb(127,160,111)" stroke-width=".3"/><polygon points="110.67,70.82 120.45,76.47 120.45,70.82 110.67,65.18" fill="rgb(108,135,94)" stroke="rgb(108,135,94)" stroke-width=".3"/><polygon points="120.45,59.53 115.56,62.35 120.45,65.18 125.34,62.35" fill="rgb(163,205,143)" stroke="rgb(163,205,143)" stroke-width=".3"/><polygon points="125.34,79.29 125.34,62.35 120.45,65.18 120.45,82.12" fill="rgb(127,160,111)" stroke="rgb(127,160,111)" stroke-width=".3"/></svg>