<svg xmlns="http://www.w3.org/2000/svg" width="192" height="192" viewBox="0 0 192 192"><ellipse cx="96" cy="166" rx="53" ry="12" fill="#40594d" opacity=".1"/><polygon points="78.19,23.43 72.25,26.86 78.19,30.29 84.12,26.86" fill="rgb(198,168,225)" stroke="rgb(198,168,225)" stroke-width=".3"/><polygon points="60.37,33.71 54.43,37.14 60.37,40.57 66.31,37.14" fill="rgb(198,168,225)" stroke="rgb(198,168,225)" stroke-width=".3"/><polygon points="96.00,33.71 90.06,37.14 96.00,40.57 101.94,37.14" fill="rgb(198,168,225)" stroke="rgb(198,168,225)" stroke-width=".3"/><polygon points="54.43,44.00 60.37,47.43 60.37,40.57 54.43,37.14" fill="rgb(131,111,148)" stroke="rgb(131,111,148)" stroke-width=".3"/><polygon points="101.94,44.00 101.94,37.14 96.00,40.57 96.00,47.43" fill="rgb(155,131,175)" stroke="rgb(155,131,175)" stroke-width=".3"/><polygon points="84.12,20.00 78.19,23.43 96.00,33.71 101.94,30.29" fill="rgb(198,168,225)" stroke="rgb(198,168,225)" stroke-width=".3"/><polygon points="72.25,20.00 54.43,30.29 66.31,37.14 84.12,26.86" fill="rgb(198,168,225)" stroke="rgb(198,168,225)" stroke-width=".3"/><polygon points="54.43,64.57 60.37,68.00 60.37,61.14 54.43,57.71" fill="rgb(131,111,148)" stroke="rgb(131,111,148)" stroke-width=".3"/><polygon points="54.43,37.14 60.37,40.57 60.37,33.71 54.43,30.29" fill="rgb(131,111,148)" stroke="rgb(131,111,148)" stroke-width=".3"/><polygon points="101.94,37.14 101.94,30.29 96.00,33.71 96.00,40.57" fill="rgb(155,131,175)" stroke="rgb(155,131,175)" stroke-width=".3"/><polygon points="54.43,37.14 48.49,40.57 54.43,44.00 60.37,40.57" fill="rgb(198,168,225)" stroke="rgb(198,168,225)" stroke-width=".3"/><polygon points="101.94,37.14 96.00,40.57 101.94,44.00 107.88,40.57" fill="rgb(198,168,225)" stroke="rgb(198,168,225)" stroke-width=".3"/><polygon points="84.12,26.86 78.19,30.29 96.00,40.57 101.94,37.14" fill="rgb(198,168,225)" stroke="rgb(198,168,225)" stroke-width=".3"/><polygon points="78.19,23.43 72.25,26.86 78.19,30.29 84.12,26.86" fill="rgb(198,168,225)" stroke="rgb(198,168,225)" stroke-width=".3"/><polygon points="72.25,33.71 78.19,37.14 78.19,30.29 72.25,26.86" fill="rgb(131,111,148)" stroke="rgb(131,111,148)" stroke-width=".3"/><polygon points="84.12,33.71 84.12,26.86 78.19,30.29 78.19,37.14" fill="rgb(155,131,175)" stroke="rgb(155,131,175)" stroke-width=".3"/><polygon points="48.49,54.29 60.37,61.14 60.37,47.43 48.49,40.57" fill="rgb(131,111,148)" stroke="rgb(131,111,148)" stroke-width=".3"/><polygon points="84.12,33.71 78.19,37.14 90.06,44.00 96.00,40.57" fill="rgb(198,168,225)" stroke="rgb(198,168,225)" stroke-width=".3"/><polygon points="107.88,47.43 107.88,40.57 84.12,54.29 84.12,61.14" fill="rgb(155,131,175)" stroke="rgb(155,131,175)" stroke-width=".3"/><polygon points="113.81,44.00 107.88,47.43 113.81,50.86 119.75,47.43" fill="rgb(198,168,225)" stroke="rgb(198,168,225)" stroke-width=".3"/><polygon points="60.37,33.71 54.43,37.14 72.25,47.43 78.19,44.00" fill="rgb(198,168,225)" stroke="rgb(198,168,225)" stroke-width=".3"/><polygon points="72.25,33.71 66.31,37.14 84.12,47.43 90.06,44.00" fill="rgb(198,168,225)" stroke="rgb(198,168,225)" stroke-width=".3"/><polygon points="54.43,71.43 72.25,81.71 72.25,74.86 54.43,64.57" fill="rgb(131,111,148)" stroke="rgb(131,111,148)" stroke-width=".3"/><polygon points="48.49,61.14 78.19,78.29 78.19,71.43 48.49,54.29" fill="rgb(131,111,148)" stroke="rgb(131,111,148)" stroke-width=".3"/><polygon points="107.88,47.43 84.12,61.14 90.06,64.57 113.81,50.86" fill="rgb(198,168,225)" stroke="rgb(198,168,225)" stroke-width=".3"/><polygon points="54.43,44.00 72.25,54.29 72.25,47.43 54.43,37.14" fill="rgb(131,111,148)" stroke="rgb(131,111,148)" stroke-width=".3"/><polygon points="101.94,44.00 101.94,37.14 84.12,47.43 84.12,54.29" fill="rgb(155,131,175)" stroke="rgb(155,131,175)" stroke-width=".3"/><polygon points="60.37,54.29 54.43,57.71 60.37,61.14 66.31,57.71" fill="rgb(198,168,225)" stroke="rgb(198,168,225)" stroke-width=".3"/><polygon points="131.63,54.29 125.69,57.71 131.63,61.14 137.57,57.71" fill="rgb(198,168,225)" stroke="rgb(198,168,225)" stroke-width=".3"/><polygon points="78.19,78.29 78.19,71.43 72.25,74.86 72.25,81.71" fill="rgb(155,131,175)" stroke="rgb(155,131,175)" stroke-width=".3"/><polygon points="66.31,64.57 66.31,57.71 60.37,61.14 60.37,68.00" fill="rgb(155,131,175)" stroke="rgb(155,131,175)" stroke-width=".3"/><polygon points="54.43,64.57 60.37,68.00 60.37,61.14 54.43,57.71" fill="rgb(131,111,148)" stroke="rgb(131,111,148)" stroke-width=".3"/><polygon points="137.57,64.57 137.57,57.71 131.63,61.14 131.63,68.00" fill="rgb(155,131,175)" stroke="rgb(155,131,175)" stroke-width=".3"/><polygon points="60.37,54.29 78.19,64.57 78.19,57.71 60.37,47.43" fill="rgb(131,111,148)" stroke="rgb(131,111,148)" stroke-width=".3"/><polygon points="78.19,50.86 84.12,54.29 84.12,47.43 78.19,44.00" fill="rgb(131,111,148)" stroke="rgb(131,111,148)" stroke-width=".3"/><polygon points="78.19,50.86 78.19,44.00 72.25,47.43 72.25,54.29" fill="rgb(155,131,175)" stroke="rgb(155,131,175)" stroke-width=".3"/><polygon points="54.43,126.29 119.75,164.00 119.75,102.29 54.43,64.57" fill="rgb(131,111,148)" stroke="rgb(131,111,148)" stroke-width=".3"/><polygon points="66.31,64.57 78.19,71.43 78.19,64.57 66.31,57.71" fill="rgb(131,111,148)" stroke="rgb(131,111,148)" stroke-width=".3"/><polygon points="78.19,50.86 72.25,54.29 78.19,57.71 84.12,54.29" fill="rgb(198,168,225)" stroke="rgb(198,168,225)" stroke-width=".3"/><polygon points="119.75,40.57 113.81,44.00 131.63,54.29 137.57,50.86" fill="rgb(198,168,225)" stroke="rgb(198,168,225)" stroke-width=".3"/><polygon points="78.19,78.29 96.00,88.57 96.00,81.71 78.19,71.43" fill="rgb(131,111,148)" stroke="rgb(131,111,148)" stroke-width=".3"/><polygon points="84.12,74.86 90.06,78.29 90.06,64.57 84.12,61.14" fill="rgb(131,111,148)" stroke="rgb(131,111,148)" stroke-width=".3"/><polygon points="84.12,74.86 84.12,54.29 78.19,57.71 78.19,78.29" fill="rgb(155,131,175)" stroke="rgb(155,131,175)" stroke-width=".3"/><polygon points="107.88,40.57 90.06,50.86 101.94,57.71 119.75,47.43" fill="rgb(198,168,225)" stroke="rgb(198,168,225)" stroke-width=".3"/><polygon points="90.06,57.71 96.00,61.14 96.00,54.29 90.06,50.86" fill="rgb(131,111,148)" stroke="rgb(131,111,148)" stroke-width=".3"/><polygon points="137.57,57.71 137.57,50.86 131.63,54.29 131.63,61.14" fill="rgb(155,131,175)" stroke="rgb(155,131,175)" stroke-width=".3"/><polygon points="90.06,57.71 84.12,61.14 90.06,64.57 96.00,61.14" fill="rgb(198,168,225)" stroke="rgb(198,168,225)" stroke-width=".3"/><polygon points="137.57,57.71 131.63,61.14 137.57,64.57 143.51,61.14" fill="rgb(198,168,225)" stroke="rgb(198,168,225)" stroke-width=".3"/><polygon points="119.75,47.43 113.81,50.86 131.63,61.14 137.57,57.71" fill="rgb(198,168,225)" stroke="rgb(198,168,225)" stroke-width=".3"/><polygon points="113.81,44.00 107.88,47.43 113.81,50.86 119.75,47.43" fill="rgb(198,168,225)" stroke="rgb(198,168,225)" stroke-width=".3"/><polygon points="143.51,150.29 143.51,61.14 131.63,68.00 131.63,157.14" fill="rgb(155,131,175)" stroke="rgb(155,131,175)" stroke-width=".3"/><polygon points="119.75,54.29 119.75,47.43 113.81,50.86 113.81,57.71" fill="rgb(155,131,175)" stroke="rgb(155,131,175)" stroke-width=".3"/><polygon points="107.88,54.29 113.81,57.71 113.81,50.86 107.88,47.43" fill="rgb(131,111,148)" stroke="rgb(131,111,148)" stroke-width=".3"/><polygon points="84.12,74.86 96.00,81.71 96.00,68.00 84.12,61.14" fill="rgb(131,111,148)" stroke="rgb(131,111,148)" stroke-width=".3"/><polygon points="137.57,64.57 137.57,57.71 131.63,61.14 131.63,68.00" fill="rgb(155,131,175)" stroke="rgb(155,131,175)" stroke-width=".3"/><polygon points="119.75,54.29 113.81,57.71 125.69,64.57 131.63,61.14" fill="rgb(198,168,225)" stroke="rgb(198,168,225)" stroke-width=".3"/><polygon points="107.88,54.29 101.94,57.71 119.75,68.00 125.69,64.57" fill="rgb(198,168,225)" stroke="rgb(198,168,225)" stroke-width=".3"/><polygon points="96.00,54.29 90.06,57.71 107.88,68.00 113.81,64.57" fill="rgb(198,168,225)" stroke="rgb(198,168,225)" stroke-width=".3"/><polygon points="90.06,92.00 107.88,102.29 107.88,95.43 90.06,85.14" fill="rgb(131,111,148)" stroke="rgb(131,111,148)" stroke-width=".3"/><polygon points="84.12,81.71 113.81,98.86 113.81,92.00 84.12,74.86" fill="rgb(131,111,148)" stroke="rgb(131,111,148)" stroke-width=".3"/><polygon points="131.63,157.14 131.63,81.71 119.75,88.57 119.75,164.00" fill="rgb(155,131,175)" stroke="rgb(155,131,175)" stroke-width=".3"/><polygon points="131.63,74.86 131.63,61.14 125.69,64.57 125.69,78.29" fill="rgb(155,131,175)" stroke="rgb(155,131,175)" stroke-width=".3"/><polygon points="90.06,64.57 107.88,74.86 107.88,68.00 90.06,57.71" fill="rgb(131,111,148)" stroke="rgb(131,111,148)" stroke-width=".3"/><polygon points="96.00,74.86 90.06,78.29 96.00,81.71 101.94,78.29" fill="rgb(198,168,225)" stroke="rgb(198,168,225)" stroke-width=".3"/><polygon points="131.63,74.86 125.69,78.29 131.63,81.71 137.57,78.29" fill="rgb(198,168,225)" stroke="rgb(198,168,225)" stroke-width=".3"/><polygon points="113.81,98.86 119.75,102.29 119.75,95.43 113.81,92.00" fill="rgb(131,111,148)" stroke="rgb(131,111,148)" stroke-width=".3"/><polygon points="113.81,98.86 113.81,92.00 107.88,95.43 107.88,102.29" fill="rgb(155,131,175)" stroke="rgb(155,131,175)" stroke-width=".3"/><polygon points="90.06,85.14 96.00,88.57 96.00,81.71 90.06,78.29" fill="rgb(131,111,148)" stroke="rgb(131,111,148)" stroke-width=".3"/><polygon points="101.94,85.14 101.94,78.29 96.00,81.71 96.00,88.57" fill="rgb(155,131,175)" stroke="rgb(155,131,175)" stroke-width=".3"/><polygon points="125.69,85.14 131.63,88.57 131.63,81.71 125.69,78.29" fill="rgb(131,111,148)" stroke="rgb(131,111,148)" stroke-width=".3"/><polygon points="137.57,85.14 137.57,78.29 131.63,81.71 131.63,88.57" fill="rgb(155,131,175)" stroke="rgb(155,131,175)" stroke-width=".3"/><polygon points="96.00,74.86 113.81,85.14 113.81,78.29 96.00,68.00" fill="rgb(131,111,148)" stroke="rgb(131,111,148)" stroke-width=".3"/><polygon points="125.69,85.14 125.69,64.57 119.75,68.00 119.75,88.57" fill="rgb(155,131,175)" stroke="rgb(155,131,175)" stroke-width=".3"/><polygon points="113.81,71.43 119.75,74.86 119.75,68.00 113.81,64.57" fill="rgb(131,111,148)" stroke="rgb(131,111,148)" stroke-width=".3"/><polygon points="113.81,71.43 113.81,64.57 107.88,68.00 107.88,74.86" fill="rgb(155,131,175)" stroke="rgb(155,131,175)" stroke-width=".3"/><polygon points="101.94,85.14 113.81,92.00 113.81,85.14 101.94,78.29" fill="rgb(131,111,148)" stroke="rgb(131,111,148)" stroke-width=".3"/><polygon points="113.81,71.43 107.88,74.86 113.81,78.29 119.75,74.86" fill="rgb(198,168,225)" stroke="rgb(198,168,225)" stroke-width=".3"/><polygon points="119.75,95.43 119.75,74.86 113.81,78.29 113.81,98.86" fill="rgb(155,131,175)" stroke="rgb(155,131,175)" stroke-width=".3"/></svg>