<svg xmlns="http://www.w3.org/2000/svg" width="192" height="192" viewBox="0 0 192 192"><ellipse cx="96" cy="166" rx="53" ry="12" fill="#40594d" opacity=".1"/><polygon points="80.73,47.91 76.36,50.43 85.09,55.47 89.45,52.95" fill="rgb(243,199,101)" stroke="rgb(243,199,101)" stroke-width=".3"/><polygon points="76.36,55.47 85.09,60.51 85.09,55.47 76.36,50.43" fill="rgb(161,132,67)" stroke="rgb(161,132,67)" stroke-width=".3"/><polygon points="111.27,50.43 102.55,55.47 106.91,57.99 115.64,52.95" fill="rgb(243,199,101)" stroke="rgb(243,199,101)" stroke-width=".3"/><polygon points="115.64,57.99 115.64,52.95 106.91,57.99 106.91,63.03" fill="rgb(190,156,79)" stroke="rgb(190,156,79)" stroke-width=".3"/><polygon points="67.64,55.47 63.27,57.99 72.00,63.03 76.36,60.51" fill="rgb(243,199,101)" stroke="rgb(243,199,101)" stroke-width=".3"/><polygon points="63.27,63.03 72.00,68.07 72.00,63.03 63.27,57.99" fill="rgb(161,132,67)" stroke="rgb(161,132,67)" stroke-width=".3"/><polygon points="124.36,57.99 115.64,63.03 120.00,65.55 128.73,60.51" fill="rgb(243,199,101)" stroke="rgb(243,199,101)" stroke-width=".3"/><polygon points="128.73,65.55 128.73,60.51 120.00,65.55 120.00,70.58" fill="rgb(190,156,79)" stroke="rgb(190,156,79)" stroke-width=".3"/><polygon points="54.55,63.03 50.18,65.55 58.91,70.58 63.27,68.07" fill="rgb(243,199,101)" stroke="rgb(243,199,101)" stroke-width=".3"/><polygon points="50.18,70.58 58.91,75.62 58.91,70.58 50.18,65.55" fill="rgb(161,132,67)" stroke="rgb(161,132,67)" stroke-width=".3"/><polygon points="137.45,65.55 128.73,70.58 133.09,73.10 141.82,68.07" fill="rgb(243,199,101)" stroke="rgb(243,199,101)" stroke-width=".3"/><polygon points="141.82,73.10 141.82,68.07 133.09,73.10 133.09,78.14" fill="rgb(190,156,79)" stroke="rgb(190,156,79)" stroke-width=".3"/><polygon points="93.82,50.43 32.73,85.70 50.18,95.78 111.27,60.51" fill="rgb(131,180,135)" stroke="rgb(131,180,135)" stroke-width=".3"/><polygon points="41.45,70.58 37.09,73.10 45.82,78.14 50.18,75.62" fill="rgb(243,199,101)" stroke="rgb(243,199,101)" stroke-width=".3"/><polygon points="37.09,78.14 45.82,83.18 45.82,78.14 37.09,73.10" fill="rgb(161,132,67)" stroke="rgb(161,132,67)" stroke-width=".3"/><polygon points="150.55,73.10 141.82,78.14 146.18,80.66 154.91,75.62" fill="rgb(243,199,101)" stroke="rgb(243,199,101)" stroke-width=".3"/><polygon points="154.91,80.66 154.91,75.62 146.18,80.66 146.18,85.70" fill="rgb(190,156,79)" stroke="rgb(190,156,79)" stroke-width=".3"/><polygon points="111.27,60.51 98.18,68.07 150.55,98.30 163.64,90.74" fill="rgb(131,180,135)" stroke="rgb(131,180,135)" stroke-width=".3"/><polygon points="28.36,78.14 24.00,80.66 32.73,85.70 37.09,83.18" fill="rgb(243,199,101)" stroke="rgb(243,199,101)" stroke-width=".3"/><polygon points="24.00,85.70 32.73,90.74 32.73,85.70 24.00,80.66" fill="rgb(161,132,67)" stroke="rgb(161,132,67)" stroke-width=".3"/><polygon points="163.64,80.66 154.91,85.70 159.27,88.22 168.00,83.18" fill="rgb(243,199,101)" stroke="rgb(243,199,101)" stroke-width=".3"/><polygon points="168.00,88.22 168.00,83.18 159.27,88.22 159.27,93.26" fill="rgb(190,156,79)" stroke="rgb(190,156,79)" stroke-width=".3"/><polygon points="32.73,90.74 41.45,95.78 41.45,90.74 32.73,85.70" fill="rgb(86,119,89)" stroke="rgb(86,119,89)" stroke-width=".3"/><polygon points="98.18,52.95 63.27,73.10 98.18,93.26 133.09,73.10" fill="rgb(61,80,93)" stroke="rgb(61,80,93)" stroke-width=".3"/><polygon points="163.64,100.82 163.64,90.74 159.27,93.26 159.27,103.34" fill="rgb(102,140,105)" stroke="rgb(102,140,105)" stroke-width=".3"/><polygon points="41.45,90.74 32.73,95.78 37.09,98.30 45.82,93.26" fill="rgb(243,199,101)" stroke="rgb(243,199,101)" stroke-width=".3"/><polygon points="45.82,98.30 54.55,103.34 54.55,98.30 45.82,93.26" fill="rgb(86,119,89)" stroke="rgb(86,119,89)" stroke-width=".3"/><polygon points="45.82,98.30 45.82,93.26 37.09,98.30 37.09,103.34" fill="rgb(190,156,79)" stroke="rgb(190,156,79)" stroke-width=".3"/><polygon points="32.73,100.82 37.09,103.34 37.09,98.30 32.73,95.78" fill="rgb(161,132,67)" stroke="rgb(161,132,67)" stroke-width=".3"/><polygon points="159.27,93.26 154.91,95.78 163.64,100.82 168.00,98.30" fill="rgb(243,199,101)" stroke="rgb(243,199,101)" stroke-width=".3"/><polygon points="154.91,100.82 154.91,95.78 146.18,100.82 146.18,105.86" fill="rgb(102,140,105)" stroke="rgb(102,140,105)" stroke-width=".3"/><polygon points="154.91,100.82 163.64,105.86 163.64,100.82 154.91,95.78" fill="rgb(161,132,67)" stroke="rgb(161,132,67)" stroke-width=".3"/><polygon points="133.09,88.22 133.09,73.10 98.18,93.26 98.18,108.38" fill="rgb(48,62,72)" stroke="rgb(48,62,72)" stroke-width=".3"/><polygon points="63.27,88.22 98.18,108.38 98.18,93.26 63.27,73.10" fill="rgb(40,53,61)" stroke="rgb(40,53,61)" stroke-width=".3"/><polygon points="168.00,103.34 168.00,98.30 163.64,100.82 163.64,105.86" fill="rgb(190,156,79)" stroke="rgb(190,156,79)" stroke-width=".3"/><polygon points="54.55,98.30 45.82,103.34 50.18,105.86 58.91,100.82" fill="rgb(243,199,101)" stroke="rgb(243,199,101)" stroke-width=".3"/><polygon points="58.91,105.86 67.64,110.90 67.64,105.86 58.91,100.82" fill="rgb(86,119,89)" stroke="rgb(86,119,89)" stroke-width=".3"/><polygon points="58.91,105.86 58.91,100.82 50.18,105.86 50.18,110.90" fill="rgb(190,156,79)" stroke="rgb(190,156,79)" stroke-width=".3"/><polygon points="133.09,88.22 98.18,108.38 115.64,118.45 150.55,98.30" fill="rgb(131,180,135)" stroke="rgb(131,180,135)" stroke-width=".3"/><polygon points="45.82,108.38 50.18,110.90 50.18,105.86 45.82,103.34" fill="rgb(161,132,67)" stroke="rgb(161,132,67)" stroke-width=".3"/><polygon points="146.18,100.82 141.82,103.34 150.55,108.38 154.91,105.86" fill="rgb(243,199,101)" stroke="rgb(243,199,101)" stroke-width=".3"/><polygon points="32.73,95.78 102.55,136.09 102.55,131.05 32.73,90.74" fill="rgb(86,119,89)" stroke="rgb(86,119,89)" stroke-width=".3"/><polygon points="141.82,108.38 141.82,103.34 133.09,108.38 133.09,113.42" fill="rgb(102,140,105)" stroke="rgb(102,140,105)" stroke-width=".3"/><polygon points="141.82,108.38 150.55,113.42 150.55,108.38 141.82,103.34" fill="rgb(161,132,67)" stroke="rgb(161,132,67)" stroke-width=".3"/><polygon points="154.91,110.90 154.91,105.86 150.55,108.38 150.55,113.42" fill="rgb(190,156,79)" stroke="rgb(190,156,79)" stroke-width=".3"/><polygon points="63.27,88.22 50.18,95.78 102.55,126.01 115.64,118.45" fill="rgb(131,180,135)" stroke="rgb(131,180,135)" stroke-width=".3"/><polygon points="159.27,103.34 159.27,98.30 102.55,131.05 102.55,136.09" fill="rgb(102,140,105)" stroke="rgb(102,140,105)" stroke-width=".3"/><polygon points="67.64,105.86 58.91,110.90 63.27,113.42 72.00,108.38" fill="rgb(243,199,101)" stroke="rgb(243,199,101)" stroke-width=".3"/><polygon points="72.00,113.42 80.73,118.45 80.73,113.42 72.00,108.38" fill="rgb(86,119,89)" stroke="rgb(86,119,89)" stroke-width=".3"/><polygon points="72.00,113.42 72.00,108.38 63.27,113.42 63.27,118.45" fill="rgb(190,156,79)" stroke="rgb(190,156,79)" stroke-width=".3"/><polygon points="58.91,115.93 63.27,118.45 63.27,113.42 58.91,110.90" fill="rgb(161,132,67)" stroke="rgb(161,132,67)" stroke-width=".3"/><polygon points="133.09,108.38 128.73,110.90 137.45,115.93 141.82,113.42" fill="rgb(243,199,101)" stroke="rgb(243,199,101)" stroke-width=".3"/><polygon points="128.73,115.93 128.73,110.90 120.00,115.93 120.00,120.97" fill="rgb(102,140,105)" stroke="rgb(102,140,105)" stroke-width=".3"/><polygon points="128.73,115.93 137.45,120.97 137.45,115.93 128.73,110.90" fill="rgb(161,132,67)" stroke="rgb(161,132,67)" stroke-width=".3"/><polygon points="141.82,118.45 141.82,113.42 137.45,115.93 137.45,120.97" fill="rgb(190,156,79)" stroke="rgb(190,156,79)" stroke-width=".3"/><polygon points="80.73,113.42 72.00,118.45 76.36,120.97 85.09,115.93" fill="rgb(243,199,101)" stroke="rgb(243,199,101)" stroke-width=".3"/><polygon points="85.09,120.97 93.82,126.01 93.82,120.97 85.09,115.93" fill="rgb(86,119,89)" stroke="rgb(86,119,89)" stroke-width=".3"/><polygon points="85.09,120.97 85.09,115.93 76.36,120.97 76.36,126.01" fill="rgb(190,156,79)" stroke="rgb(190,156,79)" stroke-width=".3"/><polygon points="72.00,123.49 76.36,126.01 76.36,120.97 72.00,118.45" fill="rgb(161,132,67)" stroke="rgb(161,132,67)" stroke-width=".3"/><polygon points="120.00,115.93 115.64,118.45 124.36,123.49 128.73,120.97" fill="rgb(243,199,101)" stroke="rgb(243,199,101)" stroke-width=".3"/><polygon points="115.64,123.49 115.64,118.45 106.91,123.49 106.91,128.53" fill="rgb(102,140,105)" stroke="rgb(102,140,105)" stroke-width=".3"/><polygon points="115.64,123.49 124.36,128.53 124.36,123.49 115.64,118.45" fill="rgb(161,132,67)" stroke="rgb(161,132,67)" stroke-width=".3"/><polygon points="128.73,126.01 128.73,120.97 124.36,123.49 124.36,128.53" fill="rgb(190,156,79)" stroke="rgb(190,156,79)" stroke-width=".3"/><polygon points="98.18,128.53 102.55,131.05 102.55,126.01 98.18,123.49" fill="rgb(86,119,89)" stroke="rgb(86,119,89)" stroke-width=".3"/><polygon points="93.82,120.97 85.09,126.01 89.45,128.53 98.18,123.49" fill="rgb(243,199,101)" stroke="rgb(243,199,101)" stroke-width=".3"/><polygon points="98.18,128.53 98.18,123.49 89.45,128.53 89.45,133.57" fill="rgb(190,156,79)" stroke="rgb(190,156,79)" stroke-width=".3"/><polygon points="85.09,131.05 89.45,133.57 89.45,128.53 85.09,126.01" fill="rgb(161,132,67)" stroke="rgb(161,132,67)" stroke-width=".3"/><polygon points="106.91,123.49 102.55,126.01 111.27,131.05 115.64,128.53" fill="rgb(243,199,101)" stroke="rgb(243,199,101)" stroke-width=".3"/><polygon points="102.55,131.05 111.27,136.09 111.27,131.05 102.55,126.01" fill="rgb(161,132,67)" stroke="rgb(161,132,67)" stroke-width=".3"/><polygon points="115.64,133.57 115.64,128.53 111.27,131.05 111.27,136.09" fill="rgb(190,156,79)" stroke="rgb(190,156,79)" stroke-width=".3"/></svg>