<svg xmlns="http://www.w3.org/2000/svg" width="192" height="192" viewBox="0 0 192 192"><ellipse cx="96" cy="166" rx="53" ry="12" fill="#40594d" opacity=".1"/><polygon points="96.00,118.53 63.18,137.47 76.31,145.05 109.13,126.11" fill="rgb(143,160,165)" stroke="rgb(143,160,165)" stroke-width=".3"/><polygon points="73.03,78.74 69.75,80.63 89.44,92.00 92.72,90.11" fill="rgb(215,197,100)" stroke="rgb(215,197,100)" stroke-width=".3"/><polygon points="69.75,84.42 89.44,95.79 89.44,92.00 69.75,80.63" fill="rgb(142,130,66)" stroke="rgb(142,130,66)" stroke-width=".3"/><polygon points="76.31,61.68 73.03,63.58 89.44,73.05 92.72,71.16" fill="rgb(215,197,100)" stroke="rgb(215,197,100)" stroke-width=".3"/><polygon points="112.41,71.16 99.28,78.74 102.56,80.63 115.69,73.05" fill="rgb(215,197,100)" stroke="rgb(215,197,100)" stroke-width=".3"/><polygon points="73.03,67.37 89.44,76.84 89.44,73.05 73.03,63.58" fill="rgb(142,130,66)" stroke="rgb(142,130,66)" stroke-width=".3"/><polygon points="109.13,126.11 96.00,133.68 115.69,145.05 128.82,137.47" fill="rgb(143,160,165)" stroke="rgb(143,160,165)" stroke-width=".3"/><polygon points="112.41,56.00 99.28,63.58 102.56,65.47 115.69,57.89" fill="rgb(215,197,100)" stroke="rgb(215,197,100)" stroke-width=".3"/><polygon points="115.69,76.84 115.69,73.05 102.56,80.63 102.56,84.42" fill="rgb(167,154,78)" stroke="rgb(167,154,78)" stroke-width=".3"/><polygon points="79.59,44.63 76.31,46.53 89.44,54.11 92.72,52.21" fill="rgb(215,197,100)" stroke="rgb(215,197,100)" stroke-width=".3"/><polygon points="112.41,40.84 99.28,48.42 102.56,50.32 115.69,42.74" fill="rgb(215,197,100)" stroke="rgb(215,197,100)" stroke-width=".3"/><polygon points="115.69,61.68 115.69,57.89 102.56,65.47 102.56,69.26" fill="rgb(167,154,78)" stroke="rgb(167,154,78)" stroke-width=".3"/><polygon points="76.31,50.32 89.44,57.89 89.44,54.11 76.31,46.53" fill="rgb(142,130,66)" stroke="rgb(142,130,66)" stroke-width=".3"/><polygon points="115.69,46.53 115.69,42.74 102.56,50.32 102.56,54.11" fill="rgb(167,154,78)" stroke="rgb(167,154,78)" stroke-width=".3"/><polygon points="102.56,137.47 102.56,84.42 99.28,86.32 99.28,139.37" fill="rgb(111,125,128)" stroke="rgb(111,125,128)" stroke-width=".3"/><polygon points="89.44,23.79 86.15,25.68 89.44,27.58 92.72,25.68" fill="rgb(226,135,113)" stroke="rgb(226,135,113)" stroke-width=".3"/><polygon points="102.56,23.79 99.28,25.68 102.56,27.58 105.85,25.68" fill="rgb(226,135,113)" stroke="rgb(226,135,113)" stroke-width=".3"/><polygon points="89.44,137.47 96.00,141.26 96.00,99.58 89.44,95.79" fill="rgb(94,106,109)" stroke="rgb(94,106,109)" stroke-width=".3"/><polygon points="89.44,84.42 92.72,86.32 92.72,78.74 89.44,76.84" fill="rgb(94,106,109)" stroke="rgb(94,106,109)" stroke-width=".3"/><polygon points="105.85,29.47 105.85,25.68 102.56,27.58 102.56,31.37" fill="rgb(176,105,88)" stroke="rgb(176,105,88)" stroke-width=".3"/><polygon points="86.15,29.47 89.44,31.37 89.44,27.58 86.15,25.68" fill="rgb(149,89,75)" stroke="rgb(149,89,75)" stroke-width=".3"/><polygon points="102.56,80.63 102.56,69.26 99.28,71.16 99.28,82.53" fill="rgb(111,125,128)" stroke="rgb(111,125,128)" stroke-width=".3"/><polygon points="99.28,139.37 99.28,97.68 96.00,99.58 96.00,141.26" fill="rgb(111,125,128)" stroke="rgb(111,125,128)" stroke-width=".3"/><polygon points="89.44,92.00 96.00,95.79 96.00,88.21 89.44,84.42" fill="rgb(94,106,109)" stroke="rgb(94,106,109)" stroke-width=".3"/><polygon points="89.44,69.26 92.72,71.16 92.72,59.79 89.44,57.89" fill="rgb(94,106,109)" stroke="rgb(94,106,109)" stroke-width=".3"/><polygon points="102.56,65.47 102.56,54.11 99.28,56.00 99.28,67.37" fill="rgb(111,125,128)" stroke="rgb(111,125,128)" stroke-width=".3"/><polygon points="96.00,20.00 86.15,25.68 89.44,27.58 99.28,21.89" fill="rgb(226,135,113)" stroke="rgb(226,135,113)" stroke-width=".3"/><polygon points="89.44,73.05 96.00,76.84 96.00,73.05 89.44,69.26" fill="rgb(94,106,109)" stroke="rgb(94,106,109)" stroke-width=".3"/><polygon points="89.44,54.11 92.72,56.00 92.72,37.05 89.44,35.16" fill="rgb(94,106,109)" stroke="rgb(94,106,109)" stroke-width=".3"/><polygon points="102.56,50.32 102.56,35.16 99.28,37.05 99.28,52.21" fill="rgb(111,125,128)" stroke="rgb(111,125,128)" stroke-width=".3"/><polygon points="99.28,93.89 99.28,86.32 96.00,88.21 96.00,95.79" fill="rgb(111,125,128)" stroke="rgb(111,125,128)" stroke-width=".3"/><polygon points="92.72,82.53 96.00,84.42 96.00,80.63 92.72,78.74" fill="rgb(94,106,109)" stroke="rgb(94,106,109)" stroke-width=".3"/><polygon points="99.28,82.53 99.28,78.74 96.00,80.63 96.00,84.42" fill="rgb(111,125,128)" stroke="rgb(111,125,128)" stroke-width=".3"/><polygon points="99.28,21.89 96.00,23.79 102.56,27.58 105.85,25.68" fill="rgb(226,135,113)" stroke="rgb(226,135,113)" stroke-width=".3"/><polygon points="99.28,74.95 99.28,71.16 96.00,73.05 96.00,76.84" fill="rgb(111,125,128)" stroke="rgb(111,125,128)" stroke-width=".3"/><polygon points="102.56,137.47 96.00,141.26 109.13,148.84 115.69,145.05" fill="rgb(143,160,165)" stroke="rgb(143,160,165)" stroke-width=".3"/><polygon points="92.72,67.37 96.00,69.26 96.00,61.68 92.72,59.79" fill="rgb(94,106,109)" stroke="rgb(94,106,109)" stroke-width=".3"/><polygon points="99.28,67.37 99.28,59.79 96.00,61.68 96.00,69.26" fill="rgb(111,125,128)" stroke="rgb(111,125,128)" stroke-width=".3"/><polygon points="99.28,52.21 99.28,40.84 96.00,42.74 96.00,54.11" fill="rgb(111,125,128)" stroke="rgb(111,125,128)" stroke-width=".3"/><polygon points="92.72,52.21 96.00,54.11 96.00,42.74 92.72,40.84" fill="rgb(94,106,109)" stroke="rgb(94,106,109)" stroke-width=".3"/><polygon points="96.00,20.00 92.72,21.89 96.00,23.79 99.28,21.89" fill="rgb(226,135,113)" stroke="rgb(226,135,113)" stroke-width=".3"/><polygon points="99.28,40.84 99.28,37.05 96.00,38.95 96.00,42.74" fill="rgb(176,105,88)" stroke="rgb(176,105,88)" stroke-width=".3"/><polygon points="92.72,40.84 96.00,42.74 96.00,38.95 92.72,37.05" fill="rgb(149,89,75)" stroke="rgb(149,89,75)" stroke-width=".3"/><polygon points="105.85,37.05 105.85,25.68 102.56,27.58 102.56,38.95" fill="rgb(176,105,88)" stroke="rgb(176,105,88)" stroke-width=".3"/><polygon points="86.15,33.26 89.44,35.16 89.44,27.58 86.15,25.68" fill="rgb(149,89,75)" stroke="rgb(149,89,75)" stroke-width=".3"/><polygon points="99.28,25.68 99.28,21.89 96.00,23.79 96.00,27.58" fill="rgb(176,105,88)" stroke="rgb(176,105,88)" stroke-width=".3"/><polygon points="92.72,25.68 96.00,27.58 96.00,23.79 92.72,21.89" fill="rgb(149,89,75)" stroke="rgb(149,89,75)" stroke-width=".3"/><polygon points="99.28,25.68 96.00,27.58 99.28,29.47 102.56,27.58" fill="rgb(226,135,113)" stroke="rgb(226,135,113)" stroke-width=".3"/><polygon points="102.56,84.42 102.56,80.63 79.59,93.89 79.59,97.68" fill="rgb(167,154,78)" stroke="rgb(167,154,78)" stroke-width=".3"/><polygon points="86.15,37.05 96.00,42.74 96.00,38.95 86.15,33.26" fill="rgb(149,89,75)" stroke="rgb(149,89,75)" stroke-width=".3"/><polygon points="89.44,57.89 109.13,69.26 109.13,65.47 89.44,54.11" fill="rgb(142,130,66)" stroke="rgb(142,130,66)" stroke-width=".3"/><polygon points="89.44,76.84 112.41,90.11 112.41,86.32 89.44,73.05" fill="rgb(142,130,66)" stroke="rgb(142,130,66)" stroke-width=".3"/><polygon points="102.56,31.37 102.56,27.58 99.28,29.47 99.28,33.26" fill="rgb(176,105,88)" stroke="rgb(176,105,88)" stroke-width=".3"/><polygon points="92.72,25.68 89.44,27.58 96.00,31.37 99.28,29.47" fill="rgb(226,135,113)" stroke="rgb(226,135,113)" stroke-width=".3"/><polygon points="89.44,95.79 115.69,110.95 115.69,107.16 89.44,92.00" fill="rgb(142,130,66)" stroke="rgb(142,130,66)" stroke-width=".3"/><polygon points="63.18,145.05 96.00,164.00 96.00,156.42 63.18,137.47" fill="rgb(94,106,109)" stroke="rgb(94,106,109)" stroke-width=".3"/><polygon points="128.82,145.05 128.82,137.47 96.00,156.42 96.00,164.00" fill="rgb(111,125,128)" stroke="rgb(111,125,128)" stroke-width=".3"/><polygon points="102.56,69.26 102.56,65.47 79.59,78.74 79.59,82.53" fill="rgb(167,154,78)" stroke="rgb(167,154,78)" stroke-width=".3"/><polygon points="89.44,137.47 76.31,145.05 96.00,156.42 109.13,148.84" fill="rgb(143,160,165)" stroke="rgb(143,160,165)" stroke-width=".3"/><polygon points="92.72,82.53 76.31,92.00 79.59,93.89 96.00,84.42" fill="rgb(215,197,100)" stroke="rgb(215,197,100)" stroke-width=".3"/><polygon points="102.56,38.95 102.56,35.16 96.00,38.95 96.00,42.74" fill="rgb(176,105,88)" stroke="rgb(176,105,88)" stroke-width=".3"/><polygon points="99.28,56.00 96.00,57.89 109.13,65.47 112.41,63.58" fill="rgb(215,197,100)" stroke="rgb(215,197,100)" stroke-width=".3"/><polygon points="102.56,54.11 102.56,50.32 79.59,63.58 79.59,67.37" fill="rgb(167,154,78)" stroke="rgb(167,154,78)" stroke-width=".3"/><polygon points="89.44,31.37 86.15,33.26 89.44,35.16 92.72,33.26" fill="rgb(226,135,113)" stroke="rgb(226,135,113)" stroke-width=".3"/><polygon points="102.56,31.37 99.28,33.26 102.56,35.16 105.85,33.26" fill="rgb(226,135,113)" stroke="rgb(226,135,113)" stroke-width=".3"/><polygon points="99.28,74.95 96.00,76.84 112.41,86.32 115.69,84.42" fill="rgb(215,197,100)" stroke="rgb(215,197,100)" stroke-width=".3"/><polygon points="89.44,31.37 96.00,35.16 96.00,31.37 89.44,27.58" fill="rgb(149,89,75)" stroke="rgb(149,89,75)" stroke-width=".3"/><polygon points="99.28,93.89 96.00,95.79 115.69,107.16 118.97,105.26" fill="rgb(215,197,100)" stroke="rgb(215,197,100)" stroke-width=".3"/><polygon points="92.72,67.37 76.31,76.84 79.59,78.74 96.00,69.26" fill="rgb(215,197,100)" stroke="rgb(215,197,100)" stroke-width=".3"/><polygon points="99.28,37.05 102.56,38.95 102.56,35.16 99.28,33.26" fill="rgb(149,89,75)" stroke="rgb(149,89,75)" stroke-width=".3"/><polygon points="92.72,37.05 96.00,38.95 96.00,35.16 92.72,33.26" fill="rgb(149,89,75)" stroke="rgb(149,89,75)" stroke-width=".3"/><polygon points="86.15,37.05 89.44,38.95 89.44,35.16 86.15,33.26" fill="rgb(149,89,75)" stroke="rgb(149,89,75)" stroke-width=".3"/><polygon points="92.72,37.05 92.72,33.26 89.44,35.16 89.44,38.95" fill="rgb(176,105,88)" stroke="rgb(176,105,88)" stroke-width=".3"/><polygon points="105.85,37.05 105.85,33.26 102.56,35.16 102.56,38.95" fill="rgb(176,105,88)" stroke="rgb(176,105,88)" stroke-width=".3"/><polygon points="99.28,37.05 99.28,29.47 96.00,31.37 96.00,38.95" fill="rgb(176,105,88)" stroke="rgb(176,105,88)" stroke-width=".3"/><polygon points="92.72,52.21 76.31,61.68 79.59,63.58 96.00,54.11" fill="rgb(215,197,100)" stroke="rgb(215,197,100)" stroke-width=".3"/><polygon points="112.41,67.37 112.41,63.58 109.13,65.47 109.13,69.26" fill="rgb(167,154,78)" stroke="rgb(167,154,78)" stroke-width=".3"/><polygon points="76.31,95.79 79.59,97.68 79.59,93.89 76.31,92.00" fill="rgb(142,130,66)" stroke="rgb(142,130,66)" stroke-width=".3"/><polygon points="115.69,88.21 115.69,84.42 112.41,86.32 112.41,90.11" fill="rgb(167,154,78)" stroke="rgb(167,154,78)" stroke-width=".3"/><polygon points="76.31,80.63 79.59,82.53 79.59,78.74 76.31,76.84" fill="rgb(142,130,66)" stroke="rgb(142,130,66)" stroke-width=".3"/><polygon points="76.31,65.47 79.59,67.37 79.59,63.58 76.31,61.68" fill="rgb(142,130,66)" stroke="rgb(142,130,66)" stroke-width=".3"/><polygon points="118.97,109.05 118.97,105.26 115.69,107.16 115.69,110.95" fill="rgb(167,154,78)" stroke="rgb(167,154,78)" stroke-width=".3"/></svg>