<svg xmlns="http://www.w3.org/2000/svg" width="192" height="192" viewBox="0 0 192 192"><ellipse cx="96" cy="166" rx="53" ry="12" fill="#40594d" opacity=".1"/><polygon points="43.24,42.15 48.04,44.92 48.04,28.31 43.24,25.54" fill="rgb(178,171,153)" stroke="rgb(178,171,153)" stroke-width=".3"/><polygon points="43.24,92.00 52.83,97.54 52.83,47.69 43.24,42.15" fill="rgb(40,53,61)" stroke="rgb(40,53,61)" stroke-width=".3"/><polygon points="48.04,28.31 43.24,31.08 57.63,39.38 62.43,36.62" fill="rgb(61,80,93)" stroke="rgb(61,80,93)" stroke-width=".3"/><polygon points="43.24,47.69 57.63,56.00 57.63,39.38 43.24,31.08" fill="rgb(40,53,61)" stroke="rgb(40,53,61)" stroke-width=".3"/><polygon points="62.43,53.23 62.43,36.62 57.63,39.38 57.63,56.00" fill="rgb(48,62,72)" stroke="rgb(48,62,72)" stroke-width=".3"/><polygon points="62.43,53.23 72.02,58.77 72.02,42.15 62.43,36.62" fill="rgb(178,171,153)" stroke="rgb(178,171,153)" stroke-width=".3"/><polygon points="72.02,42.15 67.22,44.92 81.61,53.23 86.41,50.46" fill="rgb(61,80,93)" stroke="rgb(61,80,93)" stroke-width=".3"/><polygon points="67.22,61.54 81.61,69.85 81.61,53.23 67.22,44.92" fill="rgb(40,53,61)" stroke="rgb(40,53,61)" stroke-width=".3"/><polygon points="43.24,108.62 139.17,164.00 139.17,147.38 43.24,92.00" fill="rgb(40,53,61)" stroke="rgb(40,53,61)" stroke-width=".3"/><polygon points="52.83,20.00 43.24,25.54 139.17,80.92 148.76,75.38" fill="rgb(255,255,232)" stroke="rgb(255,255,232)" stroke-width=".3"/><polygon points="86.41,67.08 86.41,50.46 81.61,53.23 81.61,69.85" fill="rgb(48,62,72)" stroke="rgb(48,62,72)" stroke-width=".3"/><polygon points="52.83,92.00 48.04,94.77 124.78,139.08 129.57,136.31" fill="rgb(255,255,232)" stroke="rgb(255,255,232)" stroke-width=".3"/><polygon points="52.83,75.38 48.04,78.15 124.78,122.46 129.57,119.69" fill="rgb(255,255,232)" stroke="rgb(255,255,232)" stroke-width=".3"/><polygon points="86.41,67.08 96.00,72.62 96.00,56.00 86.41,50.46" fill="rgb(178,171,153)" stroke="rgb(178,171,153)" stroke-width=".3"/><polygon points="48.04,100.31 124.78,144.62 124.78,139.08 48.04,94.77" fill="rgb(178,171,153)" stroke="rgb(178,171,153)" stroke-width=".3"/><polygon points="52.83,58.77 48.04,61.54 124.78,105.85 129.57,103.08" fill="rgb(255,255,232)" stroke="rgb(255,255,232)" stroke-width=".3"/><polygon points="52.83,92.00 139.17,141.85 139.17,130.77 52.83,80.92" fill="rgb(40,53,61)" stroke="rgb(40,53,61)" stroke-width=".3"/><polygon points="48.04,83.69 124.78,128.00 124.78,122.46 48.04,78.15" fill="rgb(178,171,153)" stroke="rgb(178,171,153)" stroke-width=".3"/><polygon points="52.83,75.38 139.17,125.23 139.17,114.15 52.83,64.31" fill="rgb(40,53,61)" stroke="rgb(40,53,61)" stroke-width=".3"/><polygon points="48.04,67.08 124.78,111.38 124.78,105.85 48.04,61.54" fill="rgb(178,171,153)" stroke="rgb(178,171,153)" stroke-width=".3"/><polygon points="52.83,58.77 139.17,108.62 139.17,97.54 52.83,47.69" fill="rgb(40,53,61)" stroke="rgb(40,53,61)" stroke-width=".3"/><polygon points="96.00,56.00 91.20,58.77 105.59,67.08 110.39,64.31" fill="rgb(61,80,93)" stroke="rgb(61,80,93)" stroke-width=".3"/><polygon points="91.20,75.38 105.59,83.69 105.59,67.08 91.20,58.77" fill="rgb(40,53,61)" stroke="rgb(40,53,61)" stroke-width=".3"/><polygon points="110.39,80.92 110.39,64.31 105.59,67.08 105.59,83.69" fill="rgb(48,62,72)" stroke="rgb(48,62,72)" stroke-width=".3"/><polygon points="110.39,80.92 119.98,86.46 119.98,69.85 110.39,64.31" fill="rgb(178,171,153)" stroke="rgb(178,171,153)" stroke-width=".3"/><polygon points="129.57,141.85 129.57,136.31 124.78,139.08 124.78,144.62" fill="rgb(210,202,181)" stroke="rgb(210,202,181)" stroke-width=".3"/><polygon points="129.57,125.23 129.57,119.69 124.78,122.46 124.78,128.00" fill="rgb(210,202,181)" stroke="rgb(210,202,181)" stroke-width=".3"/><polygon points="119.98,69.85 115.19,72.62 129.57,80.92 134.37,78.15" fill="rgb(61,80,93)" stroke="rgb(61,80,93)" stroke-width=".3"/><polygon points="129.57,108.62 129.57,103.08 124.78,105.85 124.78,111.38" fill="rgb(210,202,181)" stroke="rgb(210,202,181)" stroke-width=".3"/><polygon points="129.57,141.85 139.17,147.38 139.17,141.85 129.57,136.31" fill="rgb(40,53,61)" stroke="rgb(40,53,61)" stroke-width=".3"/><polygon points="148.76,158.46 148.76,92.00 139.17,97.54 139.17,164.00" fill="rgb(48,62,72)" stroke="rgb(48,62,72)" stroke-width=".3"/><polygon points="129.57,125.23 139.17,130.77 139.17,125.23 129.57,119.69" fill="rgb(40,53,61)" stroke="rgb(40,53,61)" stroke-width=".3"/><polygon points="115.19,89.23 129.57,97.54 129.57,80.92 115.19,72.62" fill="rgb(40,53,61)" stroke="rgb(40,53,61)" stroke-width=".3"/><polygon points="129.57,108.62 139.17,114.15 139.17,108.62 129.57,103.08" fill="rgb(40,53,61)" stroke="rgb(40,53,61)" stroke-width=".3"/><polygon points="148.76,92.00 148.76,75.38 139.17,80.92 139.17,97.54" fill="rgb(210,202,181)" stroke="rgb(210,202,181)" stroke-width=".3"/><polygon points="134.37,94.77 139.17,97.54 139.17,80.92 134.37,78.15" fill="rgb(178,171,153)" stroke="rgb(178,171,153)" stroke-width=".3"/><polygon points="134.37,94.77 134.37,78.15 129.57,80.92 129.57,97.54" fill="rgb(48,62,72)" stroke="rgb(48,62,72)" stroke-width=".3"/></svg>