<svg xmlns="http://www.w3.org/2000/svg" width="192" height="192" viewBox="0 0 192 192"><ellipse cx="96" cy="166" rx="53" ry="12" fill="#40594d" opacity=".1"/><polygon points="85.61,80.00 80.41,83.00 85.61,86.00 90.80,83.00" fill="rgb(185,183,148)" stroke="rgb(185,183,148)" stroke-width=".3"/><polygon points="106.39,80.00 101.20,83.00 106.39,86.00 111.59,83.00" fill="rgb(185,183,148)" stroke="rgb(185,183,148)" stroke-width=".3"/><polygon points="96.00,74.00 90.80,77.00 96.00,80.00 101.20,77.00" fill="rgb(185,183,148)" stroke="rgb(185,183,148)" stroke-width=".3"/><polygon points="80.41,77.00 75.22,80.00 80.41,83.00 85.61,80.00" fill="rgb(185,183,148)" stroke="rgb(185,183,148)" stroke-width=".3"/><polygon points="111.59,77.00 106.39,80.00 111.59,83.00 116.78,80.00" fill="rgb(185,183,148)" stroke="rgb(185,183,148)" stroke-width=".3"/><polygon points="90.80,71.00 85.61,74.00 90.80,77.00 96.00,74.00" fill="rgb(185,183,148)" stroke="rgb(185,183,148)" stroke-width=".3"/><polygon points="101.20,71.00 96.00,74.00 101.20,77.00 106.39,74.00" fill="rgb(185,183,148)" stroke="rgb(185,183,148)" stroke-width=".3"/><polygon points="64.82,92.00 59.63,95.00 64.82,98.00 70.02,95.00" fill="rgb(185,183,148)" stroke="rgb(185,183,148)" stroke-width=".3"/><polygon points="127.18,92.00 121.98,95.00 127.18,98.00 132.37,95.00" fill="rgb(185,183,148)" stroke="rgb(185,183,148)" stroke-width=".3"/><polygon points="132.37,101.00 132.37,95.00 127.18,98.00 127.18,104.00" fill="rgb(144,143,116)" stroke="rgb(144,143,116)" stroke-width=".3"/><polygon points="59.63,101.00 64.82,104.00 64.82,98.00 59.63,95.00" fill="rgb(122,121,98)" stroke="rgb(122,121,98)" stroke-width=".3"/><polygon points="96.00,68.00 85.61,74.00 90.80,77.00 101.20,71.00" fill="rgb(185,183,148)" stroke="rgb(185,183,148)" stroke-width=".3"/><polygon points="106.39,68.00 96.00,74.00 101.20,77.00 111.59,71.00" fill="rgb(185,183,148)" stroke="rgb(185,183,148)" stroke-width=".3"/><polygon points="75.22,74.00 59.63,83.00 64.82,86.00 80.41,77.00" fill="rgb(185,183,148)" stroke="rgb(185,183,148)" stroke-width=".3"/><polygon points="116.78,74.00 111.59,77.00 127.18,86.00 132.37,83.00" fill="rgb(185,183,148)" stroke="rgb(185,183,148)" stroke-width=".3"/><polygon points="132.37,125.00 132.37,119.00 127.18,122.00 127.18,128.00" fill="rgb(144,143,116)" stroke="rgb(144,143,116)" stroke-width=".3"/><polygon points="59.63,125.00 64.82,128.00 64.82,122.00 59.63,119.00" fill="rgb(122,121,98)" stroke="rgb(122,121,98)" stroke-width=".3"/><polygon points="85.61,68.00 59.63,83.00 64.82,86.00 90.80,71.00" fill="rgb(185,183,148)" stroke="rgb(185,183,148)" stroke-width=".3"/><polygon points="59.63,89.00 64.82,92.00 64.82,86.00 59.63,83.00" fill="rgb(122,121,98)" stroke="rgb(122,121,98)" stroke-width=".3"/><polygon points="132.37,89.00 132.37,83.00 127.18,86.00 127.18,92.00" fill="rgb(144,143,116)" stroke="rgb(144,143,116)" stroke-width=".3"/><polygon points="111.59,71.00 106.39,74.00 127.18,86.00 132.37,83.00" fill="rgb(185,183,148)" stroke="rgb(185,183,148)" stroke-width=".3"/><polygon points="59.63,89.00 54.43,92.00 59.63,95.00 64.82,92.00" fill="rgb(185,183,148)" stroke="rgb(185,183,148)" stroke-width=".3"/><polygon points="132.37,89.00 127.18,92.00 132.37,95.00 137.57,92.00" fill="rgb(185,183,148)" stroke="rgb(185,183,148)" stroke-width=".3"/><polygon points="54.43,122.00 59.63,125.00 59.63,119.00 54.43,116.00" fill="rgb(122,121,98)" stroke="rgb(122,121,98)" stroke-width=".3"/><polygon points="137.57,122.00 137.57,116.00 132.37,119.00 132.37,125.00" fill="rgb(144,143,116)" stroke="rgb(144,143,116)" stroke-width=".3"/><polygon points="106.39,68.00 101.20,71.00 116.78,80.00 121.98,77.00" fill="rgb(185,183,148)" stroke="rgb(185,183,148)" stroke-width=".3"/><polygon points="75.22,26.00 64.82,32.00 70.02,35.00 80.41,29.00" fill="rgb(61,80,93)" stroke="rgb(61,80,93)" stroke-width=".3"/><polygon points="54.43,98.00 59.63,101.00 59.63,95.00 54.43,92.00" fill="rgb(122,121,98)" stroke="rgb(122,121,98)" stroke-width=".3"/><polygon points="137.57,98.00 137.57,92.00 132.37,95.00 132.37,101.00" fill="rgb(144,143,116)" stroke="rgb(144,143,116)" stroke-width=".3"/><polygon points="121.98,143.00 121.98,137.00 116.78,140.00 116.78,146.00" fill="rgb(144,143,116)" stroke="rgb(144,143,116)" stroke-width=".3"/><polygon points="70.02,143.00 75.22,146.00 75.22,140.00 70.02,137.00" fill="rgb(122,121,98)" stroke="rgb(122,121,98)" stroke-width=".3"/><polygon points="54.43,98.00 49.24,101.00 54.43,104.00 59.63,101.00" fill="rgb(185,183,148)" stroke="rgb(185,183,148)" stroke-width=".3"/><polygon points="137.57,98.00 132.37,101.00 137.57,104.00 142.76,101.00" fill="rgb(185,183,148)" stroke="rgb(185,183,148)" stroke-width=".3"/><polygon points="59.63,137.00 64.82,140.00 64.82,134.00 59.63,131.00" fill="rgb(122,121,98)" stroke="rgb(122,121,98)" stroke-width=".3"/><polygon points="132.37,137.00 132.37,131.00 127.18,134.00 127.18,140.00" fill="rgb(144,143,116)" stroke="rgb(144,143,116)" stroke-width=".3"/><polygon points="64.82,44.00 70.02,47.00 70.02,35.00 64.82,32.00" fill="rgb(40,53,61)" stroke="rgb(40,53,61)" stroke-width=".3"/><polygon points="96.00,68.00 90.80,71.00 116.78,86.00 121.98,83.00" fill="rgb(185,183,148)" stroke="rgb(185,183,148)" stroke-width=".3"/><polygon points="49.24,119.00 54.43,122.00 54.43,104.00 49.24,101.00" fill="rgb(122,121,98)" stroke="rgb(122,121,98)" stroke-width=".3"/><polygon points="142.76,119.00 142.76,101.00 137.57,104.00 137.57,122.00" fill="rgb(144,143,116)" stroke="rgb(144,143,116)" stroke-width=".3"/><polygon points="80.41,23.00 70.02,29.00 75.22,32.00 85.61,26.00" fill="rgb(61,80,93)" stroke="rgb(61,80,93)" stroke-width=".3"/><polygon points="85.61,56.00 85.61,50.00 75.22,56.00 75.22,62.00" fill="rgb(48,62,72)" stroke="rgb(48,62,72)" stroke-width=".3"/><polygon points="64.82,56.00 75.22,62.00 75.22,56.00 64.82,50.00" fill="rgb(40,53,61)" stroke="rgb(40,53,61)" stroke-width=".3"/><polygon points="64.82,50.00 75.22,56.00 75.22,50.00 64.82,44.00" fill="rgb(40,53,61)" stroke="rgb(40,53,61)" stroke-width=".3"/><polygon points="85.61,50.00 85.61,44.00 75.22,50.00 75.22,56.00" fill="rgb(48,62,72)" stroke="rgb(48,62,72)" stroke-width=".3"/><polygon points="59.63,89.00 64.82,92.00 64.82,86.00 59.63,83.00" fill="rgb(122,121,98)" stroke="rgb(122,121,98)" stroke-width=".3"/><polygon points="132.37,89.00 132.37,83.00 127.18,86.00 127.18,92.00" fill="rgb(144,143,116)" stroke="rgb(144,143,116)" stroke-width=".3"/><polygon points="121.98,83.00 121.98,77.00 116.78,80.00 116.78,86.00" fill="rgb(144,143,116)" stroke="rgb(144,143,116)" stroke-width=".3"/><polygon points="70.02,83.00 75.22,86.00 75.22,80.00 70.02,77.00" fill="rgb(122,121,98)" stroke="rgb(122,121,98)" stroke-width=".3"/><polygon points="64.82,62.00 80.41,71.00 80.41,65.00 64.82,56.00" fill="rgb(40,53,61)" stroke="rgb(40,53,61)" stroke-width=".3"/><polygon points="85.61,56.00 75.22,62.00 80.41,65.00 90.80,59.00" fill="rgb(61,80,93)" stroke="rgb(61,80,93)" stroke-width=".3"/><polygon points="54.43,134.00 59.63,137.00 59.63,131.00 54.43,128.00" fill="rgb(122,121,98)" stroke="rgb(122,121,98)" stroke-width=".3"/><polygon points="137.57,134.00 137.57,128.00 132.37,131.00 132.37,137.00" fill="rgb(144,143,116)" stroke="rgb(144,143,116)" stroke-width=".3"/><polygon points="59.63,89.00 54.43,92.00 59.63,95.00 64.82,92.00" fill="rgb(185,183,148)" stroke="rgb(185,183,148)" stroke-width=".3"/><polygon points="132.37,89.00 127.18,92.00 132.37,95.00 137.57,92.00" fill="rgb(185,183,148)" stroke="rgb(185,183,148)" stroke-width=".3"/><polygon points="85.61,68.00 80.41,71.00 116.78,92.00 121.98,89.00" fill="rgb(185,183,148)" stroke="rgb(185,183,148)" stroke-width=".3"/><polygon points="70.02,41.00 75.22,44.00 75.22,32.00 70.02,29.00" fill="rgb(40,53,61)" stroke="rgb(40,53,61)" stroke-width=".3"/><polygon points="64.82,68.00 85.61,80.00 85.61,74.00 64.82,62.00" fill="rgb(40,53,61)" stroke="rgb(40,53,61)" stroke-width=".3"/><polygon points="90.80,65.00 90.80,59.00 80.41,65.00 80.41,71.00" fill="rgb(48,62,72)" stroke="rgb(48,62,72)" stroke-width=".3"/><polygon points="85.61,20.00 75.22,26.00 80.41,29.00 90.80,23.00" fill="rgb(61,80,93)" stroke="rgb(61,80,93)" stroke-width=".3"/><polygon points="137.57,98.00 137.57,92.00 132.37,95.00 132.37,101.00" fill="rgb(144,143,116)" stroke="rgb(144,143,116)" stroke-width=".3"/><polygon points="54.43,98.00 59.63,101.00 59.63,95.00 54.43,92.00" fill="rgb(122,121,98)" stroke="rgb(122,121,98)" stroke-width=".3"/><polygon points="70.02,83.00 59.63,89.00 64.82,92.00 75.22,86.00" fill="rgb(185,183,148)" stroke="rgb(185,183,148)" stroke-width=".3"/><polygon points="121.98,83.00 116.78,86.00 127.18,92.00 132.37,89.00" fill="rgb(185,183,148)" stroke="rgb(185,183,148)" stroke-width=".3"/><polygon points="70.02,47.00 80.41,53.00 80.41,47.00 70.02,41.00" fill="rgb(40,53,61)" stroke="rgb(40,53,61)" stroke-width=".3"/><polygon points="90.80,47.00 90.80,41.00 80.41,47.00 80.41,53.00" fill="rgb(48,62,72)" stroke="rgb(48,62,72)" stroke-width=".3"/><polygon points="90.80,155.00 96.00,158.00 96.00,152.00 90.80,149.00" fill="rgb(122,121,98)" stroke="rgb(122,121,98)" stroke-width=".3"/><polygon points="101.20,155.00 101.20,149.00 96.00,152.00 96.00,158.00" fill="rgb(144,143,116)" stroke="rgb(144,143,116)" stroke-width=".3"/><polygon points="70.02,149.00 75.22,152.00 75.22,146.00 70.02,143.00" fill="rgb(122,121,98)" stroke="rgb(122,121,98)" stroke-width=".3"/><polygon points="121.98,149.00 121.98,143.00 116.78,146.00 116.78,152.00" fill="rgb(144,143,116)" stroke="rgb(144,143,116)" stroke-width=".3"/><polygon points="90.80,65.00 80.41,71.00 85.61,74.00 96.00,68.00" fill="rgb(61,80,93)" stroke="rgb(61,80,93)" stroke-width=".3"/><polygon points="59.63,143.00 64.82,146.00 64.82,140.00 59.63,137.00" fill="rgb(122,121,98)" stroke="rgb(122,121,98)" stroke-width=".3"/><polygon points="132.37,143.00 132.37,137.00 127.18,140.00 127.18,146.00" fill="rgb(144,143,116)" stroke="rgb(144,143,116)" stroke-width=".3"/><polygon points="54.43,98.00 49.24,101.00 54.43,104.00 59.63,101.00" fill="rgb(185,183,148)" stroke="rgb(185,183,148)" stroke-width=".3"/><polygon points="137.57,98.00 132.37,101.00 137.57,104.00 142.76,101.00" fill="rgb(185,183,148)" stroke="rgb(185,183,148)" stroke-width=".3"/><polygon points="142.76,131.00 142.76,101.00 137.57,104.00 137.57,134.00" fill="rgb(144,143,116)" stroke="rgb(144,143,116)" stroke-width=".3"/><polygon points="49.24,125.00 54.43,128.00 54.43,104.00 49.24,101.00" fill="rgb(122,121,98)" stroke="rgb(122,121,98)" stroke-width=".3"/><polygon points="96.00,74.00 96.00,68.00 85.61,74.00 85.61,80.00" fill="rgb(48,62,72)" stroke="rgb(48,62,72)" stroke-width=".3"/><polygon points="75.22,38.00 80.41,41.00 80.41,29.00 75.22,26.00" fill="rgb(40,53,61)" stroke="rgb(40,53,61)" stroke-width=".3"/><polygon points="90.80,23.00 80.41,29.00 85.61,32.00 96.00,26.00" fill="rgb(61,80,93)" stroke="rgb(61,80,93)" stroke-width=".3"/><polygon points="59.63,95.00 64.82,98.00 64.82,92.00 59.63,89.00" fill="rgb(122,121,98)" stroke="rgb(122,121,98)" stroke-width=".3"/><polygon points="132.37,95.00 132.37,89.00 127.18,92.00 127.18,98.00" fill="rgb(144,143,116)" stroke="rgb(144,143,116)" stroke-width=".3"/><polygon points="49.24,131.00 59.63,137.00 59.63,131.00 49.24,125.00" fill="rgb(122,121,98)" stroke="rgb(122,121,98)" stroke-width=".3"/><polygon points="70.02,89.00 75.22,92.00 75.22,86.00 70.02,83.00" fill="rgb(122,121,98)" stroke="rgb(122,121,98)" stroke-width=".3"/><polygon points="121.98,89.00 121.98,83.00 116.78,86.00 116.78,92.00" fill="rgb(144,143,116)" stroke="rgb(144,143,116)" stroke-width=".3"/><polygon points="96.00,44.00 96.00,38.00 85.61,44.00 85.61,50.00" fill="rgb(48,62,72)" stroke="rgb(48,62,72)" stroke-width=".3"/><polygon points="75.22,44.00 85.61,50.00 85.61,44.00 75.22,38.00" fill="rgb(40,53,61)" stroke="rgb(40,53,61)" stroke-width=".3"/><polygon points="59.63,95.00 54.43,98.00 59.63,101.00 64.82,98.00" fill="rgb(185,183,148)" stroke="rgb(185,183,148)" stroke-width=".3"/><polygon points="132.37,95.00 127.18,98.00 132.37,101.00 137.57,98.00" fill="rgb(185,183,148)" stroke="rgb(185,183,148)" stroke-width=".3"/><polygon points="137.57,140.00 137.57,128.00 132.37,131.00 132.37,143.00" fill="rgb(144,143,116)" stroke="rgb(144,143,116)" stroke-width=".3"/><polygon points="70.02,77.00 101.20,95.00 101.20,89.00 70.02,71.00" fill="rgb(40,53,61)" stroke="rgb(40,53,61)" stroke-width=".3"/><polygon points="96.00,74.00 85.61,80.00 96.00,86.00 106.39,80.00" fill="rgb(61,80,93)" stroke="rgb(61,80,93)" stroke-width=".3"/><polygon points="80.41,41.00 85.61,44.00 85.61,32.00 80.41,29.00" fill="rgb(40,53,61)" stroke="rgb(40,53,61)" stroke-width=".3"/><polygon points="96.00,26.00 85.61,32.00 90.80,35.00 101.20,29.00" fill="rgb(61,80,93)" stroke="rgb(61,80,93)" stroke-width=".3"/><polygon points="137.57,110.00 137.57,98.00 132.37,101.00 132.37,113.00" fill="rgb(144,143,116)" stroke="rgb(144,143,116)" stroke-width=".3"/><polygon points="54.43,110.00 59.63,113.00 59.63,101.00 54.43,98.00" fill="rgb(122,121,98)" stroke="rgb(122,121,98)" stroke-width=".3"/><polygon points="54.43,140.00 64.82,146.00 64.82,140.00 54.43,134.00" fill="rgb(122,121,98)" stroke="rgb(122,121,98)" stroke-width=".3"/><polygon points="70.02,89.00 59.63,95.00 64.82,98.00 75.22,92.00" fill="rgb(185,183,148)" stroke="rgb(185,183,148)" stroke-width=".3"/><polygon points="121.98,89.00 116.78,92.00 127.18,98.00 132.37,95.00" fill="rgb(185,183,148)" stroke="rgb(185,183,148)" stroke-width=".3"/><polygon points="54.43,110.00 49.24,113.00 54.43,116.00 59.63,113.00" fill="rgb(185,183,148)" stroke="rgb(185,183,148)" stroke-width=".3"/><polygon points="137.57,110.00 132.37,113.00 137.57,116.00 142.76,113.00" fill="rgb(185,183,148)" stroke="rgb(185,183,148)" stroke-width=".3"/><polygon points="132.37,149.00 132.37,137.00 127.18,140.00 127.18,152.00" fill="rgb(144,143,116)" stroke="rgb(144,143,116)" stroke-width=".3"/><polygon points="75.22,80.00 70.02,83.00 96.00,98.00 101.20,95.00" fill="rgb(185,183,148)" stroke="rgb(185,183,148)" stroke-width=".3"/><polygon points="142.76,131.00 142.76,113.00 137.57,116.00 137.57,134.00" fill="rgb(144,143,116)" stroke="rgb(144,143,116)" stroke-width=".3"/><polygon points="85.61,44.00 90.80,47.00 90.80,35.00 85.61,32.00" fill="rgb(40,53,61)" stroke="rgb(40,53,61)" stroke-width=".3"/><polygon points="101.20,29.00 90.80,35.00 96.00,38.00 106.39,32.00" fill="rgb(61,80,93)" stroke="rgb(61,80,93)" stroke-width=".3"/><polygon points="59.63,107.00 64.82,110.00 64.82,98.00 59.63,95.00" fill="rgb(122,121,98)" stroke="rgb(122,121,98)" stroke-width=".3"/><polygon points="132.37,107.00 132.37,95.00 127.18,98.00 127.18,110.00" fill="rgb(144,143,116)" stroke="rgb(144,143,116)" stroke-width=".3"/><polygon points="121.98,95.00 121.98,89.00 116.78,92.00 116.78,98.00" fill="rgb(144,143,116)" stroke="rgb(144,143,116)" stroke-width=".3"/><polygon points="70.02,155.00 85.61,164.00 85.61,158.00 70.02,149.00" fill="rgb(122,121,98)" stroke="rgb(122,121,98)" stroke-width=".3"/><polygon points="121.98,155.00 121.98,149.00 106.39,158.00 106.39,164.00" fill="rgb(144,143,116)" stroke="rgb(144,143,116)" stroke-width=".3"/><polygon points="106.39,74.00 96.00,80.00 101.20,83.00 111.59,77.00" fill="rgb(61,80,93)" stroke="rgb(61,80,93)" stroke-width=".3"/><polygon points="59.63,107.00 54.43,110.00 59.63,113.00 64.82,110.00" fill="rgb(185,183,148)" stroke="rgb(185,183,148)" stroke-width=".3"/><polygon points="132.37,107.00 127.18,110.00 132.37,113.00 137.57,110.00" fill="rgb(185,183,148)" stroke="rgb(185,183,148)" stroke-width=".3"/><polygon points="75.22,86.00 70.02,89.00 85.61,98.00 90.80,95.00" fill="rgb(185,183,148)" stroke="rgb(185,183,148)" stroke-width=".3"/><polygon points="137.57,140.00 137.57,110.00 132.37,113.00 132.37,143.00" fill="rgb(144,143,116)" stroke="rgb(144,143,116)" stroke-width=".3"/><polygon points="49.24,125.00 64.82,134.00 64.82,122.00 49.24,113.00" fill="rgb(122,121,98)" stroke="rgb(122,121,98)" stroke-width=".3"/><polygon points="90.80,47.00 96.00,50.00 96.00,38.00 90.80,35.00" fill="rgb(40,53,61)" stroke="rgb(40,53,61)" stroke-width=".3"/><polygon points="70.02,95.00 85.61,104.00 85.61,98.00 70.02,89.00" fill="rgb(122,121,98)" stroke="rgb(122,121,98)" stroke-width=".3"/><polygon points="96.00,86.00 101.20,89.00 101.20,83.00 96.00,80.00" fill="rgb(40,53,61)" stroke="rgb(40,53,61)" stroke-width=".3"/><polygon points="101.20,161.00 106.39,164.00 106.39,158.00 101.20,155.00" fill="rgb(122,121,98)" stroke="rgb(122,121,98)" stroke-width=".3"/><polygon points="90.80,161.00 96.00,164.00 96.00,158.00 90.80,155.00" fill="rgb(122,121,98)" stroke="rgb(122,121,98)" stroke-width=".3"/><polygon points="90.80,161.00 90.80,155.00 85.61,158.00 85.61,164.00" fill="rgb(144,143,116)" stroke="rgb(144,143,116)" stroke-width=".3"/><polygon points="101.20,161.00 101.20,155.00 96.00,158.00 96.00,164.00" fill="rgb(144,143,116)" stroke="rgb(144,143,116)" stroke-width=".3"/><polygon points="106.39,32.00 96.00,38.00 106.39,44.00 116.78,38.00" fill="rgb(61,80,93)" stroke="rgb(61,80,93)" stroke-width=".3"/><polygon points="111.59,71.00 101.20,77.00 106.39,80.00 116.78,74.00" fill="rgb(61,80,93)" stroke="rgb(61,80,93)" stroke-width=".3"/><polygon points="59.63,149.00 85.61,164.00 85.61,158.00 59.63,143.00" fill="rgb(122,121,98)" stroke="rgb(122,121,98)" stroke-width=".3"/><polygon points="121.98,95.00 106.39,104.00 111.59,107.00 127.18,98.00" fill="rgb(185,183,148)" stroke="rgb(185,183,148)" stroke-width=".3"/><polygon points="116.78,98.00 116.78,92.00 106.39,98.00 106.39,104.00" fill="rgb(48,62,72)" stroke="rgb(48,62,72)" stroke-width=".3"/><polygon points="132.37,149.00 132.37,107.00 127.18,110.00 127.18,152.00" fill="rgb(144,143,116)" stroke="rgb(144,143,116)" stroke-width=".3"/><polygon points="96.00,56.00 101.20,59.00 101.20,41.00 96.00,38.00" fill="rgb(40,53,61)" stroke="rgb(40,53,61)" stroke-width=".3"/><polygon points="127.18,152.00 127.18,146.00 106.39,158.00 106.39,164.00" fill="rgb(144,143,116)" stroke="rgb(144,143,116)" stroke-width=".3"/><polygon points="127.18,104.00 127.18,98.00 111.59,107.00 111.59,113.00" fill="rgb(144,143,116)" stroke="rgb(144,143,116)" stroke-width=".3"/><polygon points="70.02,95.00 64.82,98.00 85.61,110.00 90.80,107.00" fill="rgb(185,183,148)" stroke="rgb(185,183,148)" stroke-width=".3"/><polygon points="90.80,101.00 96.00,104.00 96.00,98.00 90.80,95.00" fill="rgb(122,121,98)" stroke="rgb(122,121,98)" stroke-width=".3"/><polygon points="90.80,101.00 90.80,95.00 85.61,98.00 85.61,104.00" fill="rgb(144,143,116)" stroke="rgb(144,143,116)" stroke-width=".3"/><polygon points="101.20,101.00 101.20,95.00 96.00,98.00 96.00,104.00" fill="rgb(144,143,116)" stroke="rgb(144,143,116)" stroke-width=".3"/><polygon points="101.20,101.00 106.39,104.00 106.39,80.00 101.20,77.00" fill="rgb(40,53,61)" stroke="rgb(40,53,61)" stroke-width=".3"/><polygon points="116.78,44.00 116.78,38.00 106.39,44.00 106.39,50.00" fill="rgb(48,62,72)" stroke="rgb(48,62,72)" stroke-width=".3"/><polygon points="59.63,149.00 75.22,158.00 75.22,152.00 59.63,143.00" fill="rgb(122,121,98)" stroke="rgb(122,121,98)" stroke-width=".3"/><polygon points="64.82,104.00 59.63,107.00 75.22,116.00 80.41,113.00" fill="rgb(185,183,148)" stroke="rgb(185,183,148)" stroke-width=".3"/><polygon points="127.18,104.00 111.59,113.00 116.78,116.00 132.37,107.00" fill="rgb(185,183,148)" stroke="rgb(185,183,148)" stroke-width=".3"/><polygon points="64.82,104.00 85.61,116.00 85.61,110.00 64.82,98.00" fill="rgb(122,121,98)" stroke="rgb(122,121,98)" stroke-width=".3"/><polygon points="54.43,140.00 80.41,155.00 80.41,149.00 54.43,134.00" fill="rgb(122,121,98)" stroke="rgb(122,121,98)" stroke-width=".3"/><polygon points="49.24,131.00 85.61,152.00 85.61,146.00 49.24,125.00" fill="rgb(122,121,98)" stroke="rgb(122,121,98)" stroke-width=".3"/><polygon points="121.98,95.00 121.98,89.00 111.59,95.00 111.59,101.00" fill="rgb(48,62,72)" stroke="rgb(48,62,72)" stroke-width=".3"/><polygon points="101.20,65.00 106.39,68.00 106.39,44.00 101.20,41.00" fill="rgb(40,53,61)" stroke="rgb(40,53,61)" stroke-width=".3"/><polygon points="116.78,44.00 106.39,50.00 111.59,53.00 121.98,47.00" fill="rgb(61,80,93)" stroke="rgb(61,80,93)" stroke-width=".3"/><polygon points="54.43,116.00 80.41,131.00 80.41,125.00 54.43,110.00" fill="rgb(122,121,98)" stroke="rgb(122,121,98)" stroke-width=".3"/><polygon points="127.18,128.00 127.18,110.00 121.98,113.00 121.98,131.00" fill="rgb(144,143,116)" stroke="rgb(144,143,116)" stroke-width=".3"/><polygon points="59.63,113.00 75.22,122.00 75.22,116.00 59.63,107.00" fill="rgb(122,121,98)" stroke="rgb(122,121,98)" stroke-width=".3"/><polygon points="127.18,152.00 127.18,134.00 116.78,140.00 116.78,158.00" fill="rgb(144,143,116)" stroke="rgb(144,143,116)" stroke-width=".3"/><polygon points="90.80,101.00 85.61,104.00 96.00,110.00 101.20,107.00" fill="rgb(185,183,148)" stroke="rgb(185,183,148)" stroke-width=".3"/><polygon points="101.20,101.00 96.00,104.00 106.39,110.00 111.59,107.00" fill="rgb(185,183,148)" stroke="rgb(185,183,148)" stroke-width=".3"/><polygon points="64.82,128.00 59.63,131.00 64.82,134.00 70.02,131.00" fill="rgb(185,183,148)" stroke="rgb(185,183,148)" stroke-width=".3"/><polygon points="127.18,128.00 121.98,131.00 127.18,134.00 132.37,131.00" fill="rgb(185,183,148)" stroke="rgb(185,183,148)" stroke-width=".3"/><polygon points="121.98,53.00 121.98,47.00 111.59,53.00 111.59,59.00" fill="rgb(48,62,72)" stroke="rgb(48,62,72)" stroke-width=".3"/><polygon points="106.39,98.00 111.59,101.00 111.59,83.00 106.39,80.00" fill="rgb(40,53,61)" stroke="rgb(40,53,61)" stroke-width=".3"/><polygon points="90.80,161.00 96.00,164.00 96.00,158.00 90.80,155.00" fill="rgb(122,121,98)" stroke="rgb(122,121,98)" stroke-width=".3"/><polygon points="101.20,161.00 101.20,155.00 96.00,158.00 96.00,164.00" fill="rgb(144,143,116)" stroke="rgb(144,143,116)" stroke-width=".3"/><polygon points="101.20,161.00 106.39,164.00 106.39,158.00 101.20,155.00" fill="rgb(122,121,98)" stroke="rgb(122,121,98)" stroke-width=".3"/><polygon points="90.80,161.00 90.80,155.00 85.61,158.00 85.61,164.00" fill="rgb(144,143,116)" stroke="rgb(144,143,116)" stroke-width=".3"/><polygon points="111.59,155.00 116.78,158.00 116.78,152.00 111.59,149.00" fill="rgb(122,121,98)" stroke="rgb(122,121,98)" stroke-width=".3"/><polygon points="80.41,155.00 80.41,149.00 75.22,152.00 75.22,158.00" fill="rgb(144,143,116)" stroke="rgb(144,143,116)" stroke-width=".3"/><polygon points="121.98,137.00 127.18,140.00 127.18,134.00 121.98,131.00" fill="rgb(122,121,98)" stroke="rgb(122,121,98)" stroke-width=".3"/><polygon points="70.02,137.00 70.02,131.00 64.82,134.00 64.82,140.00" fill="rgb(144,143,116)" stroke="rgb(144,143,116)" stroke-width=".3"/><polygon points="121.98,53.00 111.59,59.00 116.78,62.00 127.18,56.00" fill="rgb(61,80,93)" stroke="rgb(61,80,93)" stroke-width=".3"/><polygon points="59.63,137.00 64.82,140.00 64.82,134.00 59.63,131.00" fill="rgb(122,121,98)" stroke="rgb(122,121,98)" stroke-width=".3"/><polygon points="132.37,137.00 132.37,131.00 127.18,134.00 127.18,140.00" fill="rgb(144,143,116)" stroke="rgb(144,143,116)" stroke-width=".3"/><polygon points="106.39,56.00 111.59,59.00 111.59,53.00 106.39,50.00" fill="rgb(40,53,61)" stroke="rgb(40,53,61)" stroke-width=".3"/><polygon points="127.18,92.00 127.18,80.00 116.78,86.00 116.78,98.00" fill="rgb(48,62,72)" stroke="rgb(48,62,72)" stroke-width=".3"/><polygon points="121.98,137.00 121.98,113.00 116.78,116.00 116.78,140.00" fill="rgb(144,143,116)" stroke="rgb(144,143,116)" stroke-width=".3"/><polygon points="80.41,119.00 80.41,113.00 75.22,116.00 75.22,122.00" fill="rgb(144,143,116)" stroke="rgb(144,143,116)" stroke-width=".3"/><polygon points="111.59,119.00 116.78,122.00 116.78,116.00 111.59,113.00" fill="rgb(122,121,98)" stroke="rgb(122,121,98)" stroke-width=".3"/><polygon points="80.41,155.00 90.80,161.00 90.80,155.00 80.41,149.00" fill="rgb(122,121,98)" stroke="rgb(122,121,98)" stroke-width=".3"/><polygon points="111.59,155.00 111.59,149.00 101.20,155.00 101.20,161.00" fill="rgb(144,143,116)" stroke="rgb(144,143,116)" stroke-width=".3"/><polygon points="111.59,119.00 111.59,107.00 106.39,110.00 106.39,122.00" fill="rgb(144,143,116)" stroke="rgb(144,143,116)" stroke-width=".3"/><polygon points="90.80,113.00 96.00,116.00 96.00,110.00 90.80,107.00" fill="rgb(122,121,98)" stroke="rgb(122,121,98)" stroke-width=".3"/><polygon points="101.20,113.00 101.20,107.00 96.00,110.00 96.00,116.00" fill="rgb(144,143,116)" stroke="rgb(144,143,116)" stroke-width=".3"/><polygon points="101.20,113.00 106.39,116.00 106.39,110.00 101.20,107.00" fill="rgb(122,121,98)" stroke="rgb(122,121,98)" stroke-width=".3"/><polygon points="90.80,113.00 90.80,107.00 85.61,110.00 85.61,116.00" fill="rgb(144,143,116)" stroke="rgb(144,143,116)" stroke-width=".3"/><polygon points="106.39,80.00 116.78,86.00 116.78,62.00 106.39,56.00" fill="rgb(40,53,61)" stroke="rgb(40,53,61)" stroke-width=".3"/><polygon points="127.18,80.00 127.18,56.00 116.78,62.00 116.78,86.00" fill="rgb(48,62,72)" stroke="rgb(48,62,72)" stroke-width=".3"/><polygon points="64.82,128.00 85.61,140.00 85.61,134.00 64.82,122.00" fill="rgb(122,121,98)" stroke="rgb(122,121,98)" stroke-width=".3"/><polygon points="111.59,95.00 116.78,98.00 116.78,86.00 111.59,83.00" fill="rgb(40,53,61)" stroke="rgb(40,53,61)" stroke-width=".3"/><polygon points="80.41,119.00 75.22,122.00 80.41,125.00 85.61,122.00" fill="rgb(185,183,148)" stroke="rgb(185,183,148)" stroke-width=".3"/><polygon points="111.59,119.00 106.39,122.00 111.59,125.00 116.78,122.00" fill="rgb(185,183,148)" stroke="rgb(185,183,148)" stroke-width=".3"/><polygon points="80.41,119.00 90.80,125.00 90.80,119.00 80.41,113.00" fill="rgb(122,121,98)" stroke="rgb(122,121,98)" stroke-width=".3"/><polygon points="96.00,158.00 101.20,161.00 101.20,155.00 96.00,152.00" fill="rgb(122,121,98)" stroke="rgb(122,121,98)" stroke-width=".3"/><polygon points="96.00,158.00 96.00,152.00 90.80,155.00 90.80,161.00" fill="rgb(144,143,116)" stroke="rgb(144,143,116)" stroke-width=".3"/><polygon points="90.80,113.00 85.61,116.00 90.80,119.00 96.00,116.00" fill="rgb(185,183,148)" stroke="rgb(185,183,148)" stroke-width=".3"/><polygon points="101.20,113.00 96.00,116.00 101.20,119.00 106.39,116.00" fill="rgb(185,183,148)" stroke="rgb(185,183,148)" stroke-width=".3"/><polygon points="106.39,152.00 111.59,155.00 111.59,149.00 106.39,146.00" fill="rgb(122,121,98)" stroke="rgb(122,121,98)" stroke-width=".3"/><polygon points="85.61,152.00 85.61,146.00 80.41,149.00 80.41,155.00" fill="rgb(144,143,116)" stroke="rgb(144,143,116)" stroke-width=".3"/><polygon points="70.02,137.00 85.61,146.00 85.61,140.00 70.02,131.00" fill="rgb(122,121,98)" stroke="rgb(122,121,98)" stroke-width=".3"/><polygon points="116.78,152.00 116.78,122.00 111.59,125.00 111.59,155.00" fill="rgb(144,143,116)" stroke="rgb(144,143,116)" stroke-width=".3"/><polygon points="85.61,128.00 85.61,122.00 80.41,125.00 80.41,131.00" fill="rgb(144,143,116)" stroke="rgb(144,143,116)" stroke-width=".3"/><polygon points="106.39,128.00 111.59,131.00 111.59,125.00 106.39,122.00" fill="rgb(122,121,98)" stroke="rgb(122,121,98)" stroke-width=".3"/><polygon points="106.39,128.00 106.39,116.00 101.20,119.00 101.20,131.00" fill="rgb(144,143,116)" stroke="rgb(144,143,116)" stroke-width=".3"/><polygon points="96.00,122.00 96.00,116.00 90.80,119.00 90.80,125.00" fill="rgb(144,143,116)" stroke="rgb(144,143,116)" stroke-width=".3"/><polygon points="96.00,122.00 101.20,125.00 101.20,119.00 96.00,116.00" fill="rgb(122,121,98)" stroke="rgb(122,121,98)" stroke-width=".3"/><polygon points="85.61,152.00 96.00,158.00 96.00,152.00 85.61,146.00" fill="rgb(122,121,98)" stroke="rgb(122,121,98)" stroke-width=".3"/><polygon points="106.39,152.00 106.39,146.00 96.00,152.00 96.00,158.00" fill="rgb(144,143,116)" stroke="rgb(144,143,116)" stroke-width=".3"/><polygon points="85.61,128.00 80.41,131.00 85.61,134.00 90.80,131.00" fill="rgb(185,183,148)" stroke="rgb(185,183,148)" stroke-width=".3"/><polygon points="106.39,128.00 101.20,131.00 106.39,134.00 111.59,131.00" fill="rgb(185,183,148)" stroke="rgb(185,183,148)" stroke-width=".3"/><polygon points="85.61,128.00 96.00,134.00 96.00,128.00 85.61,122.00" fill="rgb(122,121,98)" stroke="rgb(122,121,98)" stroke-width=".3"/><polygon points="96.00,122.00 90.80,125.00 96.00,128.00 101.20,125.00" fill="rgb(185,183,148)" stroke="rgb(185,183,148)" stroke-width=".3"/><polygon points="111.59,149.00 111.59,131.00 106.39,134.00 106.39,152.00" fill="rgb(144,143,116)" stroke="rgb(144,143,116)" stroke-width=".3"/><polygon points="101.20,149.00 106.39,152.00 106.39,134.00 101.20,131.00" fill="rgb(122,121,98)" stroke="rgb(122,121,98)" stroke-width=".3"/><polygon points="90.80,149.00 90.80,131.00 85.61,134.00 85.61,152.00" fill="rgb(144,143,116)" stroke="rgb(144,143,116)" stroke-width=".3"/><polygon points="90.80,149.00 96.00,152.00 96.00,134.00 90.80,131.00" fill="rgb(122,121,98)" stroke="rgb(122,121,98)" stroke-width=".3"/><polygon points="101.20,149.00 101.20,125.00 96.00,128.00 96.00,152.00" fill="rgb(144,143,116)" stroke="rgb(144,143,116)" stroke-width=".3"/></svg>