<svg xmlns="http://www.w3.org/2000/svg" width="192" height="192" viewBox="0 0 192 192"><ellipse cx="96" cy="166" rx="53" ry="12" fill="#40594d" opacity=".1"/><polygon points="78.00,40.04 69.00,45.23 73.50,47.83 82.50,42.64" fill="rgb(243,199,101)" stroke="rgb(243,199,101)" stroke-width=".3"/><polygon points="78.00,50.43 24.00,81.61 33.00,86.80 87.00,55.63" fill="rgb(205,148,101)" stroke="rgb(205,148,101)" stroke-width=".3"/><polygon points="69.00,40.04 64.50,42.64 69.00,45.23 73.50,42.64" fill="rgb(255,255,232)" stroke="rgb(255,255,232)" stroke-width=".3"/><polygon points="82.50,42.64 78.00,45.23 96.00,55.63 100.50,53.03" fill="rgb(243,199,101)" stroke="rgb(243,199,101)" stroke-width=".3"/><polygon points="64.50,47.83 69.00,50.43 69.00,45.23 64.50,42.64" fill="rgb(178,171,153)" stroke="rgb(178,171,153)" stroke-width=".3"/><polygon points="64.50,47.83 60.00,50.43 64.50,53.03 69.00,50.43" fill="rgb(243,199,101)" stroke="rgb(243,199,101)" stroke-width=".3"/><polygon points="78.00,40.04 73.50,42.64 87.00,50.43 91.50,47.83" fill="rgb(255,246,206)" stroke="rgb(255,246,206)" stroke-width=".3"/><polygon points="73.50,42.64 69.00,45.23 82.50,53.03 87.00,50.43" fill="rgb(255,255,232)" stroke="rgb(255,255,232)" stroke-width=".3"/><polygon points="60.00,45.23 55.50,47.83 60.00,50.43 64.50,47.83" fill="rgb(255,255,232)" stroke="rgb(255,255,232)" stroke-width=".3"/><polygon points="55.50,53.03 60.00,55.63 60.00,50.43 55.50,47.83" fill="rgb(178,171,153)" stroke="rgb(178,171,153)" stroke-width=".3"/><polygon points="91.50,53.03 91.50,47.83 87.00,50.43 87.00,55.63" fill="rgb(202,192,161)" stroke="rgb(202,192,161)" stroke-width=".3"/><polygon points="55.50,53.03 51.00,55.63 55.50,58.22 60.00,55.63" fill="rgb(243,199,101)" stroke="rgb(243,199,101)" stroke-width=".3"/><polygon points="69.00,45.23 64.50,47.83 78.00,55.63 82.50,53.03" fill="rgb(255,246,206)" stroke="rgb(255,246,206)" stroke-width=".3"/><polygon points="87.00,55.63 87.00,50.43 82.50,53.03 82.50,58.22" fill="rgb(210,202,181)" stroke="rgb(210,202,181)" stroke-width=".3"/><polygon points="64.50,47.83 60.00,50.43 73.50,58.22 78.00,55.63" fill="rgb(255,255,232)" stroke="rgb(255,255,232)" stroke-width=".3"/><polygon points="51.00,50.43 46.50,53.03 51.00,55.63 55.50,53.03" fill="rgb(255,255,232)" stroke="rgb(255,255,232)" stroke-width=".3"/><polygon points="105.00,55.63 96.00,60.82 100.50,63.42 109.50,58.22" fill="rgb(243,199,101)" stroke="rgb(243,199,101)" stroke-width=".3"/><polygon points="46.50,58.22 51.00,60.82 51.00,55.63 46.50,53.03" fill="rgb(178,171,153)" stroke="rgb(178,171,153)" stroke-width=".3"/><polygon points="82.50,58.22 82.50,53.03 78.00,55.63 78.00,60.82" fill="rgb(202,192,161)" stroke="rgb(202,192,161)" stroke-width=".3"/><polygon points="87.00,55.63 78.00,60.82 159.00,107.59 168.00,102.39" fill="rgb(205,148,101)" stroke="rgb(205,148,101)" stroke-width=".3"/><polygon points="60.00,50.43 55.50,53.03 69.00,60.82 73.50,58.22" fill="rgb(255,246,206)" stroke="rgb(255,246,206)" stroke-width=".3"/><polygon points="46.50,58.22 37.50,63.42 42.00,66.02 51.00,60.82" fill="rgb(243,199,101)" stroke="rgb(243,199,101)" stroke-width=".3"/><polygon points="78.00,60.82 78.00,55.63 73.50,58.22 73.50,63.42" fill="rgb(210,202,181)" stroke="rgb(210,202,181)" stroke-width=".3"/><polygon points="91.50,53.03 60.00,71.21 64.50,73.81 96.00,55.63" fill="rgb(243,199,101)" stroke="rgb(243,199,101)" stroke-width=".3"/><polygon points="55.50,53.03 51.00,55.63 64.50,63.42 69.00,60.82" fill="rgb(255,255,232)" stroke="rgb(255,255,232)" stroke-width=".3"/><polygon points="96.00,55.63 91.50,58.22 96.00,60.82 100.50,58.22" fill="rgb(255,255,232)" stroke="rgb(255,255,232)" stroke-width=".3"/><polygon points="100.50,73.81 100.50,53.03 60.00,76.41 60.00,97.20" fill="rgb(190,156,79)" stroke="rgb(190,156,79)" stroke-width=".3"/><polygon points="109.50,58.22 105.00,60.82 123.00,71.21 127.50,68.62" fill="rgb(243,199,101)" stroke="rgb(243,199,101)" stroke-width=".3"/><polygon points="73.50,63.42 73.50,58.22 69.00,60.82 69.00,66.02" fill="rgb(202,192,161)" stroke="rgb(202,192,161)" stroke-width=".3"/><polygon points="91.50,63.42 96.00,66.02 96.00,60.82 91.50,58.22" fill="rgb(178,171,153)" stroke="rgb(178,171,153)" stroke-width=".3"/><polygon points="100.50,73.81 60.00,97.20 64.50,99.79 105.00,76.41" fill="rgb(205,148,101)" stroke="rgb(205,148,101)" stroke-width=".3"/><polygon points="91.50,63.42 87.00,66.02 91.50,68.62 96.00,66.02" fill="rgb(243,199,101)" stroke="rgb(243,199,101)" stroke-width=".3"/><polygon points="51.00,55.63 46.50,58.22 60.00,66.02 64.50,63.42" fill="rgb(255,246,206)" stroke="rgb(255,246,206)" stroke-width=".3"/><polygon points="105.00,55.63 100.50,58.22 114.00,66.02 118.50,63.42" fill="rgb(255,246,206)" stroke="rgb(255,246,206)" stroke-width=".3"/><polygon points="46.50,63.42 60.00,71.21 60.00,66.02 46.50,58.22" fill="rgb(171,163,136)" stroke="rgb(171,163,136)" stroke-width=".3"/><polygon points="69.00,66.02 69.00,60.82 64.50,63.42 64.50,68.62" fill="rgb(210,202,181)" stroke="rgb(210,202,181)" stroke-width=".3"/><polygon points="87.00,60.82 82.50,63.42 87.00,66.02 91.50,63.42" fill="rgb(255,255,232)" stroke="rgb(255,255,232)" stroke-width=".3"/><polygon points="100.50,58.22 96.00,60.82 109.50,68.62 114.00,66.02" fill="rgb(255,255,232)" stroke="rgb(255,255,232)" stroke-width=".3"/><polygon points="37.50,84.21 60.00,97.20 60.00,76.41 37.50,63.42" fill="rgb(161,132,67)" stroke="rgb(161,132,67)" stroke-width=".3"/><polygon points="46.50,63.42 42.00,66.02 60.00,76.41 64.50,73.81" fill="rgb(243,199,101)" stroke="rgb(243,199,101)" stroke-width=".3"/><polygon points="64.50,68.62 64.50,63.42 60.00,66.02 60.00,71.21" fill="rgb(202,192,161)" stroke="rgb(202,192,161)" stroke-width=".3"/><polygon points="118.50,68.62 118.50,63.42 114.00,66.02 114.00,71.21" fill="rgb(202,192,161)" stroke="rgb(202,192,161)" stroke-width=".3"/><polygon points="82.50,68.62 87.00,71.21 87.00,66.02 82.50,63.42" fill="rgb(178,171,153)" stroke="rgb(178,171,153)" stroke-width=".3"/><polygon points="82.50,68.62 78.00,71.21 82.50,73.81 87.00,71.21" fill="rgb(243,199,101)" stroke="rgb(243,199,101)" stroke-width=".3"/><polygon points="96.00,60.82 91.50,63.42 105.00,71.21 109.50,68.62" fill="rgb(255,246,206)" stroke="rgb(255,246,206)" stroke-width=".3"/><polygon points="114.00,71.21 114.00,66.02 109.50,68.62 109.50,73.81" fill="rgb(210,202,181)" stroke="rgb(210,202,181)" stroke-width=".3"/><polygon points="91.50,63.42 87.00,66.02 100.50,73.81 105.00,71.21" fill="rgb(255,255,232)" stroke="rgb(255,255,232)" stroke-width=".3"/><polygon points="78.00,66.02 73.50,68.62 78.00,71.21 82.50,68.62" fill="rgb(255,255,232)" stroke="rgb(255,255,232)" stroke-width=".3"/><polygon points="132.00,71.21 123.00,76.41 127.50,79.01 136.50,73.81" fill="rgb(243,199,101)" stroke="rgb(243,199,101)" stroke-width=".3"/><polygon points="73.50,73.81 78.00,76.41 78.00,71.21 73.50,68.62" fill="rgb(178,171,153)" stroke="rgb(178,171,153)" stroke-width=".3"/><polygon points="109.50,73.81 109.50,68.62 105.00,71.21 105.00,76.41" fill="rgb(202,192,161)" stroke="rgb(202,192,161)" stroke-width=".3"/><polygon points="87.00,66.02 82.50,68.62 96.00,76.41 100.50,73.81" fill="rgb(255,246,206)" stroke="rgb(255,246,206)" stroke-width=".3"/><polygon points="73.50,73.81 64.50,79.01 69.00,81.61 78.00,76.41" fill="rgb(243,199,101)" stroke="rgb(243,199,101)" stroke-width=".3"/><polygon points="105.00,76.41 105.00,71.21 100.50,73.81 100.50,79.01" fill="rgb(210,202,181)" stroke="rgb(210,202,181)" stroke-width=".3"/><polygon points="118.50,68.62 87.00,86.80 91.50,89.40 123.00,71.21" fill="rgb(243,199,101)" stroke="rgb(243,199,101)" stroke-width=".3"/><polygon points="82.50,68.62 78.00,71.21 91.50,79.01 96.00,76.41" fill="rgb(255,255,232)" stroke="rgb(255,255,232)" stroke-width=".3"/><polygon points="123.00,71.21 118.50,73.81 123.00,76.41 127.50,73.81" fill="rgb(255,255,232)" stroke="rgb(255,255,232)" stroke-width=".3"/><polygon points="127.50,89.40 127.50,68.62 87.00,92.00 87.00,112.79" fill="rgb(190,156,79)" stroke="rgb(190,156,79)" stroke-width=".3"/><polygon points="136.50,73.81 132.00,76.41 150.00,86.80 154.50,84.21" fill="rgb(243,199,101)" stroke="rgb(243,199,101)" stroke-width=".3"/><polygon points="100.50,79.01 100.50,73.81 96.00,76.41 96.00,81.61" fill="rgb(202,192,161)" stroke="rgb(202,192,161)" stroke-width=".3"/><polygon points="118.50,79.01 123.00,81.61 123.00,76.41 118.50,73.81" fill="rgb(178,171,153)" stroke="rgb(178,171,153)" stroke-width=".3"/><polygon points="127.50,89.40 87.00,112.79 91.50,115.38 132.00,92.00" fill="rgb(205,148,101)" stroke="rgb(205,148,101)" stroke-width=".3"/><polygon points="118.50,79.01 114.00,81.61 118.50,84.21 123.00,81.61" fill="rgb(243,199,101)" stroke="rgb(243,199,101)" stroke-width=".3"/><polygon points="78.00,71.21 73.50,73.81 87.00,81.61 91.50,79.01" fill="rgb(255,246,206)" stroke="rgb(255,246,206)" stroke-width=".3"/><polygon points="132.00,71.21 127.50,73.81 141.00,81.61 145.50,79.01" fill="rgb(255,246,206)" stroke="rgb(255,246,206)" stroke-width=".3"/><polygon points="73.50,79.01 87.00,86.80 87.00,81.61 73.50,73.81" fill="rgb(171,163,136)" stroke="rgb(171,163,136)" stroke-width=".3"/><polygon points="96.00,81.61 96.00,76.41 91.50,79.01 91.50,84.21" fill="rgb(210,202,181)" stroke="rgb(210,202,181)" stroke-width=".3"/><polygon points="127.50,73.81 123.00,76.41 136.50,84.21 141.00,81.61" fill="rgb(255,255,232)" stroke="rgb(255,255,232)" stroke-width=".3"/><polygon points="114.00,76.41 109.50,79.01 114.00,81.61 118.50,79.01" fill="rgb(255,255,232)" stroke="rgb(255,255,232)" stroke-width=".3"/><polygon points="64.50,99.79 87.00,112.79 87.00,92.00 64.50,79.01" fill="rgb(161,132,67)" stroke="rgb(161,132,67)" stroke-width=".3"/><polygon points="73.50,79.01 69.00,81.61 87.00,92.00 91.50,89.40" fill="rgb(243,199,101)" stroke="rgb(243,199,101)" stroke-width=".3"/><polygon points="91.50,84.21 91.50,79.01 87.00,81.61 87.00,86.80" fill="rgb(202,192,161)" stroke="rgb(202,192,161)" stroke-width=".3"/><polygon points="145.50,84.21 145.50,79.01 141.00,81.61 141.00,86.80" fill="rgb(202,192,161)" stroke="rgb(202,192,161)" stroke-width=".3"/><polygon points="109.50,84.21 114.00,86.80 114.00,81.61 109.50,79.01" fill="rgb(178,171,153)" stroke="rgb(178,171,153)" stroke-width=".3"/><polygon points="24.00,92.00 114.00,143.96 114.00,133.57 24.00,81.61" fill="rgb(135,98,67)" stroke="rgb(135,98,67)" stroke-width=".3"/><polygon points="109.50,84.21 105.00,86.80 109.50,89.40 114.00,86.80" fill="rgb(243,199,101)" stroke="rgb(243,199,101)" stroke-width=".3"/><polygon points="123.00,76.41 118.50,79.01 132.00,86.80 136.50,84.21" fill="rgb(255,246,206)" stroke="rgb(255,246,206)" stroke-width=".3"/><polygon points="37.50,84.21 33.00,86.80 114.00,133.57 118.50,130.97" fill="rgb(205,148,101)" stroke="rgb(205,148,101)" stroke-width=".3"/><polygon points="141.00,86.80 141.00,81.61 136.50,84.21 136.50,89.40" fill="rgb(210,202,181)" stroke="rgb(210,202,181)" stroke-width=".3"/><polygon points="118.50,79.01 114.00,81.61 127.50,89.40 132.00,86.80" fill="rgb(255,255,232)" stroke="rgb(255,255,232)" stroke-width=".3"/><polygon points="105.00,81.61 100.50,84.21 105.00,86.80 109.50,84.21" fill="rgb(255,255,232)" stroke="rgb(255,255,232)" stroke-width=".3"/><polygon points="136.50,89.40 136.50,84.21 132.00,86.80 132.00,92.00" fill="rgb(202,192,161)" stroke="rgb(202,192,161)" stroke-width=".3"/><polygon points="100.50,89.40 105.00,92.00 105.00,86.80 100.50,84.21" fill="rgb(178,171,153)" stroke="rgb(178,171,153)" stroke-width=".3"/><polygon points="114.00,81.61 109.50,84.21 123.00,92.00 127.50,89.40" fill="rgb(255,246,206)" stroke="rgb(255,246,206)" stroke-width=".3"/><polygon points="100.50,89.40 91.50,94.60 96.00,97.20 105.00,92.00" fill="rgb(243,199,101)" stroke="rgb(243,199,101)" stroke-width=".3"/><polygon points="132.00,92.00 132.00,86.80 127.50,89.40 127.50,94.60" fill="rgb(210,202,181)" stroke="rgb(210,202,181)" stroke-width=".3"/><polygon points="145.50,84.21 114.00,102.39 118.50,104.99 150.00,86.80" fill="rgb(243,199,101)" stroke="rgb(243,199,101)" stroke-width=".3"/><polygon points="109.50,84.21 105.00,86.80 118.50,94.60 123.00,92.00" fill="rgb(255,255,232)" stroke="rgb(255,255,232)" stroke-width=".3"/><polygon points="154.50,104.99 154.50,84.21 114.00,107.59 114.00,128.37" fill="rgb(190,156,79)" stroke="rgb(190,156,79)" stroke-width=".3"/><polygon points="127.50,94.60 127.50,89.40 123.00,92.00 123.00,97.20" fill="rgb(202,192,161)" stroke="rgb(202,192,161)" stroke-width=".3"/><polygon points="168.00,112.79 168.00,102.39 114.00,133.57 114.00,143.96" fill="rgb(160,116,79)" stroke="rgb(160,116,79)" stroke-width=".3"/><polygon points="154.50,104.99 114.00,128.37 118.50,130.97 159.00,107.59" fill="rgb(205,148,101)" stroke="rgb(205,148,101)" stroke-width=".3"/><polygon points="105.00,86.80 100.50,89.40 114.00,97.20 118.50,94.60" fill="rgb(255,246,206)" stroke="rgb(255,246,206)" stroke-width=".3"/><polygon points="123.00,97.20 123.00,92.00 118.50,94.60 118.50,99.79" fill="rgb(210,202,181)" stroke="rgb(210,202,181)" stroke-width=".3"/><polygon points="100.50,94.60 114.00,102.39 114.00,97.20 100.50,89.40" fill="rgb(171,163,136)" stroke="rgb(171,163,136)" stroke-width=".3"/><polygon points="91.50,115.38 114.00,128.37 114.00,107.59 91.50,94.60" fill="rgb(161,132,67)" stroke="rgb(161,132,67)" stroke-width=".3"/><polygon points="100.50,94.60 96.00,97.20 114.00,107.59 118.50,104.99" fill="rgb(243,199,101)" stroke="rgb(243,199,101)" stroke-width=".3"/><polygon points="118.50,99.79 118.50,94.60 114.00,97.20 114.00,102.39" fill="rgb(202,192,161)" stroke="rgb(202,192,161)" stroke-width=".3"/></svg>