<svg xmlns="http://www.w3.org/2000/svg" width="192" height="192" viewBox="0 0 192 192"><ellipse cx="96" cy="166" rx="53" ry="12" fill="#40594d" opacity=".1"/><polygon points="78.60,113.77 84.40,117.12 84.40,76.93 78.60,73.58" fill="rgb(40,53,61)" stroke="rgb(40,53,61)" stroke-width=".3"/><polygon points="90.20,113.77 90.20,73.58 84.40,76.93 84.40,117.12" fill="rgb(48,62,72)" stroke="rgb(48,62,72)" stroke-width=".3"/><polygon points="84.40,56.84 43.80,80.28 55.40,86.98 96.00,63.53" fill="rgb(205,148,101)" stroke="rgb(205,148,101)" stroke-width=".3"/><polygon points="78.60,60.19 81.50,61.86 81.50,25.02 78.60,23.35" fill="rgb(40,53,61)" stroke="rgb(40,53,61)" stroke-width=".3"/><polygon points="78.60,60.19 81.50,61.86 81.50,31.72 78.60,30.05" fill="rgb(101,144,148)" stroke="rgb(101,144,148)" stroke-width=".3"/><polygon points="78.60,63.53 98.90,75.26 98.90,71.91 78.60,60.19" fill="rgb(40,53,61)" stroke="rgb(40,53,61)" stroke-width=".3"/><polygon points="96.00,63.53 67.00,80.28 84.40,90.33 113.40,73.58" fill="rgb(205,148,101)" stroke="rgb(205,148,101)" stroke-width=".3"/><polygon points="81.50,48.47 78.60,50.14 90.20,56.84 93.10,55.16" fill="rgb(218,185,134)" stroke="rgb(218,185,134)" stroke-width=".3"/><polygon points="78.60,53.49 90.20,60.19 90.20,56.84 78.60,50.14" fill="rgb(144,122,89)" stroke="rgb(144,122,89)" stroke-width=".3"/><polygon points="81.50,38.42 78.60,40.09 96.00,50.14 98.90,48.47" fill="rgb(255,255,232)" stroke="rgb(255,255,232)" stroke-width=".3"/><polygon points="78.60,43.44 96.00,53.49 96.00,50.14 78.60,40.09" fill="rgb(178,171,153)" stroke="rgb(178,171,153)" stroke-width=".3"/><polygon points="81.50,58.51 78.60,60.19 101.80,73.58 104.70,71.91" fill="rgb(255,255,232)" stroke="rgb(255,255,232)" stroke-width=".3"/><polygon points="93.10,58.51 93.10,55.16 90.20,56.84 90.20,60.19" fill="rgb(170,144,105)" stroke="rgb(170,144,105)" stroke-width=".3"/><polygon points="84.40,20.00 78.60,23.35 125.00,50.14 130.80,46.79" fill="rgb(61,80,93)" stroke="rgb(61,80,93)" stroke-width=".3"/><polygon points="49.60,130.51 55.40,133.86 55.40,93.67 49.60,90.33" fill="rgb(40,53,61)" stroke="rgb(40,53,61)" stroke-width=".3"/><polygon points="61.20,130.51 61.20,90.33 55.40,93.67 55.40,133.86" fill="rgb(48,62,72)" stroke="rgb(48,62,72)" stroke-width=".3"/><polygon points="78.60,63.53 101.80,76.93 101.80,73.58 78.60,60.19" fill="rgb(178,171,153)" stroke="rgb(178,171,153)" stroke-width=".3"/><polygon points="107.60,83.63 107.60,76.93 101.80,80.28 101.80,86.98" fill="rgb(48,62,72)" stroke="rgb(48,62,72)" stroke-width=".3"/><polygon points="96.00,83.63 101.80,86.98 101.80,76.93 96.00,73.58" fill="rgb(40,53,61)" stroke="rgb(40,53,61)" stroke-width=".3"/><polygon points="78.60,63.53 119.20,86.98 119.20,83.63 78.60,60.19" fill="rgb(101,144,148)" stroke="rgb(101,144,148)" stroke-width=".3"/><polygon points="81.50,28.37 78.60,30.05 119.20,53.49 122.10,51.81" fill="rgb(153,218,223)" stroke="rgb(153,218,223)" stroke-width=".3"/><polygon points="81.50,28.37 125.00,53.49 125.00,50.14 81.50,25.02" fill="rgb(40,53,61)" stroke="rgb(40,53,61)" stroke-width=".3"/><polygon points="104.70,78.60 104.70,75.26 101.80,76.93 101.80,80.28" fill="rgb(48,62,72)" stroke="rgb(48,62,72)" stroke-width=".3"/><polygon points="81.50,58.51 119.20,80.28 119.20,73.58 81.50,51.81" fill="rgb(101,144,148)" stroke="rgb(101,144,148)" stroke-width=".3"/><polygon points="113.40,73.58 101.80,80.28 136.60,100.37 148.20,93.67" fill="rgb(205,148,101)" stroke="rgb(205,148,101)" stroke-width=".3"/><polygon points="81.50,48.47 119.20,70.23 119.20,63.53 81.50,41.77" fill="rgb(101,144,148)" stroke="rgb(101,144,148)" stroke-width=".3"/><polygon points="98.90,51.81 98.90,48.47 96.00,50.14 96.00,53.49" fill="rgb(210,202,181)" stroke="rgb(210,202,181)" stroke-width=".3"/><polygon points="81.50,38.42 119.20,60.19 119.20,53.49 81.50,31.72" fill="rgb(101,144,148)" stroke="rgb(101,144,148)" stroke-width=".3"/><polygon points="104.70,75.26 104.70,71.91 101.80,73.58 101.80,76.93" fill="rgb(210,202,181)" stroke="rgb(210,202,181)" stroke-width=".3"/><polygon points="93.10,58.51 119.20,73.58 119.20,70.23 93.10,55.16" fill="rgb(101,144,148)" stroke="rgb(101,144,148)" stroke-width=".3"/><polygon points="104.70,78.60 125.00,90.33 125.00,86.98 104.70,75.26" fill="rgb(40,53,61)" stroke="rgb(40,53,61)" stroke-width=".3"/><polygon points="98.90,51.81 119.20,63.53 119.20,60.19 98.90,48.47" fill="rgb(101,144,148)" stroke="rgb(101,144,148)" stroke-width=".3"/><polygon points="104.70,75.26 119.20,83.63 119.20,80.28 104.70,71.91" fill="rgb(101,144,148)" stroke="rgb(101,144,148)" stroke-width=".3"/><polygon points="107.60,83.63 101.80,86.98 130.80,103.72 136.60,100.37" fill="rgb(205,148,101)" stroke="rgb(205,148,101)" stroke-width=".3"/><polygon points="67.00,76.93 55.40,83.63 90.20,103.72 101.80,97.02" fill="rgb(218,185,134)" stroke="rgb(218,185,134)" stroke-width=".3"/><polygon points="130.80,86.98 130.80,46.79 125.00,50.14 125.00,90.33" fill="rgb(48,62,72)" stroke="rgb(48,62,72)" stroke-width=".3"/><polygon points="96.00,83.63 84.40,90.33 119.20,110.42 130.80,103.72" fill="rgb(205,148,101)" stroke="rgb(205,148,101)" stroke-width=".3"/><polygon points="55.40,86.98 90.20,107.07 90.20,103.72 55.40,83.63" fill="rgb(144,122,89)" stroke="rgb(144,122,89)" stroke-width=".3"/><polygon points="122.10,85.30 125.00,86.98 125.00,53.49 122.10,51.81" fill="rgb(40,53,61)" stroke="rgb(40,53,61)" stroke-width=".3"/><polygon points="122.10,85.30 122.10,51.81 119.20,53.49 119.20,86.98" fill="rgb(119,170,174)" stroke="rgb(119,170,174)" stroke-width=".3"/><polygon points="142.40,143.91 142.40,103.72 136.60,107.07 136.60,147.26" fill="rgb(48,62,72)" stroke="rgb(48,62,72)" stroke-width=".3"/><polygon points="130.80,143.91 136.60,147.26 136.60,107.07 130.80,103.72" fill="rgb(40,53,61)" stroke="rgb(40,53,61)" stroke-width=".3"/><polygon points="43.80,86.98 107.60,123.81 107.60,117.12 43.80,80.28" fill="rgb(135,98,67)" stroke="rgb(135,98,67)" stroke-width=".3"/><polygon points="101.80,100.37 101.80,97.02 90.20,103.72 90.20,107.07" fill="rgb(170,144,105)" stroke="rgb(170,144,105)" stroke-width=".3"/><polygon points="148.20,100.37 148.20,93.67 107.60,117.12 107.60,123.81" fill="rgb(160,116,79)" stroke="rgb(160,116,79)" stroke-width=".3"/><polygon points="101.80,100.37 90.20,107.07 96.00,110.42 107.60,103.72" fill="rgb(205,148,101)" stroke="rgb(205,148,101)" stroke-width=".3"/><polygon points="107.60,100.37 98.90,105.40 104.70,108.74 113.40,103.72" fill="rgb(255,255,232)" stroke="rgb(255,255,232)" stroke-width=".3"/><polygon points="113.40,107.07 113.40,103.72 104.70,108.74 104.70,112.09" fill="rgb(210,202,181)" stroke="rgb(210,202,181)" stroke-width=".3"/><polygon points="98.90,108.74 104.70,112.09 104.70,108.74 98.90,105.40" fill="rgb(178,171,153)" stroke="rgb(178,171,153)" stroke-width=".3"/><polygon points="113.40,107.07 104.70,112.09 110.50,115.44 119.20,110.42" fill="rgb(205,148,101)" stroke="rgb(205,148,101)" stroke-width=".3"/><polygon points="98.90,108.74 96.00,110.42 107.60,117.12 110.50,115.44" fill="rgb(205,148,101)" stroke="rgb(205,148,101)" stroke-width=".3"/><polygon points="113.40,160.65 113.40,120.47 107.60,123.81 107.60,164.00" fill="rgb(48,62,72)" stroke="rgb(48,62,72)" stroke-width=".3"/><polygon points="101.80,160.65 107.60,164.00 107.60,123.81 101.80,120.47" fill="rgb(40,53,61)" stroke="rgb(40,53,61)" stroke-width=".3"/></svg>