<svg xmlns="http://www.w3.org/2000/svg" width="192" height="192" viewBox="0 0 192 192"><ellipse cx="96" cy="166" rx="53" ry="12" fill="#40594d" opacity=".1"/><polygon points="84.87,20.00 49.24,40.57 62.60,48.29 98.23,27.71" fill="rgb(234,184,130)" stroke="rgb(234,184,130)" stroke-width=".3"/><polygon points="120.50,117.71 116.04,120.29 120.50,122.86 124.95,120.29" fill="rgb(61,80,93)" stroke="rgb(61,80,93)" stroke-width=".3"/><polygon points="93.77,112.57 80.41,120.29 93.77,128.00 107.13,120.29" fill="rgb(61,80,93)" stroke="rgb(61,80,93)" stroke-width=".3"/><polygon points="71.50,130.57 75.96,133.14 75.96,122.86 71.50,120.29" fill="rgb(40,53,61)" stroke="rgb(40,53,61)" stroke-width=".3"/><polygon points="124.95,130.57 124.95,120.29 120.50,122.86 120.50,133.14" fill="rgb(48,62,72)" stroke="rgb(48,62,72)" stroke-width=".3"/><polygon points="102.68,112.57 98.23,115.14 129.40,133.14 133.86,130.57" fill="rgb(61,80,93)" stroke="rgb(61,80,93)" stroke-width=".3"/><polygon points="75.96,117.71 71.50,120.29 89.32,130.57 93.77,128.00" fill="rgb(61,80,93)" stroke="rgb(61,80,93)" stroke-width=".3"/><polygon points="49.24,81.71 67.05,92.00 67.05,50.86 49.24,40.57" fill="rgb(155,122,86)" stroke="rgb(155,122,86)" stroke-width=".3"/><polygon points="107.13,120.29 98.23,125.43 124.95,140.86 133.86,135.71" fill="rgb(61,80,93)" stroke="rgb(61,80,93)" stroke-width=".3"/><polygon points="98.23,27.71 84.87,35.43 133.86,63.71 147.22,56.00" fill="rgb(234,184,130)" stroke="rgb(234,184,130)" stroke-width=".3"/><polygon points="62.60,140.86 67.05,143.43 67.05,133.14 62.60,130.57" fill="rgb(40,53,61)" stroke="rgb(40,53,61)" stroke-width=".3"/><polygon points="133.86,140.86 133.86,130.57 129.40,133.14 129.40,143.43" fill="rgb(48,62,72)" stroke="rgb(48,62,72)" stroke-width=".3"/><polygon points="89.32,130.57 98.23,135.71 98.23,99.71 89.32,94.57" fill="rgb(94,106,109)" stroke="rgb(94,106,109)" stroke-width=".3"/><polygon points="107.13,130.57 107.13,94.57 98.23,99.71 98.23,135.71" fill="rgb(111,125,128)" stroke="rgb(111,125,128)" stroke-width=".3"/><polygon points="84.87,25.14 67.05,35.43 102.68,56.00 120.50,45.71" fill="rgb(61,80,93)" stroke="rgb(61,80,93)" stroke-width=".3"/><polygon points="75.96,122.86 62.60,130.57 102.68,153.71 116.04,146.00" fill="rgb(61,80,93)" stroke="rgb(61,80,93)" stroke-width=".3"/><polygon points="107.13,130.57 98.23,135.71 116.04,146.00 124.95,140.86" fill="rgb(61,80,93)" stroke="rgb(61,80,93)" stroke-width=".3"/><polygon points="62.60,146.00 75.96,153.71 75.96,143.43 62.60,135.71" fill="rgb(40,53,61)" stroke="rgb(40,53,61)" stroke-width=".3"/><polygon points="133.86,146.00 133.86,135.71 120.50,143.43 120.50,153.71" fill="rgb(48,62,72)" stroke="rgb(48,62,72)" stroke-width=".3"/><polygon points="67.05,45.71 102.68,66.29 102.68,56.00 67.05,35.43" fill="rgb(40,53,61)" stroke="rgb(40,53,61)" stroke-width=".3"/><polygon points="49.24,86.86 111.59,122.86 111.59,117.71 49.24,81.71" fill="rgb(155,122,86)" stroke="rgb(155,122,86)" stroke-width=".3"/><polygon points="67.05,133.14 62.60,135.71 93.77,153.71 98.23,151.14" fill="rgb(61,80,93)" stroke="rgb(61,80,93)" stroke-width=".3"/><polygon points="75.96,143.43 71.50,146.00 75.96,148.57 80.41,146.00" fill="rgb(61,80,93)" stroke="rgb(61,80,93)" stroke-width=".3"/><polygon points="120.50,143.43 116.04,146.00 120.50,148.57 124.95,146.00" fill="rgb(61,80,93)" stroke="rgb(61,80,93)" stroke-width=".3"/><polygon points="67.05,45.71 62.60,48.29 111.59,76.57 116.04,74.00" fill="rgb(234,184,130)" stroke="rgb(234,184,130)" stroke-width=".3"/><polygon points="120.50,56.00 120.50,45.71 102.68,56.00 102.68,66.29" fill="rgb(48,62,72)" stroke="rgb(48,62,72)" stroke-width=".3"/><polygon points="71.50,156.29 75.96,158.86 75.96,148.57 71.50,146.00" fill="rgb(40,53,61)" stroke="rgb(40,53,61)" stroke-width=".3"/><polygon points="124.95,156.29 124.95,146.00 120.50,148.57 120.50,158.86" fill="rgb(48,62,72)" stroke="rgb(48,62,72)" stroke-width=".3"/><polygon points="116.04,156.29 120.50,158.86 120.50,148.57 116.04,146.00" fill="rgb(40,53,61)" stroke="rgb(40,53,61)" stroke-width=".3"/><polygon points="80.41,156.29 80.41,146.00 75.96,148.57 75.96,158.86" fill="rgb(48,62,72)" stroke="rgb(48,62,72)" stroke-width=".3"/><polygon points="67.05,61.14 111.59,86.86 111.59,76.57 67.05,50.86" fill="rgb(155,122,86)" stroke="rgb(155,122,86)" stroke-width=".3"/><polygon points="80.41,156.29 93.77,164.00 93.77,153.71 80.41,146.00" fill="rgb(40,53,61)" stroke="rgb(40,53,61)" stroke-width=".3"/><polygon points="116.04,156.29 116.04,146.00 102.68,153.71 102.68,164.00" fill="rgb(48,62,72)" stroke="rgb(48,62,72)" stroke-width=".3"/><polygon points="44.78,99.71 49.24,102.29 49.24,76.57 44.78,74.00" fill="rgb(40,53,61)" stroke="rgb(40,53,61)" stroke-width=".3"/><polygon points="67.05,61.14 44.78,74.00 71.50,89.43 93.77,76.57" fill="rgb(61,80,93)" stroke="rgb(61,80,93)" stroke-width=".3"/><polygon points="120.50,56.00 102.68,66.29 116.04,74.00 133.86,63.71" fill="rgb(234,184,130)" stroke="rgb(234,184,130)" stroke-width=".3"/><polygon points="147.22,102.29 147.22,56.00 111.59,76.57 111.59,122.86" fill="rgb(183,144,101)" stroke="rgb(183,144,101)" stroke-width=".3"/><polygon points="98.23,161.43 102.68,164.00 102.68,153.71 98.23,151.14" fill="rgb(40,53,61)" stroke="rgb(40,53,61)" stroke-width=".3"/><polygon points="98.23,161.43 98.23,151.14 93.77,153.71 93.77,164.00" fill="rgb(48,62,72)" stroke="rgb(48,62,72)" stroke-width=".3"/><polygon points="44.78,104.86 71.50,120.29 71.50,115.14 44.78,99.71" fill="rgb(40,53,61)" stroke="rgb(40,53,61)" stroke-width=".3"/><polygon points="93.77,107.43 111.59,117.71 111.59,86.86 93.77,76.57" fill="rgb(155,122,86)" stroke="rgb(155,122,86)" stroke-width=".3"/><polygon points="93.77,107.43 93.77,76.57 71.50,89.43 71.50,120.29" fill="rgb(48,62,72)" stroke="rgb(48,62,72)" stroke-width=".3"/><polygon points="49.24,81.71 44.78,84.29 62.60,94.57 67.05,92.00" fill="rgb(153,218,223)" stroke="rgb(153,218,223)" stroke-width=".3"/><polygon points="49.24,81.71 71.50,94.57 71.50,89.43 49.24,76.57" fill="rgb(40,53,61)" stroke="rgb(40,53,61)" stroke-width=".3"/><polygon points="44.78,104.86 62.60,115.14 62.60,94.57 44.78,84.29" fill="rgb(101,144,148)" stroke="rgb(101,144,148)" stroke-width=".3"/><polygon points="67.05,112.57 67.05,92.00 62.60,94.57 62.60,115.14" fill="rgb(119,170,174)" stroke="rgb(119,170,174)" stroke-width=".3"/><polygon points="67.05,112.57 71.50,115.14 71.50,94.57 67.05,92.00" fill="rgb(40,53,61)" stroke="rgb(40,53,61)" stroke-width=".3"/></svg>