<svg xmlns="http://www.w3.org/2000/svg" width="192" height="192" viewBox="0 0 192 192"><ellipse cx="96" cy="166" rx="53" ry="12" fill="#40594d" opacity=".1"/><polygon points="92.00,48.12 76.00,57.36 80.00,59.67 96.00,50.43" fill="rgb(231,175,140)" stroke="rgb(231,175,140)" stroke-width=".3"/><polygon points="88.00,45.81 60.00,61.98 64.00,64.29 92.00,48.12" fill="rgb(231,175,140)" stroke="rgb(231,175,140)" stroke-width=".3"/><polygon points="96.00,50.43 84.00,57.36 88.00,59.67 100.00,52.74" fill="rgb(231,175,140)" stroke="rgb(231,175,140)" stroke-width=".3"/><polygon points="100.00,52.74 92.00,57.36 104.00,64.29 112.00,59.67" fill="rgb(231,175,140)" stroke="rgb(231,175,140)" stroke-width=".3"/><polygon points="80.00,41.19 24.00,73.52 32.00,78.14 88.00,45.81" fill="rgb(231,175,140)" stroke="rgb(231,175,140)" stroke-width=".3"/><polygon points="108.00,57.36 104.00,59.67 108.00,61.98 112.00,59.67" fill="rgb(61,80,93)" stroke="rgb(61,80,93)" stroke-width=".3"/><polygon points="56.00,64.29 60.00,66.60 60.00,61.98 56.00,59.67" fill="rgb(40,53,61)" stroke="rgb(40,53,61)" stroke-width=".3"/><polygon points="112.00,64.29 112.00,59.67 108.00,61.98 108.00,66.60" fill="rgb(48,62,72)" stroke="rgb(48,62,72)" stroke-width=".3"/><polygon points="76.00,52.74 64.00,59.67 80.00,68.91 92.00,61.98" fill="rgb(61,80,93)" stroke="rgb(61,80,93)" stroke-width=".3"/><polygon points="92.00,52.74 88.00,55.05 116.00,71.21 120.00,68.91" fill="rgb(61,80,93)" stroke="rgb(61,80,93)" stroke-width=".3"/><polygon points="60.00,57.36 56.00,59.67 72.00,68.91 76.00,66.60" fill="rgb(61,80,93)" stroke="rgb(61,80,93)" stroke-width=".3"/><polygon points="84.00,52.74 80.00,55.05 116.00,75.83 120.00,73.52" fill="rgb(61,80,93)" stroke="rgb(61,80,93)" stroke-width=".3"/><polygon points="92.00,61.98 84.00,66.60 88.00,68.91 96.00,64.29" fill="rgb(61,80,93)" stroke="rgb(61,80,93)" stroke-width=".3"/><polygon points="56.00,64.29 32.00,78.14 36.00,80.45 60.00,66.60" fill="rgb(231,175,140)" stroke="rgb(231,175,140)" stroke-width=".3"/><polygon points="92.00,61.98 88.00,64.29 92.00,66.60 96.00,64.29" fill="rgb(255,255,232)" stroke="rgb(255,255,232)" stroke-width=".3"/><polygon points="48.00,73.52 52.00,75.83 52.00,71.21 48.00,68.91" fill="rgb(40,53,61)" stroke="rgb(40,53,61)" stroke-width=".3"/><polygon points="120.00,73.52 120.00,68.91 116.00,71.21 116.00,75.83" fill="rgb(48,62,72)" stroke="rgb(48,62,72)" stroke-width=".3"/><polygon points="60.00,61.98 48.00,68.91 64.00,78.14 76.00,71.21" fill="rgb(61,80,93)" stroke="rgb(61,80,93)" stroke-width=".3"/><polygon points="72.00,68.91 76.00,71.21 76.00,66.60 72.00,64.29" fill="rgb(178,171,153)" stroke="rgb(178,171,153)" stroke-width=".3"/><polygon points="96.00,68.91 96.00,64.29 92.00,66.60 92.00,71.21" fill="rgb(210,202,181)" stroke="rgb(210,202,181)" stroke-width=".3"/><polygon points="84.00,61.98 80.00,64.29 92.00,71.21 96.00,68.91" fill="rgb(255,255,232)" stroke="rgb(255,255,232)" stroke-width=".3"/><polygon points="112.00,59.67 108.00,61.98 164.00,94.31 168.00,92.00" fill="rgb(231,175,140)" stroke="rgb(231,175,140)" stroke-width=".3"/><polygon points="96.00,64.29 92.00,66.60 116.00,80.45 120.00,78.14" fill="rgb(61,80,93)" stroke="rgb(61,80,93)" stroke-width=".3"/><polygon points="48.00,73.52 36.00,80.45 40.00,82.76 52.00,75.83" fill="rgb(231,175,140)" stroke="rgb(231,175,140)" stroke-width=".3"/><polygon points="76.00,61.98 72.00,64.29 92.00,75.83 96.00,73.52" fill="rgb(255,255,232)" stroke="rgb(255,255,232)" stroke-width=".3"/><polygon points="120.00,78.14 120.00,73.52 116.00,75.83 116.00,80.45" fill="rgb(48,62,72)" stroke="rgb(48,62,72)" stroke-width=".3"/><polygon points="48.00,78.14 52.00,80.45 52.00,75.83 48.00,73.52" fill="rgb(40,53,61)" stroke="rgb(40,53,61)" stroke-width=".3"/><polygon points="72.00,73.52 76.00,75.83 76.00,71.21 72.00,68.91" fill="rgb(178,171,153)" stroke="rgb(178,171,153)" stroke-width=".3"/><polygon points="96.00,73.52 96.00,68.91 92.00,71.21 92.00,75.83" fill="rgb(210,202,181)" stroke="rgb(210,202,181)" stroke-width=".3"/><polygon points="112.00,64.29 108.00,66.60 160.00,96.62 164.00,94.31" fill="rgb(231,175,140)" stroke="rgb(231,175,140)" stroke-width=".3"/><polygon points="96.00,68.91 92.00,71.21 112.00,82.76 116.00,80.45" fill="rgb(61,80,93)" stroke="rgb(61,80,93)" stroke-width=".3"/><polygon points="76.00,66.60 72.00,68.91 84.00,75.83 88.00,73.52" fill="rgb(255,255,232)" stroke="rgb(255,255,232)" stroke-width=".3"/><polygon points="120.00,73.52 116.00,75.83 140.00,89.69 144.00,87.38" fill="rgb(231,175,140)" stroke="rgb(231,175,140)" stroke-width=".3"/><polygon points="48.00,78.14 40.00,82.76 44.00,85.07 52.00,80.45" fill="rgb(231,175,140)" stroke="rgb(231,175,140)" stroke-width=".3"/><polygon points="72.00,73.52 64.00,78.14 68.00,80.45 76.00,75.83" fill="rgb(61,80,93)" stroke="rgb(61,80,93)" stroke-width=".3"/><polygon points="76.00,71.21 72.00,73.52 76.00,75.83 80.00,73.52" fill="rgb(255,255,232)" stroke="rgb(255,255,232)" stroke-width=".3"/><polygon points="96.00,73.52 92.00,75.83 108.00,85.07 112.00,82.76" fill="rgb(61,80,93)" stroke="rgb(61,80,93)" stroke-width=".3"/><polygon points="88.00,78.14 92.00,80.45 92.00,75.83 88.00,73.52" fill="rgb(178,171,153)" stroke="rgb(178,171,153)" stroke-width=".3"/><polygon points="80.00,78.14 84.00,80.45 84.00,75.83 80.00,73.52" fill="rgb(178,171,153)" stroke="rgb(178,171,153)" stroke-width=".3"/><polygon points="80.00,78.14 80.00,73.52 76.00,75.83 76.00,80.45" fill="rgb(210,202,181)" stroke="rgb(210,202,181)" stroke-width=".3"/><polygon points="72.00,78.14 76.00,80.45 76.00,75.83 72.00,73.52" fill="rgb(178,171,153)" stroke="rgb(178,171,153)" stroke-width=".3"/><polygon points="88.00,78.14 88.00,73.52 84.00,75.83 84.00,80.45" fill="rgb(210,202,181)" stroke="rgb(210,202,181)" stroke-width=".3"/><polygon points="96.00,78.14 96.00,73.52 92.00,75.83 92.00,80.45" fill="rgb(210,202,181)" stroke="rgb(210,202,181)" stroke-width=".3"/><polygon points="120.00,78.14 116.00,80.45 136.00,92.00 140.00,89.69" fill="rgb(231,175,140)" stroke="rgb(231,175,140)" stroke-width=".3"/><polygon points="48.00,82.76 60.00,89.69 60.00,85.07 48.00,78.14" fill="rgb(40,53,61)" stroke="rgb(40,53,61)" stroke-width=".3"/><polygon points="120.00,82.76 120.00,78.14 108.00,85.07 108.00,89.69" fill="rgb(48,62,72)" stroke="rgb(48,62,72)" stroke-width=".3"/><polygon points="48.00,82.76 44.00,85.07 56.00,92.00 60.00,89.69" fill="rgb(231,175,140)" stroke="rgb(231,175,140)" stroke-width=".3"/><polygon points="52.00,71.21 48.00,73.52 84.00,94.31 88.00,92.00" fill="rgb(61,80,93)" stroke="rgb(61,80,93)" stroke-width=".3"/><polygon points="88.00,78.14 84.00,80.45 100.00,89.69 104.00,87.38" fill="rgb(61,80,93)" stroke="rgb(61,80,93)" stroke-width=".3"/><polygon points="96.00,78.14 92.00,80.45 108.00,89.69 112.00,87.38" fill="rgb(61,80,93)" stroke="rgb(61,80,93)" stroke-width=".3"/><polygon points="80.00,78.14 76.00,80.45 96.00,92.00 100.00,89.69" fill="rgb(61,80,93)" stroke="rgb(61,80,93)" stroke-width=".3"/><polygon points="52.00,75.83 48.00,78.14 76.00,94.31 80.00,92.00" fill="rgb(61,80,93)" stroke="rgb(61,80,93)" stroke-width=".3"/><polygon points="120.00,82.76 108.00,89.69 124.00,98.93 136.00,92.00" fill="rgb(231,175,140)" stroke="rgb(231,175,140)" stroke-width=".3"/><polygon points="72.00,78.14 68.00,80.45 92.00,94.31 96.00,92.00" fill="rgb(61,80,93)" stroke="rgb(61,80,93)" stroke-width=".3"/><polygon points="60.00,85.07 56.00,87.38 60.00,89.69 64.00,87.38" fill="rgb(61,80,93)" stroke="rgb(61,80,93)" stroke-width=".3"/><polygon points="104.00,92.00 108.00,94.31 108.00,89.69 104.00,87.38" fill="rgb(40,53,61)" stroke="rgb(40,53,61)" stroke-width=".3"/><polygon points="112.00,92.00 112.00,87.38 108.00,89.69 108.00,94.31" fill="rgb(48,62,72)" stroke="rgb(48,62,72)" stroke-width=".3"/><polygon points="64.00,92.00 64.00,87.38 60.00,89.69 60.00,94.31" fill="rgb(48,62,72)" stroke="rgb(48,62,72)" stroke-width=".3"/><polygon points="56.00,92.00 60.00,94.31 60.00,89.69 56.00,87.38" fill="rgb(40,53,61)" stroke="rgb(40,53,61)" stroke-width=".3"/><polygon points="64.00,92.00 76.00,98.93 76.00,94.31 64.00,87.38" fill="rgb(40,53,61)" stroke="rgb(40,53,61)" stroke-width=".3"/><polygon points="104.00,92.00 104.00,87.38 92.00,94.31 92.00,98.93" fill="rgb(48,62,72)" stroke="rgb(48,62,72)" stroke-width=".3"/><polygon points="112.00,92.00 108.00,94.31 120.00,101.24 124.00,98.93" fill="rgb(231,175,140)" stroke="rgb(231,175,140)" stroke-width=".3"/><polygon points="88.00,96.62 92.00,98.93 92.00,94.31 88.00,92.00" fill="rgb(40,53,61)" stroke="rgb(40,53,61)" stroke-width=".3"/><polygon points="80.00,96.62 80.00,92.00 76.00,94.31 76.00,98.93" fill="rgb(48,62,72)" stroke="rgb(48,62,72)" stroke-width=".3"/><polygon points="88.00,96.62 88.00,92.00 84.00,94.31 84.00,98.93" fill="rgb(48,62,72)" stroke="rgb(48,62,72)" stroke-width=".3"/><polygon points="80.00,96.62 84.00,98.93 84.00,94.31 80.00,92.00" fill="rgb(40,53,61)" stroke="rgb(40,53,61)" stroke-width=".3"/><polygon points="148.00,89.69 148.00,75.83 120.00,92.00 120.00,105.86" fill="rgb(111,125,128)" stroke="rgb(111,125,128)" stroke-width=".3"/><polygon points="24.00,92.00 112.00,142.81 112.00,124.33 24.00,73.52" fill="rgb(153,116,92)" stroke="rgb(153,116,92)" stroke-width=".3"/><polygon points="104.00,92.00 92.00,98.93 108.00,108.17 120.00,101.24" fill="rgb(231,175,140)" stroke="rgb(231,175,140)" stroke-width=".3"/><polygon points="144.00,73.52 104.00,96.62 108.00,98.93 148.00,75.83" fill="rgb(143,160,165)" stroke="rgb(143,160,165)" stroke-width=".3"/><polygon points="148.00,89.69 120.00,105.86 132.00,112.79 160.00,96.62" fill="rgb(231,175,140)" stroke="rgb(231,175,140)" stroke-width=".3"/><polygon points="88.00,96.62 84.00,98.93 104.00,110.48 108.00,108.17" fill="rgb(231,175,140)" stroke="rgb(231,175,140)" stroke-width=".3"/><polygon points="64.00,92.00 60.00,94.31 100.00,117.40 104.00,115.09" fill="rgb(231,175,140)" stroke="rgb(231,175,140)" stroke-width=".3"/><polygon points="120.00,101.24 120.00,92.00 116.00,94.31 116.00,103.55" fill="rgb(111,125,128)" stroke="rgb(111,125,128)" stroke-width=".3"/><polygon points="168.00,110.48 168.00,92.00 112.00,124.33 112.00,142.81" fill="rgb(180,137,109)" stroke="rgb(180,137,109)" stroke-width=".3"/><polygon points="80.00,96.62 76.00,98.93 116.00,122.02 120.00,119.71" fill="rgb(231,175,140)" stroke="rgb(231,175,140)" stroke-width=".3"/><polygon points="120.00,101.24 116.00,103.55 124.00,108.17 128.00,105.86" fill="rgb(226,135,113)" stroke="rgb(226,135,113)" stroke-width=".3"/><polygon points="116.00,108.17 116.00,94.31 112.00,96.62 112.00,110.48" fill="rgb(111,125,128)" stroke="rgb(111,125,128)" stroke-width=".3"/><polygon points="116.00,108.17 124.00,112.79 124.00,108.17 116.00,103.55" fill="rgb(149,89,75)" stroke="rgb(149,89,75)" stroke-width=".3"/><polygon points="128.00,110.48 128.00,105.86 124.00,108.17 124.00,112.79" fill="rgb(176,105,88)" stroke="rgb(176,105,88)" stroke-width=".3"/><polygon points="104.00,110.48 108.00,112.79 108.00,98.93 104.00,96.62" fill="rgb(94,106,109)" stroke="rgb(94,106,109)" stroke-width=".3"/><polygon points="112.00,105.86 112.00,96.62 108.00,98.93 108.00,108.17" fill="rgb(111,125,128)" stroke="rgb(111,125,128)" stroke-width=".3"/><polygon points="116.00,108.17 112.00,110.48 124.00,117.40 128.00,115.09" fill="rgb(231,175,140)" stroke="rgb(231,175,140)" stroke-width=".3"/><polygon points="128.00,110.48 124.00,112.79 128.00,115.09 132.00,112.79" fill="rgb(231,175,140)" stroke="rgb(231,175,140)" stroke-width=".3"/><polygon points="112.00,105.86 108.00,108.17 116.00,112.79 120.00,110.48" fill="rgb(226,135,113)" stroke="rgb(226,135,113)" stroke-width=".3"/><polygon points="108.00,112.79 116.00,117.40 116.00,112.79 108.00,108.17" fill="rgb(149,89,75)" stroke="rgb(149,89,75)" stroke-width=".3"/><polygon points="120.00,115.09 120.00,110.48 116.00,112.79 116.00,117.40" fill="rgb(176,105,88)" stroke="rgb(176,105,88)" stroke-width=".3"/><polygon points="120.00,115.09 116.00,117.40 120.00,119.71 124.00,117.40" fill="rgb(231,175,140)" stroke="rgb(231,175,140)" stroke-width=".3"/><polygon points="104.00,110.48 100.00,112.79 108.00,117.40 112.00,115.09" fill="rgb(226,135,113)" stroke="rgb(226,135,113)" stroke-width=".3"/><polygon points="100.00,117.40 108.00,122.02 108.00,117.40 100.00,112.79" fill="rgb(149,89,75)" stroke="rgb(149,89,75)" stroke-width=".3"/><polygon points="112.00,119.71 112.00,115.09 108.00,117.40 108.00,122.02" fill="rgb(176,105,88)" stroke="rgb(176,105,88)" stroke-width=".3"/><polygon points="112.00,119.71 108.00,122.02 112.00,124.33 116.00,122.02" fill="rgb(231,175,140)" stroke="rgb(231,175,140)" stroke-width=".3"/></svg>