<svg xmlns="http://www.w3.org/2000/svg" width="192" height="192" viewBox="0 0 192 192"><ellipse cx="96" cy="166" rx="53" ry="12" fill="#40594d" opacity=".1"/><polygon points="130.23,96.24 125.34,99.06 130.23,101.88 135.12,99.06" fill="rgb(226,135,113)" stroke="rgb(226,135,113)" stroke-width=".3"/><polygon points="56.88,116.00 61.77,118.82 61.77,101.88 56.88,99.06" fill="rgb(149,89,75)" stroke="rgb(149,89,75)" stroke-width=".3"/><polygon points="135.12,116.00 135.12,99.06 130.23,101.88 130.23,118.82" fill="rgb(176,105,88)" stroke="rgb(176,105,88)" stroke-width=".3"/><polygon points="81.33,90.59 66.66,99.06 86.22,110.35 100.89,101.88" fill="rgb(226,135,113)" stroke="rgb(226,135,113)" stroke-width=".3"/><polygon points="110.67,90.59 105.78,93.41 140.01,113.18 144.90,110.35" fill="rgb(226,135,113)" stroke="rgb(226,135,113)" stroke-width=".3"/><polygon points="61.77,96.24 56.88,99.06 76.44,110.35 81.33,107.53" fill="rgb(226,135,113)" stroke="rgb(226,135,113)" stroke-width=".3"/><polygon points="100.89,90.59 96.00,93.41 140.01,118.82 144.90,116.00" fill="rgb(226,135,113)" stroke="rgb(226,135,113)" stroke-width=".3"/><polygon points="100.89,101.88 96.00,104.71 105.78,110.35 110.67,107.53" fill="rgb(226,135,113)" stroke="rgb(226,135,113)" stroke-width=".3"/><polygon points="91.11,90.59 86.22,93.41 140.01,124.47 144.90,121.65" fill="rgb(226,135,113)" stroke="rgb(226,135,113)" stroke-width=".3"/><polygon points="47.10,127.29 51.99,130.12 51.99,113.18 47.10,110.35" fill="rgb(149,89,75)" stroke="rgb(149,89,75)" stroke-width=".3"/><polygon points="144.90,127.29 144.90,110.35 140.01,113.18 140.01,130.12" fill="rgb(176,105,88)" stroke="rgb(176,105,88)" stroke-width=".3"/><polygon points="61.77,101.88 47.10,110.35 66.66,121.65 81.33,113.18" fill="rgb(226,135,113)" stroke="rgb(226,135,113)" stroke-width=".3"/><polygon points="110.67,51.06 105.78,53.88 110.67,56.71 115.56,53.88" fill="rgb(255,255,232)" stroke="rgb(255,255,232)" stroke-width=".3"/><polygon points="76.44,110.35 81.33,113.18 81.33,56.71 76.44,53.88" fill="rgb(178,171,153)" stroke="rgb(178,171,153)" stroke-width=".3"/><polygon points="115.56,110.35 115.56,53.88 110.67,56.71 110.67,113.18" fill="rgb(210,202,181)" stroke="rgb(210,202,181)" stroke-width=".3"/><polygon points="81.33,51.06 76.44,53.88 91.11,62.35 96.00,59.53" fill="rgb(255,255,232)" stroke="rgb(255,255,232)" stroke-width=".3"/><polygon points="96.00,48.24 86.22,53.88 110.67,68.00 120.45,62.35" fill="rgb(255,255,232)" stroke="rgb(255,255,232)" stroke-width=".3"/><polygon points="47.10,132.94 51.99,135.76 51.99,118.82 47.10,116.00" fill="rgb(149,89,75)" stroke="rgb(149,89,75)" stroke-width=".3"/><polygon points="144.90,132.94 144.90,116.00 140.01,118.82 140.01,135.76" fill="rgb(176,105,88)" stroke="rgb(176,105,88)" stroke-width=".3"/><polygon points="115.56,110.35 110.67,113.18 140.01,130.12 144.90,127.29" fill="rgb(226,135,113)" stroke="rgb(226,135,113)" stroke-width=".3"/><polygon points="96.00,20.00 91.11,22.82 96.00,25.65 100.89,22.82" fill="rgb(143,160,165)" stroke="rgb(143,160,165)" stroke-width=".3"/><polygon points="47.10,138.59 51.99,141.41 51.99,124.47 47.10,121.65" fill="rgb(149,89,75)" stroke="rgb(149,89,75)" stroke-width=".3"/><polygon points="144.90,138.59 144.90,121.65 140.01,124.47 140.01,141.41" fill="rgb(176,105,88)" stroke="rgb(176,105,88)" stroke-width=".3"/><polygon points="120.45,118.82 120.45,62.35 110.67,68.00 110.67,124.47" fill="rgb(210,202,181)" stroke="rgb(210,202,181)" stroke-width=".3"/><polygon points="71.55,118.82 81.33,124.47 81.33,68.00 71.55,62.35" fill="rgb(178,171,153)" stroke="rgb(178,171,153)" stroke-width=".3"/><polygon points="71.55,118.82 66.66,121.65 76.44,127.29 81.33,124.47" fill="rgb(226,135,113)" stroke="rgb(226,135,113)" stroke-width=".3"/><polygon points="100.89,62.35 100.89,22.82 96.00,25.65 96.00,65.18" fill="rgb(111,125,128)" stroke="rgb(111,125,128)" stroke-width=".3"/><polygon points="91.11,62.35 96.00,65.18 96.00,25.65 91.11,22.82" fill="rgb(94,106,109)" stroke="rgb(94,106,109)" stroke-width=".3"/><polygon points="81.33,56.71 71.55,62.35 96.00,76.47 105.78,70.82" fill="rgb(255,255,232)" stroke="rgb(255,255,232)" stroke-width=".3"/><polygon points="100.89,62.35 96.00,65.18 110.67,73.65 115.56,70.82" fill="rgb(255,255,232)" stroke="rgb(255,255,232)" stroke-width=".3"/><polygon points="120.45,118.82 110.67,124.47 130.23,135.76 140.01,130.12" fill="rgb(226,135,113)" stroke="rgb(226,135,113)" stroke-width=".3"/><polygon points="81.33,68.00 76.44,70.82 81.33,73.65 86.22,70.82" fill="rgb(255,255,232)" stroke="rgb(255,255,232)" stroke-width=".3"/><polygon points="105.78,127.29 110.67,130.12 110.67,73.65 105.78,70.82" fill="rgb(178,171,153)" stroke="rgb(178,171,153)" stroke-width=".3"/><polygon points="86.22,127.29 86.22,70.82 81.33,73.65 81.33,130.12" fill="rgb(210,202,181)" stroke="rgb(210,202,181)" stroke-width=".3"/><polygon points="76.44,127.29 81.33,130.12 81.33,73.65 76.44,70.82" fill="rgb(178,171,153)" stroke="rgb(178,171,153)" stroke-width=".3"/><polygon points="115.56,127.29 115.56,70.82 110.67,73.65 110.67,130.12" fill="rgb(210,202,181)" stroke="rgb(210,202,181)" stroke-width=".3"/><polygon points="51.99,113.18 47.10,116.00 100.89,147.06 105.78,144.24" fill="rgb(226,135,113)" stroke="rgb(226,135,113)" stroke-width=".3"/><polygon points="47.10,144.24 61.77,152.71 61.77,135.76 47.10,127.29" fill="rgb(149,89,75)" stroke="rgb(149,89,75)" stroke-width=".3"/><polygon points="144.90,144.24 144.90,127.29 130.23,135.76 130.23,152.71" fill="rgb(176,105,88)" stroke="rgb(176,105,88)" stroke-width=".3"/><polygon points="86.22,127.29 96.00,132.94 96.00,76.47 86.22,70.82" fill="rgb(178,171,153)" stroke="rgb(178,171,153)" stroke-width=".3"/><polygon points="105.78,127.29 105.78,70.82 96.00,76.47 96.00,132.94" fill="rgb(210,202,181)" stroke="rgb(210,202,181)" stroke-width=".3"/><polygon points="51.99,118.82 47.10,121.65 91.11,147.06 96.00,144.24" fill="rgb(226,135,113)" stroke="rgb(226,135,113)" stroke-width=".3"/><polygon points="115.56,127.29 110.67,130.12 130.23,141.41 135.12,138.59" fill="rgb(226,135,113)" stroke="rgb(226,135,113)" stroke-width=".3"/><polygon points="51.99,124.47 47.10,127.29 81.33,147.06 86.22,144.24" fill="rgb(226,135,113)" stroke="rgb(226,135,113)" stroke-width=".3"/><polygon points="105.78,127.29 96.00,132.94 115.56,144.24 125.34,138.59" fill="rgb(226,135,113)" stroke="rgb(226,135,113)" stroke-width=".3"/><polygon points="86.22,127.29 81.33,130.12 110.67,147.06 115.56,144.24" fill="rgb(226,135,113)" stroke="rgb(226,135,113)" stroke-width=".3"/><polygon points="61.77,135.76 56.88,138.59 61.77,141.41 66.66,138.59" fill="rgb(226,135,113)" stroke="rgb(226,135,113)" stroke-width=".3"/><polygon points="56.88,155.53 61.77,158.35 61.77,141.41 56.88,138.59" fill="rgb(149,89,75)" stroke="rgb(149,89,75)" stroke-width=".3"/><polygon points="135.12,155.53 135.12,138.59 130.23,141.41 130.23,158.35" fill="rgb(176,105,88)" stroke="rgb(176,105,88)" stroke-width=".3"/><polygon points="125.34,155.53 130.23,158.35 130.23,141.41 125.34,138.59" fill="rgb(149,89,75)" stroke="rgb(149,89,75)" stroke-width=".3"/><polygon points="66.66,155.53 66.66,138.59 61.77,141.41 61.77,158.35" fill="rgb(176,105,88)" stroke="rgb(176,105,88)" stroke-width=".3"/><polygon points="66.66,155.53 81.33,164.00 81.33,147.06 66.66,138.59" fill="rgb(149,89,75)" stroke="rgb(149,89,75)" stroke-width=".3"/><polygon points="125.34,155.53 125.34,138.59 110.67,147.06 110.67,164.00" fill="rgb(176,105,88)" stroke="rgb(176,105,88)" stroke-width=".3"/><polygon points="105.78,161.18 110.67,164.00 110.67,147.06 105.78,144.24" fill="rgb(149,89,75)" stroke="rgb(149,89,75)" stroke-width=".3"/><polygon points="86.22,161.18 91.11,164.00 91.11,147.06 86.22,144.24" fill="rgb(149,89,75)" stroke="rgb(149,89,75)" stroke-width=".3"/><polygon points="86.22,161.18 86.22,144.24 81.33,147.06 81.33,164.00" fill="rgb(176,105,88)" stroke="rgb(176,105,88)" stroke-width=".3"/><polygon points="105.78,161.18 105.78,144.24 100.89,147.06 100.89,164.00" fill="rgb(176,105,88)" stroke="rgb(176,105,88)" stroke-width=".3"/><polygon points="96.00,161.18 100.89,164.00 100.89,147.06 96.00,144.24" fill="rgb(149,89,75)" stroke="rgb(149,89,75)" stroke-width=".3"/><polygon points="96.00,161.18 96.00,144.24 91.11,147.06 91.11,164.00" fill="rgb(176,105,88)" stroke="rgb(176,105,88)" stroke-width=".3"/></svg>