<svg xmlns="http://www.w3.org/2000/svg" width="192" height="192" viewBox="0 0 192 192"><ellipse cx="96" cy="166" rx="53" ry="12" fill="#40594d" opacity=".1"/><polygon points="84.66,106.40 80.13,109.02 84.66,111.64 89.20,109.02" fill="rgb(61,80,93)" stroke="rgb(61,80,93)" stroke-width=".3"/><polygon points="75.59,106.40 61.99,114.25 66.52,116.87 80.13,109.02" fill="rgb(61,80,93)" stroke="rgb(61,80,93)" stroke-width=".3"/><polygon points="93.73,106.40 89.20,109.02 102.80,116.87 107.34,114.25" fill="rgb(61,80,93)" stroke="rgb(61,80,93)" stroke-width=".3"/><polygon points="57.46,111.64 52.92,114.25 57.46,116.87 61.99,114.25" fill="rgb(61,80,93)" stroke="rgb(61,80,93)" stroke-width=".3"/><polygon points="111.87,111.64 107.34,114.25 111.87,116.87 116.41,114.25" fill="rgb(61,80,93)" stroke="rgb(61,80,93)" stroke-width=".3"/><polygon points="52.92,124.73 57.46,127.35 57.46,116.87 52.92,114.25" fill="rgb(40,53,61)" stroke="rgb(40,53,61)" stroke-width=".3"/><polygon points="116.41,124.73 116.41,114.25 111.87,116.87 111.87,127.35" fill="rgb(48,62,72)" stroke="rgb(48,62,72)" stroke-width=".3"/><polygon points="89.20,25.24 80.13,30.47 84.66,33.09 93.73,27.85" fill="rgb(215,187,144)" stroke="rgb(215,187,144)" stroke-width=".3"/><polygon points="80.13,25.24 66.52,33.09 71.06,35.71 84.66,27.85" fill="rgb(215,187,144)" stroke="rgb(215,187,144)" stroke-width=".3"/><polygon points="93.73,27.85 89.20,30.47 98.27,35.71 102.80,33.09" fill="rgb(215,187,144)" stroke="rgb(215,187,144)" stroke-width=".3"/><polygon points="111.87,116.87 111.87,33.09 107.34,35.71 107.34,119.49" fill="rgb(167,146,112)" stroke="rgb(167,146,112)" stroke-width=".3"/><polygon points="57.46,116.87 61.99,119.49 61.99,35.71 57.46,33.09" fill="rgb(142,124,95)" stroke="rgb(142,124,95)" stroke-width=".3"/><polygon points="61.99,30.47 57.46,33.09 61.99,35.71 66.52,33.09" fill="rgb(215,187,144)" stroke="rgb(215,187,144)" stroke-width=".3"/><polygon points="107.34,30.47 102.80,33.09 107.34,35.71 111.87,33.09" fill="rgb(215,187,144)" stroke="rgb(215,187,144)" stroke-width=".3"/><polygon points="111.87,116.87 107.34,119.49 120.94,127.35 125.48,124.73" fill="rgb(61,80,93)" stroke="rgb(61,80,93)" stroke-width=".3"/><polygon points="57.46,116.87 43.85,124.73 48.39,127.35 61.99,119.49" fill="rgb(61,80,93)" stroke="rgb(61,80,93)" stroke-width=".3"/><polygon points="102.80,22.62 98.27,25.24 102.80,27.85 107.34,25.24" fill="rgb(255,246,206)" stroke="rgb(255,246,206)" stroke-width=".3"/><polygon points="61.99,35.71 66.52,38.33 66.52,27.85 61.99,25.24" fill="rgb(171,163,136)" stroke="rgb(171,163,136)" stroke-width=".3"/><polygon points="107.34,35.71 107.34,25.24 102.80,27.85 102.80,38.33" fill="rgb(202,192,161)" stroke="rgb(202,192,161)" stroke-width=".3"/><polygon points="43.85,135.20 48.39,137.82 48.39,127.35 43.85,124.73" fill="rgb(40,53,61)" stroke="rgb(40,53,61)" stroke-width=".3"/><polygon points="125.48,135.20 125.48,124.73 120.94,127.35 120.94,137.82" fill="rgb(48,62,72)" stroke="rgb(48,62,72)" stroke-width=".3"/><polygon points="89.20,20.00 84.66,22.62 107.34,35.71 111.87,33.09" fill="rgb(255,246,206)" stroke="rgb(255,246,206)" stroke-width=".3"/><polygon points="61.99,35.71 48.39,43.56 52.92,46.18 66.52,38.33" fill="rgb(215,187,144)" stroke="rgb(215,187,144)" stroke-width=".3"/><polygon points="107.34,35.71 102.80,38.33 116.41,46.18 120.94,43.56" fill="rgb(215,187,144)" stroke="rgb(215,187,144)" stroke-width=".3"/><polygon points="80.13,20.00 71.06,25.24 102.80,43.56 111.87,38.33" fill="rgb(255,246,206)" stroke="rgb(255,246,206)" stroke-width=".3"/><polygon points="48.39,127.35 43.85,129.96 48.39,132.58 52.92,129.96" fill="rgb(61,80,93)" stroke="rgb(61,80,93)" stroke-width=".3"/><polygon points="120.94,127.35 116.41,129.96 120.94,132.58 125.48,129.96" fill="rgb(61,80,93)" stroke="rgb(61,80,93)" stroke-width=".3"/><polygon points="48.39,127.35 52.92,129.96 52.92,46.18 48.39,43.56" fill="rgb(142,124,95)" stroke="rgb(142,124,95)" stroke-width=".3"/><polygon points="120.94,127.35 120.94,43.56 116.41,46.18 116.41,129.96" fill="rgb(167,146,112)" stroke="rgb(167,146,112)" stroke-width=".3"/><polygon points="43.85,140.44 48.39,143.05 48.39,132.58 43.85,129.96" fill="rgb(40,53,61)" stroke="rgb(40,53,61)" stroke-width=".3"/><polygon points="125.48,140.44 125.48,129.96 120.94,132.58 120.94,143.05" fill="rgb(48,62,72)" stroke="rgb(48,62,72)" stroke-width=".3"/><polygon points="57.46,43.56 61.99,46.18 61.99,35.71 57.46,33.09" fill="rgb(171,163,136)" stroke="rgb(171,163,136)" stroke-width=".3"/><polygon points="111.87,43.56 111.87,33.09 107.34,35.71 107.34,46.18" fill="rgb(202,192,161)" stroke="rgb(202,192,161)" stroke-width=".3"/><polygon points="66.52,22.62 61.99,25.24 102.80,48.80 107.34,46.18" fill="rgb(255,246,206)" stroke="rgb(255,246,206)" stroke-width=".3"/><polygon points="57.46,43.56 48.39,48.80 52.92,51.42 61.99,46.18" fill="rgb(215,187,144)" stroke="rgb(215,187,144)" stroke-width=".3"/><polygon points="111.87,43.56 107.34,46.18 116.41,51.42 120.94,48.80" fill="rgb(215,187,144)" stroke="rgb(215,187,144)" stroke-width=".3"/><polygon points="48.39,95.93 52.92,98.55 52.92,51.42 48.39,48.80" fill="rgb(142,124,95)" stroke="rgb(142,124,95)" stroke-width=".3"/><polygon points="48.39,132.58 61.99,140.44 61.99,103.78 48.39,95.93" fill="rgb(142,124,95)" stroke="rgb(142,124,95)" stroke-width=".3"/><polygon points="66.52,27.85 57.46,33.09 89.20,51.42 98.27,46.18" fill="rgb(255,246,206)" stroke="rgb(255,246,206)" stroke-width=".3"/><polygon points="48.39,132.58 43.85,135.20 57.46,143.05 61.99,140.44" fill="rgb(61,80,93)" stroke="rgb(61,80,93)" stroke-width=".3"/><polygon points="120.94,132.58 107.34,140.44 111.87,143.05 125.48,135.20" fill="rgb(61,80,93)" stroke="rgb(61,80,93)" stroke-width=".3"/><polygon points="120.94,132.58 120.94,48.80 107.34,56.65 107.34,140.44" fill="rgb(167,146,112)" stroke="rgb(167,146,112)" stroke-width=".3"/><polygon points="57.46,48.80 66.52,54.04 66.52,43.56 57.46,38.33" fill="rgb(171,163,136)" stroke="rgb(171,163,136)" stroke-width=".3"/><polygon points="111.87,48.80 111.87,38.33 102.80,43.56 102.80,54.04" fill="rgb(202,192,161)" stroke="rgb(202,192,161)" stroke-width=".3"/><polygon points="43.85,145.67 57.46,153.53 57.46,143.05 43.85,135.20" fill="rgb(40,53,61)" stroke="rgb(40,53,61)" stroke-width=".3"/><polygon points="125.48,145.67 125.48,135.20 111.87,143.05 111.87,153.53" fill="rgb(48,62,72)" stroke="rgb(48,62,72)" stroke-width=".3"/><polygon points="57.46,48.80 52.92,51.42 61.99,56.65 66.52,54.04" fill="rgb(215,187,144)" stroke="rgb(215,187,144)" stroke-width=".3"/><polygon points="111.87,48.80 102.80,54.04 107.34,56.65 116.41,51.42" fill="rgb(215,187,144)" stroke="rgb(215,187,144)" stroke-width=".3"/><polygon points="52.92,72.36 61.99,77.60 61.99,56.65 52.92,51.42" fill="rgb(142,124,95)" stroke="rgb(142,124,95)" stroke-width=".3"/><polygon points="61.99,35.71 57.46,38.33 80.13,51.42 84.66,48.80" fill="rgb(255,246,206)" stroke="rgb(255,246,206)" stroke-width=".3"/><polygon points="52.92,72.36 48.39,74.98 57.46,80.22 61.99,77.60" fill="rgb(153,218,223)" stroke="rgb(153,218,223)" stroke-width=".3"/><polygon points="48.39,101.16 57.46,106.40 57.46,80.22 48.39,74.98" fill="rgb(101,144,148)" stroke="rgb(101,144,148)" stroke-width=".3"/><polygon points="66.52,43.56 61.99,46.18 66.52,48.80 71.06,46.18" fill="rgb(255,246,206)" stroke="rgb(255,246,206)" stroke-width=".3"/><polygon points="111.87,143.05 111.87,111.64 107.34,114.25 107.34,145.67" fill="rgb(167,146,112)" stroke="rgb(167,146,112)" stroke-width=".3"/><polygon points="102.80,143.05 107.34,145.67 107.34,114.25 102.80,111.64" fill="rgb(142,124,95)" stroke="rgb(142,124,95)" stroke-width=".3"/><polygon points="57.46,143.05 61.99,145.67 61.99,109.02 57.46,106.40" fill="rgb(142,124,95)" stroke="rgb(142,124,95)" stroke-width=".3"/><polygon points="66.52,143.05 66.52,106.40 61.99,109.02 61.99,145.67" fill="rgb(167,146,112)" stroke="rgb(167,146,112)" stroke-width=".3"/><polygon points="98.27,56.65 102.80,59.27 102.80,48.80 98.27,46.18" fill="rgb(171,163,136)" stroke="rgb(171,163,136)" stroke-width=".3"/><polygon points="71.06,56.65 71.06,46.18 66.52,48.80 66.52,59.27" fill="rgb(202,192,161)" stroke="rgb(202,192,161)" stroke-width=".3"/><polygon points="61.99,56.65 66.52,59.27 66.52,48.80 61.99,46.18" fill="rgb(171,163,136)" stroke="rgb(171,163,136)" stroke-width=".3"/><polygon points="107.34,56.65 107.34,46.18 102.80,48.80 102.80,59.27" fill="rgb(202,192,161)" stroke="rgb(202,192,161)" stroke-width=".3"/><polygon points="57.46,143.05 52.92,145.67 57.46,148.29 61.99,145.67" fill="rgb(61,80,93)" stroke="rgb(61,80,93)" stroke-width=".3"/><polygon points="111.87,143.05 107.34,145.67 111.87,148.29 116.41,145.67" fill="rgb(61,80,93)" stroke="rgb(61,80,93)" stroke-width=".3"/><polygon points="61.99,56.65 57.46,59.27 61.99,61.89 66.52,59.27" fill="rgb(215,187,144)" stroke="rgb(215,187,144)" stroke-width=".3"/><polygon points="107.34,56.65 102.80,59.27 107.34,61.89 111.87,59.27" fill="rgb(215,187,144)" stroke="rgb(215,187,144)" stroke-width=".3"/><polygon points="71.06,56.65 80.13,61.89 80.13,51.42 71.06,46.18" fill="rgb(171,163,136)" stroke="rgb(171,163,136)" stroke-width=".3"/><polygon points="98.27,56.65 98.27,46.18 89.20,51.42 89.20,61.89" fill="rgb(202,192,161)" stroke="rgb(202,192,161)" stroke-width=".3"/><polygon points="107.34,156.15 111.87,158.76 111.87,148.29 107.34,145.67" fill="rgb(40,53,61)" stroke="rgb(40,53,61)" stroke-width=".3"/><polygon points="61.99,156.15 61.99,145.67 57.46,148.29 57.46,158.76" fill="rgb(48,62,72)" stroke="rgb(48,62,72)" stroke-width=".3"/><polygon points="52.92,156.15 57.46,158.76 57.46,148.29 52.92,145.67" fill="rgb(40,53,61)" stroke="rgb(40,53,61)" stroke-width=".3"/><polygon points="116.41,156.15 116.41,145.67 111.87,148.29 111.87,158.76" fill="rgb(48,62,72)" stroke="rgb(48,62,72)" stroke-width=".3"/><polygon points="102.80,101.16 107.34,103.78 107.34,61.89 102.80,59.27" fill="rgb(142,124,95)" stroke="rgb(142,124,95)" stroke-width=".3"/><polygon points="111.87,95.93 111.87,59.27 107.34,61.89 107.34,98.55" fill="rgb(167,146,112)" stroke="rgb(167,146,112)" stroke-width=".3"/><polygon points="57.46,80.22 61.99,82.84 61.99,61.89 57.46,59.27" fill="rgb(142,124,95)" stroke="rgb(142,124,95)" stroke-width=".3"/><polygon points="66.52,80.22 66.52,59.27 61.99,61.89 61.99,82.84" fill="rgb(167,146,112)" stroke="rgb(167,146,112)" stroke-width=".3"/><polygon points="102.80,101.16 98.27,103.78 102.80,106.40 107.34,103.78" fill="rgb(143,160,165)" stroke="rgb(143,160,165)" stroke-width=".3"/><polygon points="102.80,143.05 102.80,111.64 89.20,119.49 89.20,150.91" fill="rgb(167,146,112)" stroke="rgb(167,146,112)" stroke-width=".3"/><polygon points="57.46,106.40 66.52,111.64 66.52,85.45 57.46,80.22" fill="rgb(101,144,148)" stroke="rgb(101,144,148)" stroke-width=".3"/><polygon points="98.27,56.65 89.20,61.89 93.73,64.51 102.80,59.27" fill="rgb(215,187,144)" stroke="rgb(215,187,144)" stroke-width=".3"/><polygon points="66.52,143.05 80.13,150.91 80.13,114.25 66.52,106.40" fill="rgb(142,124,95)" stroke="rgb(142,124,95)" stroke-width=".3"/><polygon points="84.66,59.27 89.20,61.89 89.20,51.42 84.66,48.80" fill="rgb(171,163,136)" stroke="rgb(171,163,136)" stroke-width=".3"/><polygon points="84.66,59.27 84.66,48.80 80.13,51.42 80.13,61.89" fill="rgb(202,192,161)" stroke="rgb(202,192,161)" stroke-width=".3"/><polygon points="66.52,80.22 61.99,82.84 66.52,85.45 71.06,82.84" fill="rgb(153,218,223)" stroke="rgb(153,218,223)" stroke-width=".3"/><polygon points="66.52,143.05 61.99,145.67 75.59,153.53 80.13,150.91" fill="rgb(61,80,93)" stroke="rgb(61,80,93)" stroke-width=".3"/><polygon points="102.80,143.05 89.20,150.91 93.73,153.53 107.34,145.67" fill="rgb(61,80,93)" stroke="rgb(61,80,93)" stroke-width=".3"/><polygon points="111.87,95.93 102.80,101.16 107.34,103.78 116.41,98.55" fill="rgb(143,160,165)" stroke="rgb(143,160,165)" stroke-width=".3"/><polygon points="71.06,109.02 71.06,82.84 66.52,85.45 66.52,111.64" fill="rgb(119,170,174)" stroke="rgb(119,170,174)" stroke-width=".3"/><polygon points="71.06,56.65 66.52,59.27 80.13,67.13 84.66,64.51" fill="rgb(215,187,144)" stroke="rgb(215,187,144)" stroke-width=".3"/><polygon points="61.99,156.15 75.59,164.00 75.59,153.53 61.99,145.67" fill="rgb(40,53,61)" stroke="rgb(40,53,61)" stroke-width=".3"/><polygon points="107.34,156.15 107.34,145.67 93.73,153.53 93.73,164.00" fill="rgb(48,62,72)" stroke="rgb(48,62,72)" stroke-width=".3"/><polygon points="102.80,101.16 102.80,59.27 89.20,67.13 89.20,109.02" fill="rgb(167,146,112)" stroke="rgb(167,146,112)" stroke-width=".3"/><polygon points="116.41,114.25 116.41,109.02 107.34,114.25 107.34,119.49" fill="rgb(111,125,128)" stroke="rgb(111,125,128)" stroke-width=".3"/><polygon points="98.27,114.25 98.27,103.78 89.20,109.02 89.20,119.49" fill="rgb(167,146,112)" stroke="rgb(167,146,112)" stroke-width=".3"/><polygon points="98.27,114.25 107.34,119.49 107.34,109.02 98.27,103.78" fill="rgb(94,106,109)" stroke="rgb(94,106,109)" stroke-width=".3"/><polygon points="66.52,80.22 80.13,88.07 80.13,67.13 66.52,59.27" fill="rgb(142,124,95)" stroke="rgb(142,124,95)" stroke-width=".3"/><polygon points="71.06,109.02 80.13,114.25 80.13,88.07 71.06,82.84" fill="rgb(142,124,95)" stroke="rgb(142,124,95)" stroke-width=".3"/><polygon points="84.66,59.27 80.13,61.89 89.20,67.13 93.73,64.51" fill="rgb(215,187,144)" stroke="rgb(215,187,144)" stroke-width=".3"/><polygon points="84.66,148.29 80.13,150.91 84.66,153.53 89.20,150.91" fill="rgb(61,80,93)" stroke="rgb(61,80,93)" stroke-width=".3"/><polygon points="84.66,148.29 89.20,150.91 89.20,67.13 84.66,64.51" fill="rgb(142,124,95)" stroke="rgb(142,124,95)" stroke-width=".3"/><polygon points="84.66,148.29 84.66,64.51 80.13,67.13 80.13,150.91" fill="rgb(167,146,112)" stroke="rgb(167,146,112)" stroke-width=".3"/><polygon points="116.41,93.31 107.34,98.55 111.87,101.16 120.94,95.93" fill="rgb(143,160,165)" stroke="rgb(143,160,165)" stroke-width=".3"/><polygon points="89.20,161.38 93.73,164.00 93.73,153.53 89.20,150.91" fill="rgb(40,53,61)" stroke="rgb(40,53,61)" stroke-width=".3"/><polygon points="80.13,161.38 80.13,150.91 75.59,153.53 75.59,164.00" fill="rgb(48,62,72)" stroke="rgb(48,62,72)" stroke-width=".3"/><polygon points="80.13,161.38 84.66,164.00 84.66,153.53 80.13,150.91" fill="rgb(40,53,61)" stroke="rgb(40,53,61)" stroke-width=".3"/><polygon points="89.20,161.38 89.20,150.91 84.66,153.53 84.66,164.00" fill="rgb(48,62,72)" stroke="rgb(48,62,72)" stroke-width=".3"/><polygon points="120.94,111.64 120.94,106.40 111.87,111.64 111.87,116.87" fill="rgb(111,125,128)" stroke="rgb(111,125,128)" stroke-width=".3"/><polygon points="107.34,114.25 111.87,116.87 111.87,111.64 107.34,109.02" fill="rgb(94,106,109)" stroke="rgb(94,106,109)" stroke-width=".3"/><polygon points="102.80,106.40 116.41,114.25 116.41,109.02 102.80,101.16" fill="rgb(94,106,109)" stroke="rgb(94,106,109)" stroke-width=".3"/><polygon points="125.48,109.02 125.48,103.78 116.41,109.02 116.41,114.25" fill="rgb(111,125,128)" stroke="rgb(111,125,128)" stroke-width=".3"/><polygon points="120.94,90.69 111.87,95.93 120.94,101.16 130.01,95.93" fill="rgb(143,160,165)" stroke="rgb(143,160,165)" stroke-width=".3"/><polygon points="107.34,103.78 125.48,114.25 125.48,109.02 107.34,98.55" fill="rgb(94,106,109)" stroke="rgb(94,106,109)" stroke-width=".3"/><polygon points="130.01,90.69 120.94,95.93 125.48,98.55 134.54,93.31" fill="rgb(143,160,165)" stroke="rgb(143,160,165)" stroke-width=".3"/><polygon points="134.54,109.02 134.54,103.78 125.48,109.02 125.48,114.25" fill="rgb(111,125,128)" stroke="rgb(111,125,128)" stroke-width=".3"/><polygon points="111.87,101.16 130.01,111.64 130.01,106.40 111.87,95.93" fill="rgb(94,106,109)" stroke="rgb(94,106,109)" stroke-width=".3"/><polygon points="134.54,88.07 125.48,93.31 130.01,95.93 139.08,90.69" fill="rgb(143,160,165)" stroke="rgb(143,160,165)" stroke-width=".3"/><polygon points="139.08,106.40 139.08,101.16 130.01,106.40 130.01,111.64" fill="rgb(111,125,128)" stroke="rgb(111,125,128)" stroke-width=".3"/><polygon points="120.94,101.16 134.54,109.02 134.54,103.78 120.94,95.93" fill="rgb(94,106,109)" stroke="rgb(94,106,109)" stroke-width=".3"/><polygon points="143.61,103.78 143.61,98.55 134.54,103.78 134.54,109.02" fill="rgb(111,125,128)" stroke="rgb(111,125,128)" stroke-width=".3"/><polygon points="139.08,85.45 130.01,90.69 139.08,95.93 148.15,90.69" fill="rgb(143,160,165)" stroke="rgb(143,160,165)" stroke-width=".3"/><polygon points="125.48,98.55 139.08,106.40 139.08,101.16 125.48,93.31" fill="rgb(94,106,109)" stroke="rgb(94,106,109)" stroke-width=".3"/><polygon points="148.15,101.16 148.15,90.69 139.08,95.93 139.08,106.40" fill="rgb(111,125,128)" stroke="rgb(111,125,128)" stroke-width=".3"/><polygon points="130.01,95.93 139.08,101.16 139.08,95.93 130.01,90.69" fill="rgb(94,106,109)" stroke="rgb(94,106,109)" stroke-width=".3"/></svg>