<svg xmlns="http://www.w3.org/2000/svg" width="192" height="192" viewBox="0 0 192 192"><ellipse cx="96" cy="166" rx="53" ry="12" fill="#40594d" opacity=".1"/><polygon points="76.81,20.00 72.02,22.77 76.81,25.54 81.61,22.77" fill="rgb(61,80,93)" stroke="rgb(61,80,93)" stroke-width=".3"/><polygon points="72.02,72.62 76.81,75.38 76.81,25.54 72.02,22.77" fill="rgb(40,53,61)" stroke="rgb(40,53,61)" stroke-width=".3"/><polygon points="81.61,72.62 81.61,22.77 76.81,25.54 76.81,75.38" fill="rgb(48,62,72)" stroke="rgb(48,62,72)" stroke-width=".3"/><polygon points="76.81,64.31 38.44,86.46 43.24,89.23 81.61,67.08" fill="rgb(110,155,183)" stroke="rgb(110,155,183)" stroke-width=".3"/><polygon points="38.44,108.62 48.04,114.15 48.04,92.00 38.44,86.46" fill="rgb(73,102,121)" stroke="rgb(73,102,121)" stroke-width=".3"/><polygon points="81.61,67.08 76.81,69.85 148.76,111.38 153.56,108.62" fill="rgb(110,155,183)" stroke="rgb(110,155,183)" stroke-width=".3"/><polygon points="81.61,72.62 76.81,75.38 134.37,108.62 139.17,105.85" fill="rgb(110,155,183)" stroke="rgb(110,155,183)" stroke-width=".3"/><polygon points="72.02,72.62 43.24,89.23 115.19,130.77 143.96,114.15" fill="rgb(110,155,183)" stroke="rgb(110,155,183)" stroke-width=".3"/><polygon points="48.04,103.08 43.24,105.85 76.81,125.23 81.61,122.46" fill="rgb(61,80,93)" stroke="rgb(61,80,93)" stroke-width=".3"/><polygon points="43.24,116.92 76.81,136.31 76.81,125.23 43.24,105.85" fill="rgb(40,53,61)" stroke="rgb(40,53,61)" stroke-width=".3"/><polygon points="38.44,119.69 115.19,164.00 115.19,152.92 38.44,108.62" fill="rgb(73,102,121)" stroke="rgb(73,102,121)" stroke-width=".3"/><polygon points="139.17,67.08 134.37,69.85 139.17,72.62 143.96,69.85" fill="rgb(61,80,93)" stroke="rgb(61,80,93)" stroke-width=".3"/><polygon points="134.37,108.62 139.17,111.38 139.17,72.62 134.37,69.85" fill="rgb(40,53,61)" stroke="rgb(40,53,61)" stroke-width=".3"/><polygon points="143.96,108.62 143.96,69.85 139.17,72.62 139.17,111.38" fill="rgb(48,62,72)" stroke="rgb(48,62,72)" stroke-width=".3"/><polygon points="48.04,103.08 115.19,141.85 115.19,130.77 48.04,92.00" fill="rgb(73,102,121)" stroke="rgb(73,102,121)" stroke-width=".3"/><polygon points="143.96,108.62 139.17,111.38 143.96,114.15 148.76,111.38" fill="rgb(110,155,183)" stroke="rgb(110,155,183)" stroke-width=".3"/><polygon points="81.61,133.54 81.61,122.46 76.81,125.23 76.81,136.31" fill="rgb(48,62,72)" stroke="rgb(48,62,72)" stroke-width=".3"/><polygon points="81.61,133.54 91.20,139.08 91.20,128.00 81.61,122.46" fill="rgb(73,102,121)" stroke="rgb(73,102,121)" stroke-width=".3"/><polygon points="153.56,141.85 153.56,108.62 115.19,130.77 115.19,164.00" fill="rgb(86,121,143)" stroke="rgb(86,121,143)" stroke-width=".3"/><polygon points="91.20,133.54 86.41,136.31 105.59,147.38 110.39,144.62" fill="rgb(131,180,135)" stroke="rgb(131,180,135)" stroke-width=".3"/><polygon points="91.20,133.54 115.19,147.38 115.19,141.85 91.20,128.00" fill="rgb(73,102,121)" stroke="rgb(73,102,121)" stroke-width=".3"/><polygon points="86.41,141.85 105.59,152.92 105.59,147.38 86.41,136.31" fill="rgb(86,119,89)" stroke="rgb(86,119,89)" stroke-width=".3"/><polygon points="110.39,150.15 115.19,152.92 115.19,147.38 110.39,144.62" fill="rgb(73,102,121)" stroke="rgb(73,102,121)" stroke-width=".3"/><polygon points="110.39,150.15 110.39,144.62 105.59,147.38 105.59,152.92" fill="rgb(102,140,105)" stroke="rgb(102,140,105)" stroke-width=".3"/></svg>